<?xml version="1.0" encoding="UTF-8"?>
<svg width="80px" height="80px" viewBox="0 0 80 80" version="1.1" xmlns="http://www.w3.org/2000/svg" xmlns:xlink="http://www.w3.org/1999/xlink">
    <!-- Generator: Sketch 50.2 (55047) - http://www.bohemiancoding.com/sketch -->
    <title>Icon/Contact</title>
    <desc>Created with Sketch.</desc>
    <defs>
        <path d="M12.0832634,33.0000801 C9.64400076,32.9885025 7.33257118,34.2308695 6.78732425,37.1350692 C7.75172433,36.0503359 11.8615122,35.6442289 8.73873433,38.0853241 C7.95086555,38.6998281 6.76471433,38.796902 5.79248774,39.6776911 C3.24452361,41.9887608 3.55845366,42.6887611 3.04538239,45.5751492 C6.8681982,41.9424504 8.35262645,46.1112817 3.47584049,48.3217152 C1.88705876,49.2194255 0.761780403,49.5872374 0,49.1009776 C4.5837266,53.7222265 8.2856663,48.6031403 10.0622843,47.4391449 C12.7598217,45.7612816 12.5111126,50.0262961 9.26745862,50.9649734 C11.2206079,51.1056859 14.2877306,49.8864742 15.722591,48.9317664 C17.2339772,47.8915624 20.9785279,43.8117896 19.760201,39.203009 C19.5514941,38.3551715 17.813139,35.0448647 15.3582234,33.7793426 C14.3503427,33.2939734 13.1920191,33.0054236 12.0832634,33.0000801 Z M44.7729792,11.0057973 C46.0517398,10.9367362 47.3520759,11.4858963 48.1835607,12.5892088 C49.51626,14.3515134 49.1851597,16.8593444 47.4259303,18.1939698 C45.6675307,19.5285952 43.1349043,19.1658167 41.8038646,17.401848 C40.472825,15.6395434 40.8346288,13.1317124 42.5938582,11.797087 C43.2510798,11.2961865 44.0045611,11.0482324 44.7729792,11.0057973 Z M51.1624497,1.02245721 C40.0295298,3.39391998 31.2643969,10.8871446 24.3571992,18.6212073 C23.4463789,18.6097806 21.6160968,18.4867248 19.8834643,18.3531212 C17.9598534,18.20897 16.2652437,18.0516343 16.2652437,18.0516343 C16.0025404,18.030539 15.7450219,18.1070094 15.5428094,18.2854405 L5.34577032,27.218419 C4.96727005,27.5524279 4.87999031,28.2160507 5.1815807,28.6230141 L6.85890722,30.8309884 C7.12679554,31.1878504 7.63751165,31.3451862 8.0436649,31.1667551 L15.8374866,27.7211902 L16.5953513,28.1896816 C16.228085,28.6748734 15.8660037,29.1547914 15.5091074,29.6285565 C15.2507248,29.973992 15.218751,30.5145589 15.4771336,30.8661472 L22.975414,40.9347558 C23.2389815,41.287223 23.7600675,41.3988523 24.1601716,41.2362427 C24.7028615,41.019137 25.2783893,40.7967574 25.8374982,40.568225 L26.0353899,41.437527 L20.6741669,48.1273725 C20.3950446,48.4745659 20.4105994,49.009859 20.6741669,49.3667211 L22.3186555,51.6080962 C22.6193818,52.0150596 23.2502155,52.1258099 23.6676028,51.8419024 L34.8834817,44.280997 C35.1021131,44.130693 35.2611178,43.8801864 35.3103747,43.6112214 C35.3103747,43.6112214 35.6180142,41.9227188 36.0025635,39.9986521 C36.3473617,38.264443 36.753515,36.4414579 36.9894295,35.5493027 C46.1771346,30.8775738 55.6102599,24.3310005 60.8677842,14.0707763 C60.93346,13.9424466 60.9939509,13.780716 61,13.6356858 L51.5902069,1.02245721 C51.4528061,0.989935295 51.3058996,0.995209119 51.1624497,1.02245721 Z M62.6940358,0.00174706897 C61.8831473,-0.0034496045 60.7809522,0.00174706897 59.5816549,0.033793222 C57.3653399,0.0944210792 54.8108708,0.243392385 53,0.496297161 L61.5909889,12 C62.3201072,10.2911605 63.141217,7.82966954 63.7962309,5.67045171 C64.1514205,4.50033407 64.4282469,3.4341499 64.638635,2.63819274 C64.7468103,2.24324556 64.8388018,1.89680066 64.898426,1.64909256 C64.924831,1.52783684 64.9469771,1.4187067 64.962309,1.31996991 C64.9733821,1.2697354 64.9895658,1.23162646 64.9955282,1.15367635 C65.0014906,1.11556742 65.0014906,1.0722618 64.9955282,0.989115028 C64.9904175,0.907700477 65.0491899,0.790775324 64.800472,0.461652671 C64.5568648,0.132530018 64.4282469,0.126467232 64.3464767,0.0987516404 C64.2647064,0.0719021608 64.2221177,0.0719021608 64.1846397,0.0667054874 C64.1088318,0.0502493547 64.0381346,0.0389898955 63.9895835,0.0329271098 C63.8924813,0.0233998751 63.7902685,0.0381237833 63.6659095,0.0329271098 C63.4171916,0.0233998751 63.0994801,0.00174706897 62.6940358,0.00174706897 Z" id="path-1"></path>
        <filter x="-36.9%" y="-15.4%" width="173.8%" height="192.3%" filterUnits="objectBoundingBox" id="filter-3">
            <feOffset dx="0" dy="8" in="SourceAlpha" result="shadowOffsetOuter1"></feOffset>
            <feGaussianBlur stdDeviation="4" in="shadowOffsetOuter1" result="shadowBlurOuter1"></feGaussianBlur>
            <feColorMatrix values="0 0 0 0 0.180392157   0 0 0 0 0.176470588   0 0 0 0 0.698039216  0 0 0 0.08 0" type="matrix" in="shadowBlurOuter1" result="shadowMatrixOuter1"></feColorMatrix>
            <feOffset dx="0" dy="8" in="SourceAlpha" result="shadowOffsetOuter2"></feOffset>
            <feGaussianBlur stdDeviation="4" in="shadowOffsetOuter2" result="shadowBlurOuter2"></feGaussianBlur>
            <feColorMatrix values="0 0 0 0 0   0 0 0 0 0   0 0 0 0 0  0 0 0 0.08 0" type="matrix" in="shadowBlurOuter2" result="shadowMatrixOuter2"></feColorMatrix>
            <feMerge>
                <feMergeNode in="shadowMatrixOuter1"></feMergeNode>
                <feMergeNode in="shadowMatrixOuter2"></feMergeNode>
            </feMerge>
        </filter>
        <linearGradient x1="11.5517976%" y1="88.9160154%" x2="117.452426%" y2="-14.7016434%" id="linearGradient-4">
            <stop stop-color="#008ED1" offset="0%"></stop>
            <stop stop-color="#4300A3" offset="42.0400571%"></stop>
            <stop stop-color="#FF00CF" offset="100%"></stop>
        </linearGradient>
    </defs>
    <g id="Icon/Contact" stroke="none" stroke-width="1" fill="none" fill-rule="evenodd">
        <g id="Group" transform="translate(8.000000, 14.000000)">
            <g id="Rectangle">
                <mask id="mask-2" fill="white">
                    <use xlink:href="#path-1"></use>
                </mask>
                <g id="Mask" fill-rule="nonzero">
                    <use fill="black" fill-opacity="1" filter="url(#filter-3)" xlink:href="#path-1"></use>
                    <use fill="#000000" fill-rule="evenodd" xlink:href="#path-1"></use>
                </g>
                <rect stroke="#979797" fill="url(#linearGradient-4)" mask="url(#mask-2)" x="-7.5" y="-13.5" width="81" height="81"></rect>
            </g>
            <circle id="Oval" fill="#FFFFFF" cx="45" cy="15" r="4"></circle>
        </g>
    </g>
</svg>