<?xml version="1.0" encoding="UTF-8"?>
<svg width="600px" height="646px" viewBox="0 0 600 646" version="1.1" xmlns="http://www.w3.org/2000/svg" xmlns:xlink="http://www.w3.org/1999/xlink">
    <!-- Generator: Sketch 50.2 (55047) - http://www.bohemiancoding.com/sketch -->
    <title>astronaut</title>
    <desc>Created with Sketch.</desc>
    <defs>
        <linearGradient x1="-119.21843%" y1="215.275334%" x2="348.791809%" y2="-241.827938%" id="linearGradient-1">
            <stop stop-color="#7826AD" offset="0%"></stop>
            <stop stop-color="#356FA8" offset="100%"></stop>
        </linearGradient>
        <linearGradient x1="3.28858579%" y1="88.4866667%" x2="101.716953%" y2="19.2026667%" id="linearGradient-2">
            <stop stop-color="#7826AD" offset="0%"></stop>
            <stop stop-color="#356FA8" offset="100%"></stop>
        </linearGradient>
        <linearGradient x1="-539.625%" y1="816.057143%" x2="603.1%" y2="-668.6%" id="linearGradient-3">
            <stop stop-color="#7826AD" offset="0%"></stop>
            <stop stop-color="#356FA8" offset="100%"></stop>
        </linearGradient>
        <linearGradient x1="-162.971352%" y1="233.824866%" x2="256.733595%" y2="-124.885618%" id="linearGradient-4">
            <stop stop-color="#7826AD" offset="0%"></stop>
            <stop stop-color="#356FA8" offset="100%"></stop>
        </linearGradient>
    </defs>
    <g id="Page-1" stroke="none" stroke-width="1" fill="none" fill-rule="evenodd">
        <g id="astronaut" fill-rule="nonzero">
            <path d="M239.778475,301.291248 L135.544337,301.291248 C129.621814,301.291248 124.82066,306.122405 124.82066,312.08194 L124.82066,388.635421 C124.82066,394.594955 129.621814,399.426112 135.544337,399.426112 L239.778475,399.426112 C245.700998,399.426112 250.502152,394.594955 250.502152,388.635421 L250.502152,312.08194 C250.502152,306.122405 245.700998,301.291248 239.778475,301.291248 Z M229.054798,377.844729 L146.268014,377.844729 L146.268014,322.872631 L229.054798,322.872631 L229.054798,377.844729 Z" id="Shape" fill="#000000"></path>
            <path d="M239.778475,301.291248 L135.544337,301.291248 C129.621814,301.291248 124.82066,306.122405 124.82066,312.08194 L124.82066,388.635421 C124.82066,394.594955 129.621814,399.426112 135.544337,399.426112 L239.778475,399.426112 C245.700998,399.426112 250.502152,394.594955 250.502152,388.635421 L250.502152,312.08194 C250.502152,306.122405 245.700998,301.291248 239.778475,301.291248 Z M229.054798,377.844729 L146.268014,377.844729 L146.268014,322.872631 L229.054798,322.872631 L229.054798,377.844729 Z" id="Shape" fill="url(#linearGradient-1)"></path>
            <path d="M584.926413,24.4304161 L439.15191,24.4304161 L439.15191,15.0645624 C439.15191,6.74463433 432.403236,5.09448665e-16 424.078323,0 C415.753411,-5.09448665e-16 409.004737,6.74463433 409.004737,15.0645624 L409.004737,193.661406 L298.489506,193.661406 C302.22135,182.200067 304.120994,170.222192 304.118414,158.169297 C303.728763,94.1005327 251.649776,42.3681169 187.541448,42.3681169 C123.43312,42.3681169 71.3541339,94.1005327 70.9644824,158.169297 C70.9593351,172.189436 73.5300105,186.091367 78.5486499,199.183644 C31.8692611,214.172929 0.157985489,257.499165 0.00234315299,306.499283 L0.00234315299,418.248207 C-0.252558694,445.125639 20.3196405,467.630274 47.1266818,469.799139 C55.340954,470.350614 63.5667964,468.907856 71.1022981,465.593974 L71.1022981,555.043042 C46.9798095,561.733783 30.2591129,583.649408 30.1882771,608.66858 L30.1882771,630.559541 C30.1882771,638.879469 36.9369517,645.624103 45.2618638,645.624103 L330.996772,645.624103 C339.321685,645.624103 346.070359,638.879469 346.070359,630.559541 L346.070359,608.61693 C346.105675,593.82146 340.188166,579.632902 329.648763,569.242468 C322.857058,562.482236 314.436359,557.585826 305.199406,555.025825 L305.199406,294.301291 L409.009044,294.301291 L409.009044,615.494978 L399.051863,615.494978 C390.726951,615.494978 383.978276,622.239613 383.978276,630.559541 C383.978276,638.879469 390.726951,645.624103 399.051863,645.624103 L486.289169,645.624103 C494.614081,645.624103 501.362756,638.879469 501.362756,630.559541 C501.362756,622.239613 494.614081,615.494978 486.289169,615.494978 L439.156217,615.494978 L439.156217,293.070301 C461.747537,288.135883 478.064847,268.44751 478.709308,245.345768 C479.024216,232.013614 473.889038,219.128957 464.488456,209.664275 C457.550726,202.595328 448.775692,197.602978 439.15191,195.249641 L439.15191,168.189383 L584.926413,168.189383 C593.251325,168.189383 600,161.444749 600,153.124821 L600,39.4949785 C600,31.1750504 593.251325,24.4304161 584.926413,24.4304161 Z M187.539295,72.5423242 C234.76483,72.9503576 272.756381,111.470379 272.483991,158.66862 C272.211601,205.866862 233.77798,243.946347 186.550877,243.809929 C139.323774,243.67351 101.111047,205.372627 101.111656,158.173601 C101.372627,110.698293 140.035068,72.3920957 187.539295,72.5423242 Z M71.0979913,419.56528 C71.1151302,424.913516 68.977744,430.043585 65.1676116,433.799139 C60.9409196,438.024818 55.0772854,440.19308 49.1163952,439.734577 C38.1980257,438.527001 29.9853477,429.225493 30.1452097,418.248207 L30.1452097,402.064562 L71.0980936,402.064562 L71.0979913,419.56528 Z M388.285015,264.172166 L290.125819,264.172166 C281.800907,264.172166 275.052232,270.916801 275.052232,279.236729 L275.052232,552.998565 L263.979606,552.998565 C255.654694,552.998565 248.90602,559.7432 248.90602,568.063128 C248.90602,576.383056 255.654694,583.12769 263.979606,583.12769 L290.125819,583.12769 C296.974276,583.101767 303.551803,585.799339 308.407926,590.625538 C313.227398,595.373474 315.9354,601.857932 315.923186,608.621234 L315.923186,615.494978 L203.202905,615.494978 L203.202905,472.222382 C203.202905,463.902454 196.45423,457.157819 188.129318,457.157819 C179.804406,457.157819 173.055731,463.902454 173.055731,472.222382 L173.055731,615.494978 L60.3354504,615.494978 L60.3354504,608.66858 C60.4303,594.490485 71.9891049,583.063745 86.1758847,583.123386 L112.322097,583.123386 C120.647009,583.123386 127.395684,576.378752 127.395684,568.058824 C127.395684,559.738895 120.647009,552.994261 112.322097,552.994261 L101.249471,552.994261 L101.249471,308.556671 C101.249471,300.236743 94.5007967,293.492109 86.1758847,293.492109 C77.8509727,293.492109 71.1022981,300.236743 71.1022981,308.556671 L71.1022981,380.548063 L30.1495165,380.548063 L30.1495165,306.499283 C30.3283284,268.437571 56.4123238,235.385322 93.4068996,226.342898 C115.756667,256.708453 151.397127,274.426385 189.112219,273.920857 C226.827312,273.41533 261.979492,254.748505 283.506361,223.794835 L388.285015,223.794835 L388.285015,264.172166 Z M442.89016,230.685796 C446.591463,234.342628 448.642591,239.348488 448.570748,244.549498 C448.436527,249.70903 446.307989,254.616084 442.631755,258.241033 C438.783051,262.06688 433.567882,264.202812 428.139578,264.176471 L427.04136,264.176471 C425.085889,263.780309 423.070758,263.780309 421.115287,264.176471 L409.814404,264.176711 L409.814404,223.794835 L426.662367,223.794835 C432.77801,223.821061 438.626111,226.304396 442.89016,230.685796 Z M569.852827,138.060258 L439.15191,138.060258 L439.15191,54.5595409 L569.852827,54.5595409 L569.852827,138.060258 Z" id="Shape" fill="#000000"></path>
            <path d="M584.926413,24.4304161 L439.15191,24.4304161 L439.15191,15.0645624 C439.15191,6.74463433 432.403236,5.09448665e-16 424.078323,0 C415.753411,-5.09448665e-16 409.004737,6.74463433 409.004737,15.0645624 L409.004737,193.661406 L298.489506,193.661406 C302.22135,182.200067 304.120994,170.222192 304.118414,158.169297 C303.728763,94.1005327 251.649776,42.3681169 187.541448,42.3681169 C123.43312,42.3681169 71.3541339,94.1005327 70.9644824,158.169297 C70.9593351,172.189436 73.5300105,186.091367 78.5486499,199.183644 C31.8692611,214.172929 0.157985489,257.499165 0.00234315299,306.499283 L0.00234315299,418.248207 C-0.252558694,445.125639 20.3196405,467.630274 47.1266818,469.799139 C55.340954,470.350614 63.5667964,468.907856 71.1022981,465.593974 L71.1022981,555.043042 C46.9798095,561.733783 30.2591129,583.649408 30.1882771,608.66858 L30.1882771,630.559541 C30.1882771,638.879469 36.9369517,645.624103 45.2618638,645.624103 L330.996772,645.624103 C339.321685,645.624103 346.070359,638.879469 346.070359,630.559541 L346.070359,608.61693 C346.105675,593.82146 340.188166,579.632902 329.648763,569.242468 C322.857058,562.482236 314.436359,557.585826 305.199406,555.025825 L305.199406,294.301291 L409.009044,294.301291 L409.009044,615.494978 L399.051863,615.494978 C390.726951,615.494978 383.978276,622.239613 383.978276,630.559541 C383.978276,638.879469 390.726951,645.624103 399.051863,645.624103 L486.289169,645.624103 C494.614081,645.624103 501.362756,638.879469 501.362756,630.559541 C501.362756,622.239613 494.614081,615.494978 486.289169,615.494978 L439.156217,615.494978 L439.156217,293.070301 C461.747537,288.135883 478.064847,268.44751 478.709308,245.345768 C479.024216,232.013614 473.889038,219.128957 464.488456,209.664275 C457.550726,202.595328 448.775692,197.602978 439.15191,195.249641 L439.15191,168.189383 L584.926413,168.189383 C593.251325,168.189383 600,161.444749 600,153.124821 L600,39.4949785 C600,31.1750504 593.251325,24.4304161 584.926413,24.4304161 Z M187.539295,72.5423242 C234.76483,72.9503576 272.756381,111.470379 272.483991,158.66862 C272.211601,205.866862 233.77798,243.946347 186.550877,243.809929 C139.323774,243.67351 101.111047,205.372627 101.111656,158.173601 C101.372627,110.698293 140.035068,72.3920957 187.539295,72.5423242 Z M71.0979913,419.56528 C71.1151302,424.913516 68.977744,430.043585 65.1676116,433.799139 C60.9409196,438.024818 55.0772854,440.19308 49.1163952,439.734577 C38.1980257,438.527001 29.9853477,429.225493 30.1452097,418.248207 L30.1452097,402.064562 L71.0980936,402.064562 L71.0979913,419.56528 Z M388.285015,264.172166 L290.125819,264.172166 C281.800907,264.172166 275.052232,270.916801 275.052232,279.236729 L275.052232,552.998565 L263.979606,552.998565 C255.654694,552.998565 248.90602,559.7432 248.90602,568.063128 C248.90602,576.383056 255.654694,583.12769 263.979606,583.12769 L290.125819,583.12769 C296.974276,583.101767 303.551803,585.799339 308.407926,590.625538 C313.227398,595.373474 315.9354,601.857932 315.923186,608.621234 L315.923186,615.494978 L203.202905,615.494978 L203.202905,472.222382 C203.202905,463.902454 196.45423,457.157819 188.129318,457.157819 C179.804406,457.157819 173.055731,463.902454 173.055731,472.222382 L173.055731,615.494978 L60.3354504,615.494978 L60.3354504,608.66858 C60.4303,594.490485 71.9891049,583.063745 86.1758847,583.123386 L112.322097,583.123386 C120.647009,583.123386 127.395684,576.378752 127.395684,568.058824 C127.395684,559.738895 120.647009,552.994261 112.322097,552.994261 L101.249471,552.994261 L101.249471,308.556671 C101.249471,300.236743 94.5007967,293.492109 86.1758847,293.492109 C77.8509727,293.492109 71.1022981,300.236743 71.1022981,308.556671 L71.1022981,380.548063 L30.1495165,380.548063 L30.1495165,306.499283 C30.3283284,268.437571 56.4123238,235.385322 93.4068996,226.342898 C115.756667,256.708453 151.397127,274.426385 189.112219,273.920857 C226.827312,273.41533 261.979492,254.748505 283.506361,223.794835 L388.285015,223.794835 L388.285015,264.172166 Z M442.89016,230.685796 C446.591463,234.342628 448.642591,239.348488 448.570748,244.549498 C448.436527,249.70903 446.307989,254.616084 442.631755,258.241033 C438.783051,262.06688 433.567882,264.202812 428.139578,264.176471 L427.04136,264.176471 C425.085889,263.780309 423.070758,263.780309 421.115287,264.176471 L409.814404,264.176711 L409.814404,223.794835 L426.662367,223.794835 C432.77801,223.821061 438.626111,226.304396 442.89016,230.685796 Z M569.852827,138.060258 L439.15191,138.060258 L439.15191,54.5595409 L569.852827,54.5595409 L569.852827,138.060258 Z" id="Shape" fill="url(#linearGradient-2)"></path>
            <path d="M554.806313,615.494978 L533.285509,615.494978 C524.965581,615.494978 518.220947,622.239613 518.220947,630.559541 C518.220947,638.879469 524.965581,645.624103 533.285509,645.624103 L554.806313,645.624103 C563.126241,645.624103 569.870875,638.879469 569.870875,630.559541 C569.870875,622.239613 563.126241,615.494978 554.806313,615.494978 Z" id="Shape" fill="#000000"></path>
            <path d="M554.806313,615.494978 L533.285509,615.494978 C524.965581,615.494978 518.220947,622.239613 518.220947,630.559541 C518.220947,638.879469 524.965581,645.624103 533.285509,645.624103 L554.806313,645.624103 C563.126241,645.624103 569.870875,638.879469 569.870875,630.559541 C569.870875,622.239613 563.126241,615.494978 554.806313,615.494978 Z" id="Shape" fill="url(#linearGradient-3)"></path>
            <path d="M188.091822,231.563366 C206.63053,231.632051 224.437125,224.310014 237.594296,211.208047 C250.751466,198.10608 258.181426,180.297448 258.249641,161.69991 C258.249641,123.11474 226.838385,106.743185 188.091822,106.743185 C184.918057,106.743185 181.817301,106.889667 178.759492,107.118008 L176.968613,107.268798 C173.975224,107.540221 171.029076,107.884886 168.173117,108.371724 L168.147349,108.371724 C177.684283,116.827308 181.413166,130.09521 177.683577,142.302991 C173.953987,154.510771 163.454618,163.40418 150.832544,165.046948 C138.21047,166.689716 125.796444,160.778496 119.084976,149.929624 C118.732813,151.743419 118.453659,153.608915 118.256104,155.539035 C118.044209,157.585816 117.936702,159.642122 117.934003,161.69991 C118.002218,180.297448 125.432178,198.10608 138.589349,211.208047 C151.746519,224.310014 169.553115,231.632051 188.091822,231.563366 Z" id="Shape" fill="#000000"></path>
            <path d="M188.091822,231.563366 C206.63053,231.632051 224.437125,224.310014 237.594296,211.208047 C250.751466,198.10608 258.181426,180.297448 258.249641,161.69991 C258.249641,123.11474 226.838385,106.743185 188.091822,106.743185 C184.918057,106.743185 181.817301,106.889667 178.759492,107.118008 L176.968613,107.268798 C173.975224,107.540221 171.029076,107.884886 168.173117,108.371724 L168.147349,108.371724 C177.684283,116.827308 181.413166,130.09521 177.683577,142.302991 C173.953987,154.510771 163.454618,163.40418 150.832544,165.046948 C138.21047,166.689716 125.796444,160.778496 119.084976,149.929624 C118.732813,151.743419 118.453659,153.608915 118.256104,155.539035 C118.044209,157.585816 117.936702,159.642122 117.934003,161.69991 C118.002218,180.297448 125.432178,198.10608 138.589349,211.208047 C151.746519,224.310014 169.553115,231.632051 188.091822,231.563366 Z" id="Shape" fill="url(#linearGradient-4)"></path>
        </g>
    </g>
</svg>