<?xml version="1.0" encoding="UTF-8"?>
<svg width="602px" height="535px" viewBox="0 0 602 535" version="1.1" xmlns="http://www.w3.org/2000/svg" xmlns:xlink="http://www.w3.org/1999/xlink">
    <!-- Generator: Sketch 50.2 (55047) - http://www.bohemiancoding.com/sketch -->
    <title>Slice</title>
    <desc>Created with Sketch.</desc>
    <defs>
        <rect id="path-1" x="0" y="0" width="472" height="430" rx="4"></rect>
        <filter x="-1.7%" y="-0.9%" width="103.4%" height="103.7%" filterUnits="objectBoundingBox" id="filter-2">
            <feOffset dx="0" dy="4" in="SourceAlpha" result="shadowOffsetOuter1"></feOffset>
            <feGaussianBlur stdDeviation="2" in="shadowOffsetOuter1" result="shadowBlurOuter1"></feGaussianBlur>
            <feComposite in="shadowBlurOuter1" in2="SourceAlpha" operator="out" result="shadowBlurOuter1"></feComposite>
            <feColorMatrix values="0 0 0 0 0   0 0 0 0 0   0 0 0 0 0  0 0 0 0.04 0" type="matrix" in="shadowBlurOuter1"></feColorMatrix>
        </filter>
        <path d="M0,0 L384,0 L384,1 L0,1 L0,0 Z" id="path-3"></path>
        <mask id="mask-4" maskContentUnits="userSpaceOnUse" maskUnits="objectBoundingBox" x="0" y="0" width="384" height="1" fill="white">
            <use xlink:href="#path-3"></use>
        </mask>
        <path d="M0,0 L384,0 L384,1 L0,1 L0,0 Z" id="path-5"></path>
        <mask id="mask-6" maskContentUnits="userSpaceOnUse" maskUnits="objectBoundingBox" x="0" y="0" width="384" height="1" fill="white">
            <use xlink:href="#path-5"></use>
        </mask>
        <path d="M0,0 L384,0 L384,1 L0,1 L0,0 Z" id="path-7"></path>
        <mask id="mask-8" maskContentUnits="userSpaceOnUse" maskUnits="objectBoundingBox" x="0" y="0" width="384" height="1" fill="white">
            <use xlink:href="#path-7"></use>
        </mask>
        <path d="M0,0 L384,0 L384,1 L0,1 L0,0 Z" id="path-9"></path>
        <mask id="mask-10" maskContentUnits="userSpaceOnUse" maskUnits="objectBoundingBox" x="0" y="0" width="384" height="1" fill="white">
            <use xlink:href="#path-9"></use>
        </mask>
        <path d="M0,0 L384,0 L384,1 L0,1 L0,0 Z" id="path-11"></path>
        <mask id="mask-12" maskContentUnits="userSpaceOnUse" maskUnits="objectBoundingBox" x="0" y="0" width="384" height="1" fill="white">
            <use xlink:href="#path-11"></use>
        </mask>
        <path d="M0,0 L384,0 L384,1 L0,1 L0,0 Z" id="path-13"></path>
        <mask id="mask-14" maskContentUnits="userSpaceOnUse" maskUnits="objectBoundingBox" x="0" y="0" width="384" height="1" fill="white">
            <use xlink:href="#path-13"></use>
        </mask>
    </defs>
    <g id="Page-1" stroke="none" stroke-width="1" fill="none" fill-rule="evenodd">
        <g id="data-viz" transform="translate(54.000000, 35.000000)">
            <g id="2-Column-Bar">
                <g id="Container/Default">
                    <g id="Mask">
                        <use fill="black" fill-opacity="1" filter="url(#filter-2)" xlink:href="#path-1"></use>
                        <rect stroke="#D9D9D9" stroke-width="0.5" stroke-linejoin="square" fill="#FFFFFF" fill-rule="evenodd" x="0.25" y="0.25" width="471.5" height="429.5" rx="4"></rect>
                    </g>
                </g>
                <g id="Data-Visualization/UI/x-axis-line" transform="translate(64.000000, 277.000000)" stroke="#D9D9D9" stroke-dasharray="1,3" stroke-linecap="square">
                    <use id="Rectangle" mask="url(#mask-4)" xlink:href="#path-3"></use>
                </g>
                <g id="Data-Visualization/UI/x-axis-line" transform="translate(64.000000, 325.000000)" stroke="#D9D9D9" stroke-dasharray="1,3" stroke-linecap="square">
                    <use id="Rectangle" mask="url(#mask-6)" xlink:href="#path-5"></use>
                </g>
                <g id="Data-Visualization/UI/x-axis-line" transform="translate(64.000000, 375.000000)" stroke="#D9D9D9" stroke-dasharray="1,3" stroke-linecap="square">
                    <use id="Rectangle" mask="url(#mask-8)" xlink:href="#path-7"></use>
                </g>
                <g id="Data-Visualization/UI/x-axis-line" transform="translate(64.000000, 181.000000)" stroke="#D9D9D9" stroke-dasharray="1,3" stroke-linecap="square">
                    <use id="Rectangle" mask="url(#mask-10)" xlink:href="#path-9"></use>
                </g>
                <g id="Data-Visualization/UI/x-axis-line" transform="translate(64.000000, 133.000000)" stroke="#D9D9D9" stroke-dasharray="1,3" stroke-linecap="square">
                    <use id="Rectangle" mask="url(#mask-12)" xlink:href="#path-11"></use>
                </g>
                <g id="Data-Visualization/UI/x-axis-line" transform="translate(64.000000, 229.000000)" stroke="#D9D9D9" stroke-dasharray="1,3" stroke-linecap="square">
                    <use id="Rectangle" mask="url(#mask-14)" xlink:href="#path-13"></use>
                </g>
                <path d="M27.5546875,37.8046875 L27.5546875,36.6015625 L28.921875,36.6015625 C29.5625032,36.6015625 30.0872375,36.4140644 30.4960938,36.0390625 C30.90495,35.6640606 31.109375,35.1848988 31.109375,34.6015625 C31.109375,34.028643 30.9114603,33.566408 30.515625,33.2148438 C30.1197897,32.8632795 29.5963574,32.6875 28.9453125,32.6875 C28.2994759,32.6875 27.7747416,32.8580712 27.3710938,33.1992188 C26.9674459,33.5403663 26.7369795,34.0130178 26.6796875,34.6171875 L25.3125,34.6171875 C25.385417,33.6380159 25.7499967,32.8671903 26.40625,32.3046875 C27.0625033,31.7421847 27.927078,31.4609375 29,31.4609375 C29.9843799,31.4609375 30.8203091,31.747393 31.5078125,32.3203125 C32.1953159,32.893232 32.5390625,33.5911417 32.5390625,34.4140625 C32.5390625,35.0859409 32.3645851,35.6536435 32.015625,36.1171875 C31.6666649,36.5807315 31.1822948,36.8880201 30.5625,37.0390625 L30.5625,37.1640625 C31.3281288,37.2630213 31.9296853,37.5611954 32.3671875,38.0585938 C32.8046897,38.5559921 33.0234375,39.1901003 33.0234375,39.9609375 C33.0234375,40.8880255 32.6406288,41.6705697 31.875,42.3085938 C31.1093712,42.9466178 30.1692764,43.265625 29.0546875,43.265625 C27.9088484,43.265625 26.973962,42.9726592 26.25,42.3867188 C25.526038,41.8007783 25.1380211,41.0260465 25.0859375,40.0625 L26.4453125,40.0625 C26.5078128,40.6614613 26.7747372,41.1406232 27.2460938,41.5 C27.7174503,41.8593768 28.3151005,42.0390625 29.0390625,42.0390625 C29.7838579,42.0390625 30.3932268,41.8398457 30.8671875,41.4414062 C31.3411482,41.0429668 31.578125,40.5364614 31.578125,39.921875 C31.578125,39.2708301 31.3463565,38.7552102 30.8828125,38.375 C30.4192685,37.9947898 29.7864623,37.8046875 28.984375,37.8046875 L27.5546875,37.8046875 Z M40.046875,39.1015625 L34.921875,39.1015625 L34.921875,37.828125 L40.046875,37.828125 L40.046875,39.1015625 Z M46.921875,43.265625 C45.3906173,43.265625 44.1783899,42.7369845 43.2851562,41.6796875 C42.3919226,40.6223905 41.9453125,39.1849049 41.9453125,37.3671875 C41.9453125,35.5442617 42.3906205,34.104172 43.28125,33.046875 C44.1718795,31.989578 45.3828048,31.4609375 46.9140625,31.4609375 C48.1015684,31.4609375 49.1171833,31.7994758 49.9609375,32.4765625 C50.8046917,33.1536492 51.309895,34.0364529 51.4765625,35.125 L50.046875,35.125 C49.8593741,34.3958297 49.4843778,33.8190125 48.921875,33.3945312 C48.3593722,32.97005 47.690108,32.7578125 46.9140625,32.7578125 C45.8307238,32.7578125 44.9726594,33.1718709 44.3398438,34 C43.7070281,34.8281291 43.390625,35.9505137 43.390625,37.3671875 C43.390625,38.7786529 43.7083302,39.8984334 44.34375,40.7265625 C44.9791698,41.5546916 45.8385363,41.96875 46.921875,41.96875 C47.7083373,41.96875 48.3815076,41.7799498 48.9414062,41.4023438 C49.5013049,41.0247377 49.8697908,40.5104199 50.046875,39.859375 L51.4765625,39.859375 C51.2890616,40.8958385 50.7825562,41.7226532 49.9570312,42.3398438 C49.1315063,42.9570343 48.1197977,43.265625 46.921875,43.265625 Z M56.8125,43.1484375 C55.6145773,43.1484375 54.6679722,42.7591185 53.9726562,41.9804688 C53.2773403,41.201819 52.9296875,40.1380276 52.9296875,38.7890625 C52.9296875,37.4348891 53.2773403,36.3697955 53.9726562,35.59375 C54.6679722,34.8177045 55.6145773,34.4296875 56.8125,34.4296875 C58.0104227,34.4296875 58.9570278,34.8177045 59.6523438,35.59375 C60.3476597,36.3697955 60.6953125,37.4348891 60.6953125,38.7890625 C60.6953125,40.1380276 60.3476597,41.201819 59.6523438,41.9804688 C58.9570278,42.7591185 58.0104227,43.1484375 56.8125,43.1484375 Z M56.8125,41.9375 C57.609379,41.9375 58.2239562,41.6614611 58.65625,41.109375 C59.0885438,40.5572889 59.3046875,39.7838591 59.3046875,38.7890625 C59.3046875,37.7890575 59.0885438,37.0143257 58.65625,36.4648438 C58.2239562,35.9153618 57.609379,35.640625 56.8125,35.640625 C56.015621,35.640625 55.4010438,35.9153618 54.96875,36.4648438 C54.5364562,37.0143257 54.3203125,37.7890575 54.3203125,38.7890625 C54.3203125,39.7838591 54.5364562,40.5572889 54.96875,41.109375 C55.4010438,41.6614611 56.015621,41.9375 56.8125,41.9375 Z M62.5703125,43 L62.5703125,31.234375 L63.9140625,31.234375 L63.9140625,43 L62.5703125,43 Z M73.0234375,34.578125 L73.0234375,43 L71.7421875,43 L71.7421875,41.6796875 L71.6171875,41.6796875 C71.4088531,42.1484398 71.0833355,42.5104154 70.640625,42.765625 C70.1979145,43.0208346 69.6536491,43.1484375 69.0078125,43.1484375 C68.0650995,43.1484375 67.3502629,42.8776069 66.8632812,42.3359375 C66.3762996,41.7942681 66.1328125,41.0260466 66.1328125,40.03125 L66.1328125,34.578125 L67.4765625,34.578125 L67.4765625,39.703125 C67.4765625,40.4583371 67.6263006,41.0169253 67.9257812,41.3789062 C68.2252619,41.7408872 68.7109341,41.921875 69.3828125,41.921875 C70.1276079,41.921875 70.6966126,41.7135437 71.0898438,41.296875 C71.4830749,40.8802063 71.6796875,40.302087 71.6796875,39.5625 L71.6796875,34.578125 L73.0234375,34.578125 Z M75.2421875,43 L75.2421875,34.578125 L76.5234375,34.578125 L76.5234375,35.90625 L76.6484375,35.90625 C76.8411468,35.4374977 77.140623,35.07422 77.546875,34.8164062 C77.953127,34.5585925 78.4374972,34.4296875 79,34.4296875 C79.5729195,34.4296875 80.0559876,34.5664049 80.4492188,34.8398438 C80.8424499,35.1132826 81.1354157,35.4687478 81.328125,35.90625 L81.453125,35.90625 C81.6822928,35.4583311 82.0234352,35.1002618 82.4765625,34.8320312 C82.9296898,34.5638007 83.4479137,34.4296875 84.03125,34.4296875 C84.8906293,34.4296875 85.552081,34.6666643 86.015625,35.140625 C86.479169,35.6145857 86.7109375,36.2942664 86.7109375,37.1796875 L86.7109375,43 L85.3671875,43 L85.3671875,37.4921875 C85.3671875,36.8723927 85.2200536,36.4088557 84.9257812,36.1015625 C84.6315089,35.7942693 84.187503,35.640625 83.59375,35.640625 C83.0104137,35.640625 82.5390643,35.8307273 82.1796875,36.2109375 C81.8203107,36.5911477 81.640625,37.0494765 81.640625,37.5859375 L81.640625,43 L80.296875,43 L80.296875,37.28125 C80.296875,36.7812475 80.1367204,36.382814 79.8164062,36.0859375 C79.4960921,35.789061 79.0703152,35.640625 78.5390625,35.640625 C77.9869764,35.640625 77.5234394,35.8489563 77.1484375,36.265625 C76.7734356,36.6822937 76.5859375,37.187497 76.5859375,37.78125 L76.5859375,43 L75.2421875,43 Z M88.8515625,43 L88.8515625,34.578125 L90.1328125,34.578125 L90.1328125,35.90625 L90.2578125,35.90625 C90.4713552,35.442706 90.7851542,35.0807305 91.1992188,34.8203125 C91.6132833,34.5598945 92.1432259,34.4296875 92.7890625,34.4296875 C93.7369839,34.4296875 94.4648412,34.6992161 94.9726562,35.2382812 C95.4804713,35.7773464 95.734375,36.54687 95.734375,37.546875 L95.734375,43 L94.390625,43 L94.390625,37.875 C94.390625,37.1145795 94.2278662,36.5520852 93.9023438,36.1875 C93.5768213,35.8229148 93.0781284,35.640625 92.40625,35.640625 C91.7343716,35.640625 91.1979187,35.8515604 90.796875,36.2734375 C90.3958313,36.6953146 90.1953125,37.276038 90.1953125,38.015625 L90.1953125,43 L88.8515625,43 Z M106.789062,43.265625 C105.257805,43.265625 104.045577,42.7369845 103.152344,41.6796875 C102.25911,40.6223905 101.8125,39.1849049 101.8125,37.3671875 C101.8125,35.5442617 102.257808,34.104172 103.148438,33.046875 C104.039067,31.989578 105.249992,31.4609375 106.78125,31.4609375 C107.968756,31.4609375 108.984371,31.7994758 109.828125,32.4765625 C110.671879,33.1536492 111.177082,34.0364529 111.34375,35.125 L109.914062,35.125 C109.726562,34.3958297 109.351565,33.8190125 108.789062,33.3945312 C108.22656,32.97005 107.557296,32.7578125 106.78125,32.7578125 C105.697911,32.7578125 104.839847,33.1718709 104.207031,34 C103.574216,34.8281291 103.257812,35.9505137 103.257812,37.3671875 C103.257812,38.7786529 103.575518,39.8984334 104.210938,40.7265625 C104.846357,41.5546916 105.705724,41.96875 106.789062,41.96875 C107.575525,41.96875 108.248695,41.7799498 108.808594,41.4023438 C109.368492,41.0247377 109.736978,40.5104199 109.914062,39.859375 L111.34375,39.859375 C111.156249,40.8958385 110.649744,41.7226532 109.824219,42.3398438 C108.998694,42.9570343 107.986985,43.265625 106.789062,43.265625 Z M113.296875,43 L113.296875,31.234375 L114.640625,31.234375 L114.640625,35.90625 L114.765625,35.90625 C114.979168,35.442706 115.303383,35.0807305 115.738281,34.8203125 C116.173179,34.5598945 116.713538,34.4296875 117.359375,34.4296875 C118.250004,34.4296875 118.957029,34.7018202 119.480469,35.2460938 C120.003909,35.7903673 120.265625,36.5572867 120.265625,37.546875 L120.265625,43 L118.921875,43 L118.921875,37.875 C118.921875,37.1302046 118.756512,36.5716164 118.425781,36.1992188 C118.09505,35.8268211 117.611982,35.640625 116.976562,35.640625 C116.22135,35.640625 115.643231,35.8580707 115.242188,36.2929688 C114.841144,36.7278668 114.640625,37.3020798 114.640625,38.015625 L114.640625,43 L113.296875,43 Z M125,41.96875 C125.692712,41.96875 126.266925,41.7669291 126.722656,41.3632812 C127.178388,40.9596334 127.40625,40.4583363 127.40625,39.859375 L127.40625,39.0859375 L125.140625,39.234375 C123.911452,39.3177088 123.296875,39.7760375 123.296875,40.609375 C123.296875,41.0364605 123.458332,41.3697905 123.78125,41.609375 C124.104168,41.8489595 124.510414,41.96875 125,41.96875 Z M124.75,43.1484375 C123.932288,43.1484375 123.253909,42.9231793 122.714844,42.4726562 C122.175779,42.0221332 121.90625,41.4114622 121.90625,40.640625 C121.90625,39.0989506 122.929677,38.2682298 124.976562,38.1484375 L127.40625,38 L127.40625,37.234375 C127.40625,36.161453 126.77084,35.625 125.5,35.625 C124.994789,35.625 124.575523,35.7161449 124.242188,35.8984375 C123.908852,36.0807301 123.695313,36.33854 123.601562,36.671875 L122.242188,36.671875 C122.33073,35.9947883 122.679684,35.451825 123.289062,35.0429688 C123.898441,34.6341125 124.651037,34.4296875 125.546875,34.4296875 C126.572922,34.4296875 127.363278,34.6783829 127.917969,35.1757812 C128.472659,35.6731796 128.75,36.3593706 128.75,37.234375 L128.75,43 L127.46875,43 L127.46875,41.7578125 L127.34375,41.7578125 C127.072915,42.2057314 126.713544,42.549478 126.265625,42.7890625 C125.817706,43.028647 125.312503,43.1484375 124.75,43.1484375 Z M130.921875,43 L130.921875,34.578125 L132.203125,34.578125 L132.203125,35.828125 L132.328125,35.828125 C132.453126,35.4166646 132.734373,35.0807305 133.171875,34.8203125 C133.609377,34.5598945 134.106768,34.4296875 134.664062,34.4296875 C134.773438,34.4296875 134.891926,34.4335937 135.019531,34.4414062 C135.147136,34.4492188 135.252604,34.4583333 135.335938,34.46875 L135.335938,35.8125 C135.283854,35.7968749 135.161459,35.779948 134.96875,35.7617188 C134.776041,35.7434895 134.61198,35.734375 134.476562,35.734375 C133.835934,35.734375 133.307294,35.9270814 132.890625,36.3125 C132.473956,36.6979186 132.265625,37.187497 132.265625,37.78125 L132.265625,43 L130.921875,43 Z M137.265625,32.3984375 L138.609375,32.3984375 L138.609375,34.578125 L140.484375,34.578125 L140.484375,35.703125 L138.609375,35.703125 L138.609375,40.46875 C138.609375,40.9635441 138.708332,41.3229155 138.90625,41.546875 C139.104168,41.7708345 139.421873,41.8828125 139.859375,41.8828125 C139.979167,41.8828125 140.082031,41.8802084 140.167969,41.875 C140.253907,41.8697916 140.359374,41.8619792 140.484375,41.8515625 L140.484375,42.984375 C140.354166,43.0104168 140.223959,43.0299479 140.09375,43.0429688 C139.963541,43.0559896 139.83073,43.0625 139.695312,43.0625 C138.830725,43.0625 138.209637,42.8880226 137.832031,42.5390625 C137.454425,42.1901024 137.265625,41.6145873 137.265625,40.8125 L137.265625,35.703125 L135.90625,35.703125 L135.90625,34.578125 L137.265625,34.578125 L137.265625,32.3984375 Z M150.914062,43 L149.507812,43 L149.507812,32.9921875 L145.875,32.9921875 L145.875,31.7265625 L154.546875,31.7265625 L154.546875,32.9921875 L150.914062,32.9921875 L150.914062,43 Z M156.265625,43 L156.265625,34.578125 L157.609375,34.578125 L157.609375,43 L156.265625,43 Z M156.9375,32.8671875 C156.68229,32.8671875 156.462241,32.7747405 156.277344,32.5898438 C156.092447,32.404947 156,32.1848971 156,31.9296875 C156,31.6692695 156.092447,31.4479176 156.277344,31.265625 C156.462241,31.0833324 156.68229,30.9921875 156.9375,30.9921875 C157.197918,30.9921875 157.41927,31.0833324 157.601562,31.265625 C157.783855,31.4479176 157.875,31.6692695 157.875,31.9296875 C157.875,32.1848971 157.783855,32.404947 157.601562,32.5898438 C157.41927,32.7747405 157.197918,32.8671875 156.9375,32.8671875 Z M160.421875,32.3984375 L161.765625,32.3984375 L161.765625,34.578125 L163.640625,34.578125 L163.640625,35.703125 L161.765625,35.703125 L161.765625,40.46875 C161.765625,40.9635441 161.864582,41.3229155 162.0625,41.546875 C162.260418,41.7708345 162.578123,41.8828125 163.015625,41.8828125 C163.135417,41.8828125 163.238281,41.8802084 163.324219,41.875 C163.410157,41.8697916 163.515624,41.8619792 163.640625,41.8515625 L163.640625,42.984375 C163.510416,43.0104168 163.380209,43.0299479 163.25,43.0429688 C163.119791,43.0559896 162.98698,43.0625 162.851562,43.0625 C161.986975,43.0625 161.365887,42.8880226 160.988281,42.5390625 C160.610675,42.1901024 160.421875,41.6145873 160.421875,40.8125 L160.421875,35.703125 L159.0625,35.703125 L159.0625,34.578125 L160.421875,34.578125 L160.421875,32.3984375 Z M165.4375,43 L165.4375,31.234375 L166.78125,31.234375 L166.78125,43 L165.4375,43 Z M172.4375,35.6171875 C171.765622,35.6171875 171.213544,35.8437477 170.78125,36.296875 C170.348956,36.7500023 170.106771,37.3489546 170.054688,38.09375 L174.695312,38.09375 C174.679687,37.3489546 174.466148,36.7500023 174.054688,36.296875 C173.643227,35.8437477 173.10417,35.6171875 172.4375,35.6171875 Z M174.65625,40.8203125 C174.65625,40.8203125 174.723958,40.8203125 174.859375,40.8203125 C174.994792,40.8203125 175.151041,40.8203125 175.328125,40.8203125 C175.505209,40.8203125 175.661458,40.8203125 175.796875,40.8203125 C175.932292,40.8203125 176,40.8203125 176,40.8203125 C175.796874,41.5442745 175.38542,42.1132792 174.765625,42.5273438 C174.14583,42.9414083 173.375005,43.1484375 172.453125,43.1484375 C171.286452,43.1484375 170.361983,42.7565143 169.679688,41.9726562 C168.997392,41.1887982 168.65625,40.130215 168.65625,38.796875 C168.65625,37.4739517 168.999997,36.4153686 169.6875,35.6210938 C170.375003,34.8268189 171.296869,34.4296875 172.453125,34.4296875 C173.588547,34.4296875 174.481768,34.80859 175.132812,35.5664062 C175.783857,36.3242225 176.109375,37.3567643 176.109375,38.6640625 L176.109375,39.1796875 L170.054688,39.1796875 L170.054688,39.2421875 C170.091146,40.075525 170.326821,40.7369767 170.761719,41.2265625 C171.196617,41.7161483 171.77083,41.9609375 172.484375,41.9609375 C173.026044,41.9609375 173.479165,41.8632822 173.84375,41.6679688 C174.208335,41.4726553 174.479166,41.190106 174.65625,40.8203125 Z" id="3-Column-Chart-Title" fill="#000000"></path>
                <path d="M29.348,65.168 C26.59,65.168 24.714,63.096 24.714,60.338 C24.714,57.58 26.59,55.508 29.348,55.508 C32.106,55.508 33.996,57.58 33.996,60.338 C33.996,63.096 32.106,65.168 29.348,65.168 Z M29.348,64.132 C31.434,64.132 32.792,62.508 32.792,60.338 C32.792,58.154 31.434,56.544 29.348,56.544 C27.248,56.544 25.918,58.154 25.918,60.338 C25.918,62.508 27.248,64.132 29.348,64.132 Z M39.092,65.168 C38.168,65.168 37.37,64.72 36.81,63.978 L36.81,67.576 L35.76,67.576 L35.76,58.238 L36.81,58.238 L36.81,59.246 C37.3,58.56 38.14,58.07 39.092,58.07 C40.87,58.07 42.102,59.414 42.102,61.612 C42.102,63.796 40.87,65.168 39.092,65.168 Z M38.826,64.23 C40.184,64.23 40.996,63.11 40.996,61.612 C40.996,60.114 40.184,59.008 38.826,59.008 C38,59.008 37.174,59.498 36.81,60.086 L36.81,63.138 C37.174,63.726 38,64.23 38.826,64.23 Z M45.49,65.168 C44.482,65.168 43.978,64.594 43.978,63.586 L43.978,59.162 L42.858,59.162 L42.858,58.238 L43.978,58.238 L43.978,56.39 L45.042,56.39 L45.042,58.238 L46.414,58.238 L46.414,59.162 L45.042,59.162 L45.042,63.362 C45.042,63.866 45.266,64.23 45.714,64.23 C46.022,64.23 46.288,64.09 46.428,63.936 L46.736,64.734 C46.47,64.986 46.092,65.168 45.49,65.168 Z M48.416,57.272 C48.024,57.272 47.702,56.964 47.702,56.572 C47.702,56.18 48.024,55.858 48.416,55.858 C48.808,55.858 49.116,56.18 49.116,56.572 C49.116,56.964 48.808,57.272 48.416,57.272 Z M48.934,65 L47.884,65 L47.884,58.238 L48.934,58.238 L48.934,65 Z M53.988,65.168 C51.93,65.168 50.642,63.572 50.642,61.612 C50.642,59.652 51.93,58.07 53.988,58.07 C56.046,58.07 57.334,59.652 57.334,61.612 C57.334,63.572 56.046,65.168 53.988,65.168 Z M53.988,64.23 C55.43,64.23 56.228,62.998 56.228,61.612 C56.228,60.24 55.43,59.008 53.988,59.008 C52.546,59.008 51.748,60.24 51.748,61.612 C51.748,62.998 52.546,64.23 53.988,64.23 Z M64.656,65 L63.62,65 L63.62,60.576 C63.62,59.372 63.004,59.008 62.094,59.008 C61.268,59.008 60.498,59.512 60.092,60.058 L60.092,65 L59.042,65 L59.042,58.238 L60.092,58.238 L60.092,59.218 C60.568,58.644 61.492,58.07 62.514,58.07 C63.914,58.07 64.656,58.784 64.656,60.254 L64.656,65 Z M72.048,65 L70.998,65 L70.998,64.23 C70.452,64.846 69.668,65.168 68.758,65.168 C67.624,65.168 66.406,64.398 66.406,62.928 C66.406,61.402 67.61,60.702 68.758,60.702 C69.682,60.702 70.452,60.996 70.998,61.612 L70.998,60.394 C70.998,59.498 70.27,58.98 69.29,58.98 C68.478,58.98 67.82,59.26 67.218,59.918 L66.728,59.19 C67.456,58.434 68.324,58.07 69.43,58.07 C70.872,58.07 72.048,58.714 72.048,60.352 L72.048,65 Z M69.15,64.412 C69.878,64.412 70.592,64.132 70.998,63.572 L70.998,62.284 C70.592,61.738 69.878,61.458 69.15,61.458 C68.156,61.458 67.47,62.074 67.47,62.928 C67.47,63.796 68.156,64.412 69.15,64.412 Z M75.212,65 L74.162,65 L74.162,55.662 L75.212,55.662 L75.212,65 Z M84.004,65.168 C82.394,65.168 81.19,64.552 80.42,63.684 L81.12,62.788 C81.722,63.488 82.73,64.132 84.046,64.132 C85.712,64.132 86.244,63.236 86.244,62.508 C86.244,60.1 80.714,61.444 80.714,58.112 C80.714,56.572 82.086,55.508 83.934,55.508 C85.348,55.508 86.454,55.998 87.238,56.824 L86.538,57.678 C85.838,56.894 84.858,56.558 83.836,56.558 C82.73,56.558 81.918,57.16 81.918,58.042 C81.918,60.142 87.448,58.938 87.448,62.424 C87.448,63.768 86.524,65.168 84.004,65.168 Z M94.756,65 L93.706,65 L93.706,64.048 C93.188,64.636 92.306,65.168 91.298,65.168 C89.884,65.168 89.142,64.468 89.142,63.012 L89.142,58.238 L90.192,58.238 L90.192,62.69 C90.192,63.88 90.794,64.23 91.718,64.23 C92.53,64.23 93.314,63.754 93.706,63.208 L93.706,58.238 L94.756,58.238 L94.756,65 Z M97.906,63.166 C98.27,63.754 99.096,64.23 99.936,64.23 C101.294,64.23 102.106,63.124 102.106,61.626 C102.106,60.128 101.294,59.008 99.936,59.008 C99.096,59.008 98.27,59.512 97.906,60.1 L97.906,63.166 Z M97.906,65 L96.856,65 L96.856,55.662 L97.906,55.662 L97.906,59.26 C98.452,58.518 99.278,58.07 100.188,58.07 C101.966,58.07 103.198,59.456 103.198,61.626 C103.198,63.824 101.952,65.168 100.188,65.168 C99.236,65.168 98.41,64.678 97.906,63.992 L97.906,65 Z M116.358,65 L115.196,65 L115.196,60.716 L109.736,60.716 L109.736,65 L108.574,65 L108.574,55.662 L109.736,55.662 L109.736,59.68 L115.196,59.68 L115.196,55.662 L116.358,55.662 L116.358,65 Z M121.566,65.168 C119.55,65.168 118.108,63.726 118.108,61.612 C118.108,59.652 119.508,58.07 121.44,58.07 C123.484,58.07 124.688,59.666 124.688,61.696 L124.688,61.962 L119.228,61.962 C119.312,63.236 120.194,64.3 121.65,64.3 C122.434,64.3 123.204,63.992 123.75,63.432 L124.254,64.118 C123.568,64.79 122.658,65.168 121.566,65.168 Z M123.652,61.178 C123.638,60.184 122.966,58.938 121.426,58.938 C119.984,58.938 119.27,60.156 119.214,61.178 L123.652,61.178 Z M131.66,65 L130.61,65 L130.61,64.23 C130.064,64.846 129.28,65.168 128.37,65.168 C127.236,65.168 126.018,64.398 126.018,62.928 C126.018,61.402 127.222,60.702 128.37,60.702 C129.294,60.702 130.064,60.996 130.61,61.612 L130.61,60.394 C130.61,59.498 129.882,58.98 128.902,58.98 C128.09,58.98 127.432,59.26 126.83,59.918 L126.34,59.19 C127.068,58.434 127.936,58.07 129.042,58.07 C130.484,58.07 131.66,58.714 131.66,60.352 L131.66,65 Z M128.762,64.412 C129.49,64.412 130.204,64.132 130.61,63.572 L130.61,62.284 C130.204,61.738 129.49,61.458 128.762,61.458 C127.768,61.458 127.082,62.074 127.082,62.928 C127.082,63.796 127.768,64.412 128.762,64.412 Z M139.724,65 L138.674,65 L138.674,63.992 C138.17,64.678 137.344,65.168 136.392,65.168 C134.628,65.168 133.382,63.824 133.382,61.626 C133.382,59.456 134.628,58.07 136.392,58.07 C137.302,58.07 138.128,58.518 138.674,59.26 L138.674,55.662 L139.724,55.662 L139.724,65 Z M136.658,64.23 C137.484,64.23 138.31,63.74 138.674,63.152 L138.674,60.1 C138.31,59.512 137.484,59.008 136.658,59.008 C135.286,59.008 134.474,60.128 134.474,61.626 C134.474,63.124 135.286,64.23 136.658,64.23 Z M144.89,65.168 C142.874,65.168 141.432,63.726 141.432,61.612 C141.432,59.652 142.832,58.07 144.764,58.07 C146.808,58.07 148.012,59.666 148.012,61.696 L148.012,61.962 L142.552,61.962 C142.636,63.236 143.518,64.3 144.974,64.3 C145.758,64.3 146.528,63.992 147.074,63.432 L147.578,64.118 C146.892,64.79 145.982,65.168 144.89,65.168 Z M146.976,61.178 C146.962,60.184 146.29,58.938 144.75,58.938 C143.308,58.938 142.594,60.156 142.538,61.178 L146.976,61.178 Z M150.756,65 L149.706,65 L149.706,58.238 L150.756,58.238 L150.756,59.316 C151.302,58.616 152.086,58.084 153.01,58.084 L153.01,59.162 C152.884,59.148 152.758,59.134 152.604,59.134 C151.946,59.134 151.064,59.666 150.756,60.212 L150.756,65 Z M161.466,65 L160.304,65 L160.304,56.698 L157.35,56.698 L157.35,55.662 L164.434,55.662 L164.434,56.698 L161.466,56.698 L161.466,65 Z M166.464,57.272 C166.072,57.272 165.75,56.964 165.75,56.572 C165.75,56.18 166.072,55.858 166.464,55.858 C166.856,55.858 167.164,56.18 167.164,56.572 C167.164,56.964 166.856,57.272 166.464,57.272 Z M166.982,65 L165.932,65 L165.932,58.238 L166.982,58.238 L166.982,65 Z M170.804,65.168 C169.796,65.168 169.292,64.594 169.292,63.586 L169.292,59.162 L168.172,59.162 L168.172,58.238 L169.292,58.238 L169.292,56.39 L170.356,56.39 L170.356,58.238 L171.728,58.238 L171.728,59.162 L170.356,59.162 L170.356,63.362 C170.356,63.866 170.58,64.23 171.028,64.23 C171.336,64.23 171.602,64.09 171.742,63.936 L172.05,64.734 C171.784,64.986 171.406,65.168 170.804,65.168 Z M174.248,65 L173.198,65 L173.198,55.662 L174.248,55.662 L174.248,65 Z M179.414,65.168 C177.398,65.168 175.956,63.726 175.956,61.612 C175.956,59.652 177.356,58.07 179.288,58.07 C181.332,58.07 182.536,59.666 182.536,61.696 L182.536,61.962 L177.076,61.962 C177.16,63.236 178.042,64.3 179.498,64.3 C180.282,64.3 181.052,63.992 181.598,63.432 L182.102,64.118 C181.416,64.79 180.506,65.168 179.414,65.168 Z M181.5,61.178 C181.486,60.184 180.814,58.938 179.274,58.938 C177.832,58.938 177.118,60.156 177.062,61.178 L181.5,61.178 Z" id="Optional-Sub-Header" fill="#595959"></path>
                <path d="M55.168,95 L48.756,95 L48.756,94.062 C52.116,91.43 53.95,89.876 53.95,88.266 C53.95,87.062 52.956,86.558 51.99,86.558 C50.87,86.558 50.002,87.034 49.456,87.734 L48.742,86.992 C49.456,86.04 50.674,85.522 51.99,85.522 C53.544,85.522 55.126,86.404 55.126,88.266 C55.126,90.17 53.194,91.906 50.59,93.964 L55.168,93.964 L55.168,95 Z M60.516,95.168 C57.954,95.168 56.946,92.606 56.946,90.338 C56.946,88.056 57.954,85.522 60.516,85.522 C63.064,85.522 64.086,88.056 64.086,90.338 C64.086,92.606 63.064,95.168 60.516,95.168 Z M60.516,94.132 C62.294,94.132 62.896,92.2 62.896,90.338 C62.896,88.476 62.294,86.558 60.516,86.558 C58.738,86.558 58.136,88.476 58.136,90.338 C58.136,92.2 58.738,94.132 60.516,94.132 Z M68.454,95 L67.292,95 L67.292,87.188 L65.794,88.784 L65.094,88.07 L67.432,85.662 L68.454,85.662 L68.454,95 Z M73.872,95.168 C71.254,95.168 70.26,92.886 70.26,90.338 C70.26,87.818 71.436,85.522 74.068,85.522 C75.258,85.522 76.07,85.97 76.644,86.642 L76.056,87.51 C75.58,86.95 75.034,86.558 74.068,86.558 C72.248,86.558 71.436,88.392 71.436,90.226 L71.436,90.59 C71.842,89.946 72.878,89.134 74.082,89.134 C75.762,89.134 77.134,90.128 77.134,92.116 C77.134,93.726 75.902,95.168 73.872,95.168 Z M73.816,94.132 C75.258,94.132 75.958,93.04 75.958,92.158 C75.958,90.786 75.006,90.142 73.816,90.142 C72.878,90.142 71.982,90.716 71.478,91.528 C71.576,92.69 72.192,94.132 73.816,94.132 Z" id="2016" fill="#444444"></path>
                <path d="M133.168,95 L126.756,95 L126.756,94.062 C130.116,91.43 131.95,89.876 131.95,88.266 C131.95,87.062 130.956,86.558 129.99,86.558 C128.87,86.558 128.002,87.034 127.456,87.734 L126.742,86.992 C127.456,86.04 128.674,85.522 129.99,85.522 C131.544,85.522 133.126,86.404 133.126,88.266 C133.126,90.17 131.194,91.906 128.59,93.964 L133.168,93.964 L133.168,95 Z M138.516,95.168 C135.954,95.168 134.946,92.606 134.946,90.338 C134.946,88.056 135.954,85.522 138.516,85.522 C141.064,85.522 142.086,88.056 142.086,90.338 C142.086,92.606 141.064,95.168 138.516,95.168 Z M138.516,94.132 C140.294,94.132 140.896,92.2 140.896,90.338 C140.896,88.476 140.294,86.558 138.516,86.558 C136.738,86.558 136.136,88.476 136.136,90.338 C136.136,92.2 136.738,94.132 138.516,94.132 Z M146.454,95 L145.292,95 L145.292,87.188 L143.794,88.784 L143.094,88.07 L145.432,85.662 L146.454,85.662 L146.454,95 Z M150.528,95 L149.24,95 L153.006,86.698 L147.98,86.698 L147.98,85.662 L154.35,85.662 L154.35,86.46 L150.528,95 Z" id="2017" fill="#444444"></path>
                <path d="M210.168,95 L203.756,95 L203.756,94.062 C207.116,91.43 208.95,89.876 208.95,88.266 C208.95,87.062 207.956,86.558 206.99,86.558 C205.87,86.558 205.002,87.034 204.456,87.734 L203.742,86.992 C204.456,86.04 205.674,85.522 206.99,85.522 C208.544,85.522 210.126,86.404 210.126,88.266 C210.126,90.17 208.194,91.906 205.59,93.964 L210.168,93.964 L210.168,95 Z M215.516,95.168 C212.954,95.168 211.946,92.606 211.946,90.338 C211.946,88.056 212.954,85.522 215.516,85.522 C218.064,85.522 219.086,88.056 219.086,90.338 C219.086,92.606 218.064,95.168 215.516,95.168 Z M215.516,94.132 C217.294,94.132 217.896,92.2 217.896,90.338 C217.896,88.476 217.294,86.558 215.516,86.558 C213.738,86.558 213.136,88.476 213.136,90.338 C213.136,92.2 213.738,94.132 215.516,94.132 Z M223.454,95 L222.292,95 L222.292,87.188 L220.794,88.784 L220.094,88.07 L222.432,85.662 L223.454,85.662 L223.454,95 Z M228.62,95.168 C226.772,95.168 225.274,94.23 225.274,92.634 C225.274,91.388 226.338,90.534 227.5,90.184 C226.422,89.876 225.428,89.162 225.428,87.944 C225.428,86.264 227.066,85.522 228.62,85.522 C230.16,85.522 231.826,86.264 231.826,87.944 C231.826,89.162 230.818,89.876 229.74,90.184 C230.902,90.534 231.966,91.388 231.966,92.634 C231.966,94.216 230.454,95.168 228.62,95.168 Z M228.62,89.708 C229.194,89.61 230.65,89.232 230.65,88.098 C230.65,87.132 229.74,86.558 228.62,86.558 C227.486,86.558 226.604,87.132 226.604,88.098 C226.604,89.232 228.06,89.61 228.62,89.708 Z M228.62,94.132 C229.768,94.132 230.79,93.516 230.79,92.508 C230.79,91.29 229.194,90.772 228.62,90.702 C228.046,90.772 226.45,91.29 226.45,92.508 C226.45,93.516 227.458,94.132 228.62,94.132 Z" id="2018" fill="#444444"></path>
                <rect id="Rectangle" fill="#FF9300" x="179" y="83" width="16" height="16" rx="2"></rect>
                <rect id="Rectangle" fill="#7100D5" x="102" y="83" width="16" height="16" rx="2"></rect>
                <rect id="Rectangle" fill="#299FFD" x="24" y="83" width="16" height="16" rx="2"></rect>
                <path d="M36.19,138.168 C34.622,138.168 33.6,137.594 32.9,136.67 L33.614,135.886 C34.23,136.684 35.056,137.132 36.19,137.132 C37.464,137.132 38.346,136.264 38.346,135.13 C38.346,133.898 37.464,133.114 36.204,133.114 C35.392,133.114 34.678,133.38 34.048,133.982 L33.194,133.688 L33.194,128.662 L38.906,128.662 L38.906,129.698 L34.356,129.698 L34.356,132.946 C34.818,132.498 35.602,132.106 36.54,132.106 C38.108,132.106 39.522,133.156 39.522,135.088 C39.522,136.978 38.066,138.168 36.19,138.168 Z M44.52,138.168 C41.958,138.168 40.95,135.606 40.95,133.338 C40.95,131.056 41.958,128.522 44.52,128.522 C47.068,128.522 48.09,131.056 48.09,133.338 C48.09,135.606 47.068,138.168 44.52,138.168 Z M44.52,137.132 C46.298,137.132 46.9,135.2 46.9,133.338 C46.9,131.476 46.298,129.558 44.52,129.558 C42.742,129.558 42.14,131.476 42.14,133.338 C42.14,135.2 42.742,137.132 44.52,137.132 Z M55.804,138 L54.46,138 L52.038,134.962 L50.904,136.068 L50.904,138 L49.854,138 L49.854,128.662 L50.904,128.662 L50.904,134.836 L54.46,131.238 L55.79,131.238 L52.794,134.304 L55.804,138 Z M38.472,186 L37.31,186 L37.31,183.634 L32.872,183.634 L32.872,182.668 L36.876,176.662 L38.472,176.662 L38.472,182.612 L39.788,182.612 L39.788,183.634 L38.472,183.634 L38.472,186 Z M37.31,182.612 L37.31,177.74 L34.034,182.612 L37.31,182.612 Z M44.52,186.168 C41.958,186.168 40.95,183.606 40.95,181.338 C40.95,179.056 41.958,176.522 44.52,176.522 C47.068,176.522 48.09,179.056 48.09,181.338 C48.09,183.606 47.068,186.168 44.52,186.168 Z M44.52,185.132 C46.298,185.132 46.9,183.2 46.9,181.338 C46.9,179.476 46.298,177.558 44.52,177.558 C42.742,177.558 42.14,179.476 42.14,181.338 C42.14,183.2 42.742,185.132 44.52,185.132 Z M55.804,186 L54.46,186 L52.038,182.962 L50.904,184.068 L50.904,186 L49.854,186 L49.854,176.662 L50.904,176.662 L50.904,182.836 L54.46,179.238 L55.79,179.238 L52.794,182.304 L55.804,186 Z M36.162,234.168 C34.58,234.168 33.418,233.468 32.844,232.628 L33.53,231.9 C34.076,232.628 35.028,233.132 36.134,233.132 C37.492,233.132 38.318,232.446 38.318,231.382 C38.318,230.22 37.366,229.73 35.994,229.73 C35.602,229.73 35.168,229.73 35.028,229.744 L35.028,228.68 C35.182,228.694 35.616,228.694 35.994,228.694 C37.17,228.694 38.164,228.232 38.164,227.154 C38.164,226.118 37.212,225.558 36.078,225.558 C35.056,225.558 34.3,225.95 33.614,226.692 L32.97,225.964 C33.642,225.138 34.72,224.522 36.176,224.522 C37.968,224.522 39.326,225.432 39.326,227 C39.326,228.358 38.192,229.03 37.324,229.17 C38.164,229.254 39.48,229.968 39.48,231.48 C39.48,233.034 38.22,234.168 36.162,234.168 Z M44.52,234.168 C41.958,234.168 40.95,231.606 40.95,229.338 C40.95,227.056 41.958,224.522 44.52,224.522 C47.068,224.522 48.09,227.056 48.09,229.338 C48.09,231.606 47.068,234.168 44.52,234.168 Z M44.52,233.132 C46.298,233.132 46.9,231.2 46.9,229.338 C46.9,227.476 46.298,225.558 44.52,225.558 C42.742,225.558 42.14,227.476 42.14,229.338 C42.14,231.2 42.742,233.132 44.52,233.132 Z M55.804,234 L54.46,234 L52.038,230.962 L50.904,232.068 L50.904,234 L49.854,234 L49.854,224.662 L50.904,224.662 L50.904,230.836 L54.46,227.238 L55.79,227.238 L52.794,230.304 L55.804,234 Z M39.172,282 L32.76,282 L32.76,281.062 C36.12,278.43 37.954,276.876 37.954,275.266 C37.954,274.062 36.96,273.558 35.994,273.558 C34.874,273.558 34.006,274.034 33.46,274.734 L32.746,273.992 C33.46,273.04 34.678,272.522 35.994,272.522 C37.548,272.522 39.13,273.404 39.13,275.266 C39.13,277.17 37.198,278.906 34.594,280.964 L39.172,280.964 L39.172,282 Z M44.52,282.168 C41.958,282.168 40.95,279.606 40.95,277.338 C40.95,275.056 41.958,272.522 44.52,272.522 C47.068,272.522 48.09,275.056 48.09,277.338 C48.09,279.606 47.068,282.168 44.52,282.168 Z M44.52,281.132 C46.298,281.132 46.9,279.2 46.9,277.338 C46.9,275.476 46.298,273.558 44.52,273.558 C42.742,273.558 42.14,275.476 42.14,277.338 C42.14,279.2 42.742,281.132 44.52,281.132 Z M55.804,282 L54.46,282 L52.038,278.962 L50.904,280.068 L50.904,282 L49.854,282 L49.854,272.662 L50.904,272.662 L50.904,278.836 L54.46,275.238 L55.79,275.238 L52.794,278.304 L55.804,282 Z M39.144,330 L37.982,330 L37.982,322.188 L36.484,323.784 L35.784,323.07 L38.122,320.662 L39.144,320.662 L39.144,330 Z M44.52,330.168 C41.958,330.168 40.95,327.606 40.95,325.338 C40.95,323.056 41.958,320.522 44.52,320.522 C47.068,320.522 48.09,323.056 48.09,325.338 C48.09,327.606 47.068,330.168 44.52,330.168 Z M44.52,329.132 C46.298,329.132 46.9,327.2 46.9,325.338 C46.9,323.476 46.298,321.558 44.52,321.558 C42.742,321.558 42.14,323.476 42.14,325.338 C42.14,327.2 42.742,329.132 44.52,329.132 Z M55.804,330 L54.46,330 L52.038,326.962 L50.904,328.068 L50.904,330 L49.854,330 L49.854,320.662 L50.904,320.662 L50.904,326.836 L54.46,323.238 L55.79,323.238 L52.794,326.304 L55.804,330 Z M51.716,378.168 C49.154,378.168 48.146,375.606 48.146,373.338 C48.146,371.056 49.154,368.522 51.716,368.522 C54.264,368.522 55.286,371.056 55.286,373.338 C55.286,375.606 54.264,378.168 51.716,378.168 Z M51.716,377.132 C53.494,377.132 54.096,375.2 54.096,373.338 C54.096,371.476 53.494,369.558 51.716,369.558 C49.938,369.558 49.336,371.476 49.336,373.338 C49.336,375.2 49.938,377.132 51.716,377.132 Z" id="50k-40k-30k-20k-10k" fill="#999999"></path>
                <path d="M79.355,399.168 C76.835,399.168 75.547,397.67 75.547,395.374 L75.547,389.662 L76.723,389.662 L76.723,395.346 C76.723,397.054 77.633,398.132 79.355,398.132 C81.077,398.132 82.001,397.054 82.001,395.346 L82.001,389.662 L83.177,389.662 L83.177,395.36 C83.177,397.684 81.889,399.168 79.355,399.168 Z M88.385,399.168 C86.775,399.168 85.571,398.552 84.801,397.684 L85.501,396.788 C86.103,397.488 87.111,398.132 88.427,398.132 C90.093,398.132 90.625,397.236 90.625,396.508 C90.625,394.1 85.095,395.444 85.095,392.112 C85.095,390.572 86.467,389.508 88.315,389.508 C89.729,389.508 90.835,389.998 91.619,390.824 L90.919,391.678 C90.219,390.894 89.239,390.558 88.217,390.558 C87.111,390.558 86.299,391.16 86.299,392.042 C86.299,394.142 91.829,392.938 91.829,396.424 C91.829,397.768 90.905,399.168 88.385,399.168 Z M101.419,399 L100.089,399 L99.263,396.914 L94.615,396.914 L93.789,399 L92.459,399 L96.225,389.662 L97.667,389.662 L101.419,399 Z M98.927,395.892 L96.939,390.852 L94.965,395.892 L98.927,395.892 Z" id="USA" fill="#999999"></path>
                <path d="M152.807,399.168 C150.119,399.168 148.005,397.208 148.005,394.338 C148.005,391.468 150.119,389.508 152.807,389.508 C154.459,389.508 155.607,390.292 156.349,391.356 L155.383,391.902 C154.851,391.104 153.871,390.544 152.807,390.544 C150.763,390.544 149.209,392.098 149.209,394.338 C149.209,396.55 150.763,398.132 152.807,398.132 C153.871,398.132 154.851,397.558 155.383,396.774 L156.363,397.306 C155.579,398.384 154.459,399.168 152.807,399.168 Z M163.083,399 L162.033,399 L162.033,398.23 C161.487,398.846 160.703,399.168 159.793,399.168 C158.659,399.168 157.441,398.398 157.441,396.928 C157.441,395.402 158.645,394.702 159.793,394.702 C160.717,394.702 161.487,394.996 162.033,395.612 L162.033,394.394 C162.033,393.498 161.305,392.98 160.325,392.98 C159.513,392.98 158.855,393.26 158.253,393.918 L157.763,393.19 C158.491,392.434 159.359,392.07 160.465,392.07 C161.907,392.07 163.083,392.714 163.083,394.352 L163.083,399 Z M160.185,398.412 C160.913,398.412 161.627,398.132 162.033,397.572 L162.033,396.284 C161.627,395.738 160.913,395.458 160.185,395.458 C159.191,395.458 158.505,396.074 158.505,396.928 C158.505,397.796 159.191,398.412 160.185,398.412 Z M170.811,399 L169.775,399 L169.775,394.576 C169.775,393.372 169.159,393.008 168.249,393.008 C167.423,393.008 166.653,393.512 166.247,394.058 L166.247,399 L165.197,399 L165.197,392.238 L166.247,392.238 L166.247,393.218 C166.723,392.644 167.647,392.07 168.669,392.07 C170.069,392.07 170.811,392.784 170.811,394.254 L170.811,399 Z M178.203,399 L177.153,399 L177.153,398.23 C176.607,398.846 175.823,399.168 174.913,399.168 C173.779,399.168 172.561,398.398 172.561,396.928 C172.561,395.402 173.765,394.702 174.913,394.702 C175.837,394.702 176.607,394.996 177.153,395.612 L177.153,394.394 C177.153,393.498 176.425,392.98 175.445,392.98 C174.633,392.98 173.975,393.26 173.373,393.918 L172.883,393.19 C173.611,392.434 174.479,392.07 175.585,392.07 C177.027,392.07 178.203,392.714 178.203,394.352 L178.203,399 Z M175.305,398.412 C176.033,398.412 176.747,398.132 177.153,397.572 L177.153,396.284 C176.747,395.738 176.033,395.458 175.305,395.458 C174.311,395.458 173.625,396.074 173.625,396.928 C173.625,397.796 174.311,398.412 175.305,398.412 Z M186.267,399 L185.217,399 L185.217,397.992 C184.713,398.678 183.887,399.168 182.935,399.168 C181.171,399.168 179.925,397.824 179.925,395.626 C179.925,393.456 181.171,392.07 182.935,392.07 C183.845,392.07 184.671,392.518 185.217,393.26 L185.217,389.662 L186.267,389.662 L186.267,399 Z M183.201,398.23 C184.027,398.23 184.853,397.74 185.217,397.152 L185.217,394.1 C184.853,393.512 184.027,393.008 183.201,393.008 C181.829,393.008 181.017,394.128 181.017,395.626 C181.017,397.124 181.829,398.23 183.201,398.23 Z M193.645,399 L192.595,399 L192.595,398.23 C192.049,398.846 191.265,399.168 190.355,399.168 C189.221,399.168 188.003,398.398 188.003,396.928 C188.003,395.402 189.207,394.702 190.355,394.702 C191.279,394.702 192.049,394.996 192.595,395.612 L192.595,394.394 C192.595,393.498 191.867,392.98 190.887,392.98 C190.075,392.98 189.417,393.26 188.815,393.918 L188.325,393.19 C189.053,392.434 189.921,392.07 191.027,392.07 C192.469,392.07 193.645,392.714 193.645,394.352 L193.645,399 Z M190.747,398.412 C191.475,398.412 192.189,398.132 192.595,397.572 L192.595,396.284 C192.189,395.738 191.475,395.458 190.747,395.458 C189.753,395.458 189.067,396.074 189.067,396.928 C189.067,397.796 189.753,398.412 190.747,398.412 Z" id="Canada" fill="#999999"></path>
                <path d="M251.286,399.168 C248.766,399.168 247.478,397.67 247.478,395.374 L247.478,389.662 L248.654,389.662 L248.654,395.346 C248.654,397.054 249.564,398.132 251.286,398.132 C253.008,398.132 253.932,397.054 253.932,395.346 L253.932,389.662 L255.108,389.662 L255.108,395.36 C255.108,397.684 253.82,399.168 251.286,399.168 Z M264.39,399 L262.934,399 L259.392,394.8 L258.454,395.864 L258.454,399 L257.292,399 L257.292,389.662 L258.454,389.662 L258.454,394.478 L262.584,389.662 L264.04,389.662 L260.148,394.086 L264.39,399 Z" id="UK" fill="#999999"></path>
                <path d="M317.614,399 L316.452,399 L316.452,389.662 L322.57,389.662 L322.57,390.698 L317.614,390.698 L317.614,393.708 L322.472,393.708 L322.472,394.744 L317.614,394.744 L317.614,399 Z M325.174,399 L324.124,399 L324.124,392.238 L325.174,392.238 L325.174,393.316 C325.72,392.616 326.504,392.084 327.428,392.084 L327.428,393.162 C327.302,393.148 327.176,393.134 327.022,393.134 C326.364,393.134 325.482,393.666 325.174,394.212 L325.174,399 Z M334.022,399 L332.972,399 L332.972,398.23 C332.426,398.846 331.642,399.168 330.732,399.168 C329.598,399.168 328.38,398.398 328.38,396.928 C328.38,395.402 329.584,394.702 330.732,394.702 C331.656,394.702 332.426,394.996 332.972,395.612 L332.972,394.394 C332.972,393.498 332.244,392.98 331.264,392.98 C330.452,392.98 329.794,393.26 329.192,393.918 L328.702,393.19 C329.43,392.434 330.298,392.07 331.404,392.07 C332.846,392.07 334.022,392.714 334.022,394.352 L334.022,399 Z M331.124,398.412 C331.852,398.412 332.566,398.132 332.972,397.572 L332.972,396.284 C332.566,395.738 331.852,395.458 331.124,395.458 C330.13,395.458 329.444,396.074 329.444,396.928 C329.444,397.796 330.13,398.412 331.124,398.412 Z M341.75,399 L340.714,399 L340.714,394.576 C340.714,393.372 340.098,393.008 339.188,393.008 C338.362,393.008 337.592,393.512 337.186,394.058 L337.186,399 L336.136,399 L336.136,392.238 L337.186,392.238 L337.186,393.218 C337.662,392.644 338.586,392.07 339.608,392.07 C341.008,392.07 341.75,392.784 341.75,394.254 L341.75,399 Z M346.846,399.168 C344.83,399.168 343.472,397.614 343.472,395.612 C343.472,393.61 344.83,392.07 346.846,392.07 C348.078,392.07 348.806,392.574 349.324,393.246 L348.624,393.876 C348.176,393.26 347.602,393.008 346.902,393.008 C345.474,393.008 344.564,394.114 344.564,395.612 C344.564,397.11 345.474,398.23 346.902,398.23 C347.602,398.23 348.176,397.95 348.624,397.348 L349.324,397.992 C348.806,398.664 348.078,399.168 346.846,399.168 Z M353.874,399.168 C351.858,399.168 350.416,397.726 350.416,395.612 C350.416,393.652 351.816,392.07 353.748,392.07 C355.792,392.07 356.996,393.666 356.996,395.696 L356.996,395.962 L351.536,395.962 C351.62,397.236 352.502,398.3 353.958,398.3 C354.742,398.3 355.512,397.992 356.058,397.432 L356.562,398.118 C355.876,398.79 354.966,399.168 353.874,399.168 Z M355.96,395.178 C355.946,394.184 355.274,392.938 353.734,392.938 C352.292,392.938 351.578,394.156 351.522,395.178 L355.96,395.178 Z" id="France" fill="#999999"></path>
                <path d="M397.628,399.182 C394.968,399.182 392.826,397.236 392.826,394.338 C392.826,391.426 394.968,389.508 397.628,389.508 C399.294,389.508 400.442,390.236 401.254,391.244 L400.33,391.832 C399.742,391.076 398.748,390.544 397.628,390.544 C395.584,390.544 394.03,392.098 394.03,394.338 C394.03,396.55 395.584,398.132 397.628,398.132 C398.748,398.132 399.672,397.6 400.148,397.124 L400.148,395.234 L396.928,395.234 L396.928,394.198 L401.296,394.198 L401.296,397.558 C400.428,398.538 399.154,399.182 397.628,399.182 Z M406.21,399.168 C404.194,399.168 402.752,397.726 402.752,395.612 C402.752,393.652 404.152,392.07 406.084,392.07 C408.128,392.07 409.332,393.666 409.332,395.696 L409.332,395.962 L403.872,395.962 C403.956,397.236 404.838,398.3 406.294,398.3 C407.078,398.3 407.848,397.992 408.394,397.432 L408.898,398.118 C408.212,398.79 407.302,399.168 406.21,399.168 Z M408.296,395.178 C408.282,394.184 407.61,392.938 406.07,392.938 C404.628,392.938 403.914,394.156 403.858,395.178 L408.296,395.178 Z M412.076,399 L411.026,399 L411.026,392.238 L412.076,392.238 L412.076,393.316 C412.622,392.616 413.406,392.084 414.33,392.084 L414.33,393.162 C414.204,393.148 414.078,393.134 413.924,393.134 C413.266,393.134 412.384,393.666 412.076,394.212 L412.076,399 Z M424.858,399 L423.808,399 L423.808,394.408 C423.808,393.554 423.444,393.008 422.562,393.008 C421.862,393.008 421.12,393.498 420.77,394.044 L420.77,399 L419.72,399 L419.72,394.408 C419.72,393.554 419.37,393.008 418.474,393.008 C417.788,393.008 417.06,393.512 416.696,394.058 L416.696,399 L415.646,399 L415.646,392.238 L416.696,392.238 L416.696,393.218 C416.99,392.784 417.886,392.07 418.894,392.07 C419.916,392.07 420.504,392.63 420.7,393.33 C421.078,392.714 421.988,392.07 422.968,392.07 C424.2,392.07 424.858,392.756 424.858,394.114 L424.858,399 Z M432.236,399 L431.186,399 L431.186,398.23 C430.64,398.846 429.856,399.168 428.946,399.168 C427.812,399.168 426.594,398.398 426.594,396.928 C426.594,395.402 427.798,394.702 428.946,394.702 C429.87,394.702 430.64,394.996 431.186,395.612 L431.186,394.394 C431.186,393.498 430.458,392.98 429.478,392.98 C428.666,392.98 428.008,393.26 427.406,393.918 L426.916,393.19 C427.644,392.434 428.512,392.07 429.618,392.07 C431.06,392.07 432.236,392.714 432.236,394.352 L432.236,399 Z M429.338,398.412 C430.066,398.412 430.78,398.132 431.186,397.572 L431.186,396.284 C430.78,395.738 430.066,395.458 429.338,395.458 C428.344,395.458 427.658,396.074 427.658,396.928 C427.658,397.796 428.344,398.412 429.338,398.412 Z M439.964,399 L438.928,399 L438.928,394.576 C438.928,393.372 438.312,393.008 437.402,393.008 C436.576,393.008 435.806,393.512 435.4,394.058 L435.4,399 L434.35,399 L434.35,392.238 L435.4,392.238 L435.4,393.218 C435.876,392.644 436.8,392.07 437.822,392.07 C439.222,392.07 439.964,392.784 439.964,394.254 L439.964,399 Z M441.714,401.646 L441.868,400.694 C442.022,400.764 442.274,400.806 442.442,400.806 C442.904,400.806 443.212,400.652 443.45,400.092 L443.898,399.07 L441.07,392.238 L442.218,392.238 L444.458,397.782 L446.712,392.238 L447.846,392.238 L444.458,400.372 C444.052,401.352 443.366,401.73 442.47,401.744 C442.246,401.744 441.896,401.702 441.714,401.646 Z" id="Germany" fill="#999999"></path>
                <path d="M68,258 L76,258 C78.209139,258 80,259.790861 80,262 L80,376 L64,376 L64,262 C64,259.790861 65.790861,258 68,258 Z" id="Rectangle-1" fill="#299FFD"></path>
                <path d="M151,200 L159,200 C161.209139,200 163,201.790861 163,204 L163,376 L147,376 L147,204 C147,201.790861 148.790861,200 151,200 Z" id="Rectangle-1" fill="#299FFD"></path>
                <path d="M234,163 L242,163 C244.209139,163 246,164.790861 246,167 L246,376 L230,376 L230,167 C230,164.790861 231.790861,163 234,163 Z" id="Rectangle-1" fill="#299FFD"></path>
                <path d="M316,200 L324,200 C326.209139,200 328,201.790861 328,204 L328,376 L312,376 L312,204 C312,201.790861 313.790861,200 316,200 Z" id="Rectangle-1" fill="#299FFD"></path>
                <path d="M400,301 L408,301 C410.209139,301 412,302.790861 412,305 L412,376 L396,376 L396,305 C396,302.790861 397.790861,301 400,301 Z" id="Rectangle-1" fill="#299FFD"></path>
                <path d="M84,275 L92,275 C94.209139,275 96,276.790861 96,279 L96,376 L80,376 L80,279 C80,276.790861 81.790861,275 84,275 Z" id="Rectangle-1" fill="#7100D5"></path>
                <path d="M167,230 L175,230 C177.209139,230 179,231.790861 179,234 L179,376 L163,376 L163,234 C163,231.790861 164.790861,230 167,230 Z" id="Rectangle-1" fill="#7100D5"></path>
                <path d="M250,143 L258,143 C260.209139,143 262,144.790861 262,147 L262,376 L246,376 L246,147 C246,144.790861 247.790861,143 250,143 Z" id="Rectangle-1" fill="#7100D5"></path>
                <path d="M332,268 L340,268 C342.209139,268 344,269.790861 344,272 L344,376 L328,376 L328,272 C328,269.790861 329.790861,268 332,268 Z" id="Rectangle-1" fill="#7100D5"></path>
                <path d="M416,347 L424,347 C426.209139,347 428,348.790861 428,351 L428,376 L412,376 L412,351 C412,348.790861 413.790861,347 416,347 Z" id="Rectangle-1" fill="#7100D5"></path>
                <path d="M100,329 L108,329 C110.209139,329 112,330.790861 112,333 L112,376 L96,376 L96,333 C96,330.790861 97.790861,329 100,329 Z" id="Rectangle-1" fill="#FF9300"></path>
                <path d="M183,301 L191,301 C193.209139,301 195,302.790861 195,305 L195,376 L179,376 L179,305 C179,302.790861 180.790861,301 183,301 Z" id="Rectangle-1" fill="#FF9300"></path>
                <path d="M266,276 L274,276 C276.209139,276 278,277.790861 278,280 L278,376 L262,376 L262,280 C262,277.790861 263.790861,276 266,276 Z" id="Rectangle-1" fill="#FF9300"></path>
                <path d="M348,326 L356,326 C358.209139,326 360,327.790861 360,330 L360,376 L344,376 L344,330 C344,327.790861 345.790861,326 348,326 Z" id="Rectangle-1" fill="#FF9300"></path>
                <path d="M432,363 L440,363 C442.209139,363 444,364.790861 444,367 L444,376 L428,376 L428,367 C428,364.790861 429.790861,363 432,363 Z" id="Rectangle-1" fill="#FF9300"></path>
            </g>
        </g>
    </g>
</svg>