<?xml version="1.0" encoding="UTF-8"?>
<svg width="542px" height="442px" viewBox="0 0 542 442" version="1.1" xmlns="http://www.w3.org/2000/svg" xmlns:xlink="http://www.w3.org/1999/xlink">
    <!-- Generator: Sketch 50 (54983) - http://www.bohemiancoding.com/sketch -->
    <title>img-small-step</title>
    <desc>Created with Sketch.</desc>
    <defs>
        <linearGradient x1="-102.765266%" y1="184.936886%" x2="117.786458%" y2="-28.3463542%" id="linearGradient-1">
            <stop stop-color="#008ED1" offset="0%"></stop>
            <stop stop-color="#4300A3" offset="42.0400571%"></stop>
            <stop stop-color="#FF00CF" offset="100%"></stop>
        </linearGradient>
        <linearGradient x1="11.5517976%" y1="88.9160154%" x2="100%" y2="0%" id="linearGradient-2">
            <stop stop-color="#008ED1" offset="0%"></stop>
            <stop stop-color="#4300A3" offset="42.0400571%"></stop>
            <stop stop-color="#FF00CF" offset="100%"></stop>
        </linearGradient>
    </defs>
    <g id="assets" stroke="none" stroke-width="1" fill="none" fill-rule="evenodd">
        <g id="img-small-step">
            <path d="M282.30865,238.26296 C283.46468,239.41901 284.98234,240 286.5,240 C288.01766,240 289.53532,239.41901 290.69135,238.26296 L326.261509,202.692166 C328.579497,200.374136 328.579497,196.627346 326.261509,194.309316 L290.69135,158.738523 C288.373362,156.420492 284.626638,156.420492 282.30865,158.738523 L246.738491,194.309316 C244.420503,196.627346 244.420503,200.374136 246.738491,202.692166 L282.30865,238.26296 Z M286.5,171.312798 L313.687458,198.500741 L286.5,225.688684 L259.312542,198.500741 L286.5,171.312798 Z" id="Shape" fill="url(#linearGradient-1)" fill-rule="nonzero"></path>
            <path d="M149.466722,85.5671523 C173.032417,85.5671523 186.197809,78.4670102 197.81713,72.1993806 C208.187701,66.609654 217.137076,61.7810816 232.716718,61.7810816 C253.767074,61.7810816 272.391287,87.0418887 278.753966,96.7109264 L274.121698,101.34921 C266.878948,99.0122287 258.964252,97.4601876 250.556003,97.4601876 L191.09172,97.4601876 C176.796506,97.4661341 161.359579,108.835876 161.359579,127.192776 C161.359579,145.555622 176.79056,156.925364 191.09172,156.925364 L236.129968,156.925364 L122.523455,269.766483 C117.189509,275.10051 113.92492,282.908287 113.794099,290.662546 C113.669224,298.660613 116.684063,305.974829 122.523455,311.81431 C135.504508,324.795558 154.455775,321.92339 164.564703,311.81431 C198.905327,277.479117 210.655469,265.728798 214.675254,261.007263 L215.026094,261.358107 C217.273844,259.110324 221.19254,259.110324 223.44029,261.358107 C224.558218,262.476053 225.176647,263.968629 225.176647,265.562295 C225.176647,267.155962 224.558218,268.648538 223.44029,269.766483 L172.984846,320.222686 C167.948221,325.25344 164.790668,332.347635 164.314953,339.679691 C163.767882,348.1178 166.842185,356.145599 172.978899,362.276459 C178.693417,367.991062 185.823184,371 193.630845,371 L194.094666,371 C201.860702,370.88107 209.692148,367.616431 215.043933,362.252673 L327.85957,248.656346 L327.85957,293.69527 C327.85957,307.996645 339.229141,323.427859 357.591712,323.427859 C375.948336,323.427859 387.317907,307.996645 387.323853,293.69527 L387.323853,234.230094 C387.323853,225.821718 385.771835,217.906903 383.440835,210.681884 L399.763781,194.3468 C404.259281,189.857179 406.732995,183.880929 406.732995,177.530048 C406.732995,171.863017 404.669584,166.558723 401.04821,162.27723 C403.355424,160.439756 405.555602,158.55471 407.482245,156.622092 C407.571441,156.532894 407.642799,156.43775 407.726049,156.354499 C407.743888,156.336659 407.761727,156.312873 407.779566,156.295033 C417.846869,146.061076 423.258119,132.413818 422.99053,117.791331 C422.728887,103.085593 416.758673,89.170742 406.185924,78.5978336 C384.309014,56.7265416 349.308337,56.1437829 328.150945,77.2955462 C326.218356,79.2281644 324.333338,81.4224295 322.495892,83.7296783 C313.165946,75.8743285 299.221572,76.2311195 290.426804,85.0141261 L287.316822,88.1241549 C278.920466,75.7851307 258.26852,49.8880463 232.716718,49.8880463 C214.134129,49.8880463 202.972684,55.9118687 192.17397,61.7335095 C180.78656,67.8703157 170.029471,73.6741169 149.466722,73.6741169 C117.070581,73.6741169 102.026117,42.877102 101.336331,41.4202052 C99.9389208,38.4469463 96.3948496,37.1743915 93.4275819,38.5599302 C90.4543677,39.9514153 89.1699392,43.4955398 90.5614034,46.4687986 C91.3106534,48.0565189 109.328331,85.5671523 149.466722,85.5671523 Z M173.252435,127.192776 C173.252435,115.032147 183.902488,109.353223 191.09172,109.353223 L208.931005,109.353223 L208.931005,145.032329 L191.09172,145.032329 C183.896542,145.032329 173.252435,139.359351 173.252435,127.192776 Z M156.156454,303.399987 C151.066311,308.490206 139.53024,311.998652 130.931705,303.399987 C126.501616,298.969832 125.633437,294.129366 125.686955,290.852835 C125.764259,286.11346 127.72658,281.374086 130.913866,278.180806 L143.585704,265.597974 L168.768828,290.781477 C161.549864,298.012442 156.156454,303.405934 156.156454,303.399987 Z M231.848539,278.174859 C238.80586,271.22338 238.80586,259.901211 231.848539,252.949731 C225.111236,246.20638 213.378933,246.182594 206.594058,252.973517 C206.189701,253.383827 190.84197,268.725843 177.183024,282.384994 L152.023686,257.225278 L254.748235,155.200874 C256.460806,153.50017 256.978145,150.943167 256.056449,148.713223 C255.134752,146.489226 252.964306,145.032329 250.556003,145.032329 L220.823861,145.032329 L220.823861,109.353223 L250.556003,109.353223 C258.375556,109.353223 265.802645,110.982569 272.539948,113.390908 C273.116752,113.72986 273.705448,113.955828 274.347662,114.086651 C288.904519,119.688271 299.899465,128.673459 304.056018,132.401925 C304.061964,144.687431 307.9985,156.782648 318.006339,166.78469 C328.020124,176.798626 340.127052,180.759007 352.418319,180.759007 C356.105105,184.850211 365.066372,195.756125 370.673854,210.29536 C370.798729,211.032728 371.066318,211.716578 371.476622,212.376641 C373.837354,219.060527 375.430997,226.440156 375.430997,234.230094 L375.430997,263.962682 L339.752427,263.962682 L339.752427,234.230094 L339.752427,234.218201 C339.752427,233.445153 339.59782,232.672106 339.294552,231.946631 C338.991284,231.221156 338.551248,230.567039 338.004177,230.019959 C338.004177,230.019959 338.004177,230.014013 337.998231,230.014013 C337.914981,229.930762 337.801998,229.906975 337.718748,229.829671 C337.225195,229.395575 336.690016,229.003105 336.077534,228.747405 C335.506677,228.51549 334.906088,228.438186 334.299552,228.390613 C334.127106,228.366827 333.978445,228.283576 333.805999,228.283576 L333.794106,228.283576 C333.02107,228.283576 332.253981,228.438186 331.528517,228.741458 C330.797106,229.04473 330.142999,229.484773 329.595927,230.031852 C329.595927,230.031852 329.589981,230.031852 329.589981,230.037799 L227.567111,332.763891 L202.413719,307.610122 L231.848539,278.174859 Z M371.524193,109.817051 C390.350585,128.643726 395.512085,144.33064 396.873817,150.259318 C378.909657,166.564669 346.002123,177.964144 326.414588,158.376315 C306.696232,138.669555 318.392856,105.416628 334.882302,87.5354496 C339.651338,88.0825292 353.018908,91.3174348 371.524193,109.817051 Z M206.611898,353.862136 C203.448398,357.025683 198.578273,359.041553 193.90438,359.106965 C190.699256,359.267521 185.799399,358.286345 181.381203,353.868083 C172.776721,345.263472 176.297006,333.721281 181.387149,328.631062 L193.999523,316.018498 L219.182647,341.202 L206.611898,353.862136 Z M357.591712,311.534823 C345.425319,311.534823 339.752427,300.890557 339.752427,293.69527 L339.752427,275.855717 L375.430997,275.855717 L375.430997,293.69527 C375.430997,300.88461 369.752158,311.534823 357.591712,311.534823 Z M391.355531,169.121672 C395.993746,173.759956 395.993746,181.30014 391.355531,185.938424 L378.648014,198.652079 C374.753104,190.576708 370.221925,183.904715 366.487568,179.064249 C375.282336,177.095952 383.761943,173.516148 391.272281,169.032474 L391.355531,169.121672 Z M397.78362,87.0062095 C406.168084,95.3907994 410.901441,106.397804 411.109566,118.005406 C411.246334,125.611002 409.391048,132.847914 405.852924,139.198795 C402.291013,129.928174 394.982853,116.453365 379.938389,101.408675 C366.45189,87.9219733 355.06448,81.4224295 346.715694,78.3064542 C352.691855,75.2261581 359.304283,73.68601 365.982122,73.68601 C377.363586,73.6919565 388.923442,78.1518447 397.78362,87.0062095 Z M315.669392,93.4284486 L315.758589,93.5176464 C311.274982,101.028098 307.6655,109.507832 305.691286,118.290839 C300.844947,114.556426 294.184947,110.037072 286.133483,106.14805 L298.846947,93.4284486 C303.485161,88.7961114 311.037125,88.7961114 315.669392,93.4284486 Z" id="Shape" fill="url(#linearGradient-2)" fill-rule="nonzero"></path>
            <circle id="Oval" fill="#4700A3" cx="49" cy="103" r="12"></circle>
            <circle id="Oval" fill="#4700A3" opacity="0.31640625" cx="7.5" cy="182.5" r="7.5"></circle>
            <circle id="Oval" fill="#4700A3" opacity="0.31640625" cx="519.5" cy="125.5" r="22.5"></circle>
            <circle id="Oval" fill="#4700A3" opacity="0.31640625" cx="162" cy="431" r="11"></circle>
            <circle id="Oval" fill="#4700A3" cx="460.5" cy="15.5" r="7.5"></circle>
            <circle id="Oval" fill="#4700A3" cx="56.5" cy="349.5" r="7.5"></circle>
            <circle id="Oval" fill="#4700A3" cx="472" cy="234" r="4"></circle>
            <circle id="Oval" fill="#9400B6" cx="248" cy="19" r="4"></circle>
            <circle id="Oval" fill="#9400B6" cx="356" cy="33" r="5"></circle>
            <circle id="Oval" fill="#2936B5" cx="122" cy="194" r="4"></circle>
            <circle id="Oval" fill="#2936B5" cx="334" cy="375" r="4"></circle>
            <circle id="Oval" fill="#2936B5" cx="426.5" cy="374.5" r="7.5"></circle>
            <circle id="Oval" fill="#2936B5" cx="26" cy="4" r="4"></circle>
            <circle id="Oval" fill="#5A00A8" cx="528" cy="325" r="8"></circle>
        </g>
    </g>
</svg>