<?xml version="1.0" encoding="UTF-8"?>
<svg width="759px" height="600px" viewBox="0 0 759 600" version="1.1" xmlns="http://www.w3.org/2000/svg" xmlns:xlink="http://www.w3.org/1999/xlink">
    <!-- Generator: Sketch 50.2 (55047) - http://www.bohemiancoding.com/sketch -->
    <title>shuttle</title>
    <desc>Created with Sketch.</desc>
    <defs>
        <linearGradient x1="-95.9979457%" y1="141.04009%" x2="153.879252%" y2="-2.74920344%" id="linearGradient-1">
            <stop stop-color="#7826AD" offset="0%"></stop>
            <stop stop-color="#356FA8" offset="100%"></stop>
        </linearGradient>
        <linearGradient x1="-2188.68435%" y1="160.903627%" x2="3340.60244%" y2="-112.761412%" id="linearGradient-2">
            <stop stop-color="#7826AD" offset="0%"></stop>
            <stop stop-color="#356FA8" offset="100%"></stop>
        </linearGradient>
        <linearGradient x1="-2054.04911%" y1="137.130606%" x2="3475.18772%" y2="-91.734601%" id="linearGradient-3">
            <stop stop-color="#7826AD" offset="0%"></stop>
            <stop stop-color="#356FA8" offset="100%"></stop>
        </linearGradient>
        <linearGradient x1="-1982.01052%" y1="161.941721%" x2="3547.22631%" y2="-142.514939%" id="linearGradient-4">
            <stop stop-color="#7826AD" offset="0%"></stop>
            <stop stop-color="#356FA8" offset="100%"></stop>
        </linearGradient>
        <linearGradient x1="-861.813465%" y1="741.050988%" x2="182.329565%" y2="-50.2826378%" id="linearGradient-5">
            <stop stop-color="#7826AD" offset="0%"></stop>
            <stop stop-color="#356FA8" offset="100%"></stop>
        </linearGradient>
        <linearGradient x1="-504.776281%" y1="470.460501%" x2="951.539408%" y2="-633.263107%" id="linearGradient-6">
            <stop stop-color="#7826AD" offset="0%"></stop>
            <stop stop-color="#356FA8" offset="100%"></stop>
        </linearGradient>
        <linearGradient x1="-1042.31991%" y1="880.205217%" x2="1007.40501%" y2="-678.007784%" id="linearGradient-7">
            <stop stop-color="#7826AD" offset="0%"></stop>
            <stop stop-color="#356FA8" offset="100%"></stop>
        </linearGradient>
        <linearGradient x1="-1465.60267%" y1="1198.52622%" x2="584.122248%" y2="-354.804248%" id="linearGradient-8">
            <stop stop-color="#7826AD" offset="0%"></stop>
            <stop stop-color="#356FA8" offset="100%"></stop>
        </linearGradient>
        <linearGradient x1="-876.176542%" y1="752.114286%" x2="704.581328%" y2="-446.214286%" id="linearGradient-9">
            <stop stop-color="#7826AD" offset="0%"></stop>
            <stop stop-color="#356FA8" offset="100%"></stop>
        </linearGradient>
        <linearGradient x1="-3910.1%" y1="3051.3%" x2="1623.9%" y2="-1142.85%" id="linearGradient-10">
            <stop stop-color="#7826AD" offset="0%"></stop>
            <stop stop-color="#356FA8" offset="100%"></stop>
        </linearGradient>
        <linearGradient x1="-1989.8%" y1="1595.95%" x2="3544.15%" y2="-2598.2%" id="linearGradient-11">
            <stop stop-color="#7826AD" offset="0%"></stop>
            <stop stop-color="#356FA8" offset="100%"></stop>
        </linearGradient>
        <linearGradient x1="-1446.35%" y1="1184.05%" x2="4087.65%" y2="-3010.1%" id="linearGradient-12">
            <stop stop-color="#7826AD" offset="0%"></stop>
            <stop stop-color="#356FA8" offset="100%"></stop>
        </linearGradient>
        <linearGradient x1="-4394.1%" y1="3418.15%" x2="1139.9%" y2="-776%" id="linearGradient-13">
            <stop stop-color="#7826AD" offset="0%"></stop>
            <stop stop-color="#356FA8" offset="100%"></stop>
        </linearGradient>
        <linearGradient x1="-4723.6%" y1="3667.85%" x2="810.35%" y2="-526.25%" id="linearGradient-14">
            <stop stop-color="#7826AD" offset="0%"></stop>
            <stop stop-color="#356FA8" offset="100%"></stop>
        </linearGradient>
        <linearGradient x1="-649.05%" y1="579.8%" x2="4884.9%" y2="-3614.3%" id="linearGradient-15">
            <stop stop-color="#7826AD" offset="0%"></stop>
            <stop stop-color="#356FA8" offset="100%"></stop>
        </linearGradient>
        <linearGradient x1="-118.257229%" y1="176.650865%" x2="561.00331%" y2="-333.615396%" id="linearGradient-16">
            <stop stop-color="#7826AD" offset="0%"></stop>
            <stop stop-color="#356FA8" offset="100%"></stop>
        </linearGradient>
    </defs>
    <g id="Page-1" stroke="none" stroke-width="1" fill="none" fill-rule="evenodd">
        <g id="shuttle" fill-rule="nonzero">
            <path d="M518.387192,278.707196 C517.671129,273.032657 514.996643,267.83404 510.87365,264.102511 L454.233103,212.377585 C448.460002,206.814656 444.769492,199.259185 443.829737,191.079086 L435.160265,71.1989644 C434.36269,61.2571279 431.814799,51.5583939 427.646723,42.5981232 L413.197604,13.3887534 C409.260652,5.10755802 401.186034,-0.0878754069 392.390872,0.00112553822 C383.665692,0.171776139 375.708624,5.29157401 371.584141,13.3887534 L357.135022,42.5981232 C352.894765,51.529382 350.342973,61.2429623 349.62148,71.1989644 L340.952008,191.079086 C340.514746,199.412091 336.732156,207.156072 330.548642,212.377585 L273.908095,264.102511 C269.785102,267.83404 267.110616,273.032657 266.394553,278.707196 L265.238624,293.920409 C263.506889,306.439708 271.375846,318.199178 283.155531,320.695665 L283.733496,320.695665 L347.887585,323.129779 L346.731656,329.215064 C345.595247,337.294185 348.967525,345.342234 355.401127,349.905035 C363.492634,354.773263 374.473965,354.773263 388.345119,354.773263 L400.482379,354.773263 C410.535927,355.649023 420.642588,353.979828 429.958582,349.905035 C436.486759,345.426203 439.887124,337.311123 438.628054,329.215064 L437.472124,323.129779 L502.782143,320.695665 C514.699016,318.423067 522.677196,306.500373 520.699051,293.920409 L518.387192,278.707196 Z M423.60097,339.560049 C418.399287,343.211221 408.573886,342.602692 396.436626,342.602692 L388.345119,342.602692 C376.785824,342.602692 366.382458,342.602692 361.180775,339.560049 C359.152741,337.527924 358.276684,334.530175 358.868916,331.649178 L372.162106,254.366054 C374.003524,243.790804 382.757334,236.110198 392.968837,236.110198 C403.18034,236.110198 411.93415,243.790804 413.775569,254.366054 L427.068759,331.649178 C427.689338,334.801945 426.282268,338.011815 423.60097,339.560049 Z M500.470284,308.525094 L434.582301,311.567737 L424.178935,252.540469 C421.40846,236.002429 407.762769,223.944161 391.812908,223.939627 C375.931448,224.140129 362.388797,236.107344 359.446881,252.540469 L349.043515,311.567737 L283.155531,308.525094 C278.496491,306.312546 275.872587,301.038377 276.797919,295.745995 L279.109778,280.532781 C279.669865,277.832504 280.861896,275.32237 282.577567,273.230439 L339.218114,221.505513 C347.480944,213.949852 352.485072,203.192811 353.089268,191.687615 L361.75874,71.8074929 C362.367525,63.531996 364.528377,55.4656568 368.116352,48.07488 L382.565471,18.8655102 C384.646365,14.835536 388.613472,12.2829889 392.968837,12.1716963 C397.366227,12.1279234 401.403199,14.7254233 403.372203,18.8655102 L417.821322,48.07488 C421.335796,55.4957819 423.49253,63.5467487 424.178935,71.8074929 L432.848406,191.687615 C433.578295,203.157853 438.560016,213.866727 446.719561,221.505513 L503.360108,273.230439 C505.39513,275.079886 506.643664,277.709003 506.827897,280.532781 L509.139756,295.745995 C509.900523,301.745696 506.107362,307.336946 500.470284,308.525094 Z" id="Shape" fill="#000000"></path>
            <path d="M518.387192,278.707196 C517.671129,273.032657 514.996643,267.83404 510.87365,264.102511 L454.233103,212.377585 C448.460002,206.814656 444.769492,199.259185 443.829737,191.079086 L435.160265,71.1989644 C434.36269,61.2571279 431.814799,51.5583939 427.646723,42.5981232 L413.197604,13.3887534 C409.260652,5.10755802 401.186034,-0.0878754069 392.390872,0.00112553822 C383.665692,0.171776139 375.708624,5.29157401 371.584141,13.3887534 L357.135022,42.5981232 C352.894765,51.529382 350.342973,61.2429623 349.62148,71.1989644 L340.952008,191.079086 C340.514746,199.412091 336.732156,207.156072 330.548642,212.377585 L273.908095,264.102511 C269.785102,267.83404 267.110616,273.032657 266.394553,278.707196 L265.238624,293.920409 C263.506889,306.439708 271.375846,318.199178 283.155531,320.695665 L283.733496,320.695665 L347.887585,323.129779 L346.731656,329.215064 C345.595247,337.294185 348.967525,345.342234 355.401127,349.905035 C363.492634,354.773263 374.473965,354.773263 388.345119,354.773263 L400.482379,354.773263 C410.535927,355.649023 420.642588,353.979828 429.958582,349.905035 C436.486759,345.426203 439.887124,337.311123 438.628054,329.215064 L437.472124,323.129779 L502.782143,320.695665 C514.699016,318.423067 522.677196,306.500373 520.699051,293.920409 L518.387192,278.707196 Z M423.60097,339.560049 C418.399287,343.211221 408.573886,342.602692 396.436626,342.602692 L388.345119,342.602692 C376.785824,342.602692 366.382458,342.602692 361.180775,339.560049 C359.152741,337.527924 358.276684,334.530175 358.868916,331.649178 L372.162106,254.366054 C374.003524,243.790804 382.757334,236.110198 392.968837,236.110198 C403.18034,236.110198 411.93415,243.790804 413.775569,254.366054 L427.068759,331.649178 C427.689338,334.801945 426.282268,338.011815 423.60097,339.560049 Z M500.470284,308.525094 L434.582301,311.567737 L424.178935,252.540469 C421.40846,236.002429 407.762769,223.944161 391.812908,223.939627 C375.931448,224.140129 362.388797,236.107344 359.446881,252.540469 L349.043515,311.567737 L283.155531,308.525094 C278.496491,306.312546 275.872587,301.038377 276.797919,295.745995 L279.109778,280.532781 C279.669865,277.832504 280.861896,275.32237 282.577567,273.230439 L339.218114,221.505513 C347.480944,213.949852 352.485072,203.192811 353.089268,191.687615 L361.75874,71.8074929 C362.367525,63.531996 364.528377,55.4656568 368.116352,48.07488 L382.565471,18.8655102 C384.646365,14.835536 388.613472,12.2829889 392.968837,12.1716963 C397.366227,12.1279234 401.403199,14.7254233 403.372203,18.8655102 L417.821322,48.07488 C421.335796,55.4957819 423.49253,63.5467487 424.178935,71.8074929 L432.848406,191.687615 C433.578295,203.157853 438.560016,213.866727 446.719561,221.505513 L503.360108,273.230439 C505.39513,275.079886 506.643664,277.709003 506.827897,280.532781 L509.139756,295.745995 C509.900523,301.745696 506.107362,307.336946 500.470284,308.525094 Z" id="Shape" fill="url(#linearGradient-1)"></path>
            <path d="M414.99489,391.010401 C411.778428,391.231812 409.217567,393.837916 409,397.111203 L409,571.899197 C409,575.268578 411.684004,578 414.99489,578 C418.305776,578 420.98978,575.268578 420.98978,571.899197 L420.98978,397.111203 C421.087028,395.46482 420.48672,393.854888 419.340697,392.688618 C418.194674,391.522348 416.612691,390.911435 414.99489,391.010401 Z" id="Shape" fill="#000000"></path>
            <path d="M414.99489,391.010401 C411.778428,391.231812 409.217567,393.837916 409,397.111203 L409,571.899197 C409,575.268578 411.684004,578 414.99489,578 C418.305776,578 420.98978,575.268578 420.98978,571.899197 L420.98978,397.111203 C421.087028,395.46482 420.48672,393.854888 419.340697,392.688618 C418.194674,391.522348 416.612691,390.911435 414.99489,391.010401 Z" id="Shape" fill="url(#linearGradient-2)"></path>
            <path d="M391.99489,378.010326 C388.68674,378.016991 386.006597,380.72491 386,384.067343 L386,593.942983 C386,597.288181 388.684004,600 391.99489,600 C395.305776,600 397.98978,597.288181 397.98978,593.942983 L397.98978,384.067343 C398.087028,382.432776 397.48672,380.834399 396.340697,379.676499 C395.194674,378.518599 393.612691,377.91207 391.99489,378.010326 Z" id="Shape" fill="#000000"></path>
            <path d="M391.99489,378.010326 C388.68674,378.016991 386.006597,380.72491 386,384.067343 L386,593.942983 C386,597.288181 388.684004,600 391.99489,600 C395.305776,600 397.98978,597.288181 397.98978,593.942983 L397.98978,384.067343 C398.087028,382.432776 397.48672,380.834399 396.340697,379.676499 C395.194674,378.518599 393.612691,377.91207 391.99489,378.010326 Z" id="Shape" fill="url(#linearGradient-3)"></path>
            <path d="M370.99489,391.010333 C367.68674,391.017003 365.006597,393.72685 365,397.071664 L365,551.938669 C365,555.28625 367.684004,558 370.99489,558 C374.305776,558 376.98978,555.28625 376.98978,551.938669 L376.98978,397.071664 C377.087028,395.435933 376.48672,393.836417 375.340697,392.677693 C374.194674,391.518968 372.612691,390.912008 370.99489,391.010333 Z" id="Shape" fill="#000000"></path>
            <path d="M370.99489,391.010333 C367.68674,391.017003 365.006597,393.72685 365,397.071664 L365,551.938669 C365,555.28625 367.684004,558 370.99489,558 C374.305776,558 376.98978,555.28625 376.98978,551.938669 L376.98978,397.071664 C377.087028,395.435933 376.48672,393.836417 375.340697,392.677693 C374.194674,391.518968 372.612691,390.912008 370.99489,391.010333 Z" id="Shape" fill="url(#linearGradient-4)"></path>
            <path d="M708.000235,205 C690.925999,205.117055 677.112122,219.599345 677.00047,237.499754 C676.955034,246.133739 680.206479,254.427884 686.029941,260.533127 C691.853403,266.638369 699.764741,270.047142 708.000235,269.999507 C725.120932,269.999507 739,255.448872 739,237.499754 C739,219.550635 725.120932,205 708.000235,205 Z M707.415334,257.735449 C699.608508,257.735449 692.570393,252.80518 689.582851,245.243619 C686.595308,237.682058 688.246683,228.978324 693.766942,223.190956 C699.287201,217.403588 707.589224,215.672307 714.80179,218.804409 C722.014356,221.93651 726.717074,229.315179 726.717074,237.499754 C726.624942,248.635365 718.036994,257.638859 707.415334,257.735449 Z" id="Shape" fill="#000000"></path>
            <path d="M708.000235,205 C690.925999,205.117055 677.112122,219.599345 677.00047,237.499754 C676.955034,246.133739 680.206479,254.427884 686.029941,260.533127 C691.853403,266.638369 699.764741,270.047142 708.000235,269.999507 C725.120932,269.999507 739,255.448872 739,237.499754 C739,219.550635 725.120932,205 708.000235,205 Z M707.415334,257.735449 C699.608508,257.735449 692.570393,252.80518 689.582851,245.243619 C686.595308,237.682058 688.246683,228.978324 693.766942,223.190956 C699.287201,217.403588 707.589224,215.672307 714.80179,218.804409 C722.014356,221.93651 726.717074,229.315179 726.717074,237.499754 C726.624942,248.635365 718.036994,257.638859 707.415334,257.735449 Z" id="Shape" fill="url(#linearGradient-5)"></path>
            <path d="M146.999998,123.000003 C134.849735,123.000003 125,133.073596 125,145.500002 C125,157.926408 134.849735,168 146.999998,168 C159.150262,168 168.999997,157.926408 168.999997,145.500002 C169.003071,139.531668 166.686208,133.806878 162.559741,129.586628 C158.433274,125.366379 152.835703,122.996859 146.999998,123.000003 Z M146.999998,155.56579 C144.295326,155.711606 141.650337,154.717773 139.681275,152.815837 C137.712212,150.913902 136.59103,148.269957 136.578947,145.500002 C136.578947,139.613809 141.24461,134.842108 146.999998,134.842108 C152.755387,134.842108 157.42105,139.613809 157.42105,145.500002 C157.198502,151.193747 152.570841,155.663647 146.999998,155.56579 Z" id="Shape" fill="#000000"></path>
            <path d="M146.999998,123.000003 C134.849735,123.000003 125,133.073596 125,145.500002 C125,157.926408 134.849735,168 146.999998,168 C159.150262,168 168.999997,157.926408 168.999997,145.500002 C169.003071,139.531668 166.686208,133.806878 162.559741,129.586628 C158.433274,125.366379 152.835703,122.996859 146.999998,123.000003 Z M146.999998,155.56579 C144.295326,155.711606 141.650337,154.717773 139.681275,152.815837 C137.712212,150.913902 136.59103,148.269957 136.578947,145.500002 C136.578947,139.613809 141.24461,134.842108 146.999998,134.842108 C152.755387,134.842108 157.42105,139.613809 157.42105,145.500002 C157.198502,151.193747 152.570841,155.663647 146.999998,155.56579 Z" id="Shape" fill="url(#linearGradient-6)"></path>
            <path d="M275.241059,117.158809 C276.263515,118.371031 277.732552,119.043281 279.259801,118.997836 C280.764076,118.926212 282.192537,118.27253 283.278543,117.158809 C284.377875,116.04007 285,114.489303 285,112.867747 C285,111.246191 284.377875,109.695423 283.278543,108.576684 L277.537483,102.446595 L283.278543,96.3165053 C285.459936,93.9397578 285.441918,90.1306064 283.238152,87.7775075 C281.034387,85.4244085 277.466973,85.4051699 275.241059,87.7343801 L269.5,93.8644695 L263.758941,87.7343801 C261.533027,85.4051699 257.965613,85.4244085 255.761848,87.7775075 C253.558082,90.1306064 253.540064,93.9397578 255.721457,96.3165053 L261.462517,102.446595 L255.721457,108.576684 C254.622125,109.695423 254,111.246191 254,112.867747 C254,114.489303 254.622125,116.04007 255.721457,117.158809 C256.743913,118.371031 258.21295,119.043281 259.740199,118.997836 C261.244474,118.926212 262.672935,118.27253 263.758941,117.158809 L269.5,111.02872 L275.241059,117.158809 Z" id="Shape" fill="#000000"></path>
            <path d="M275.241059,117.158809 C276.263515,118.371031 277.732552,119.043281 279.259801,118.997836 C280.764076,118.926212 282.192537,118.27253 283.278543,117.158809 C284.377875,116.04007 285,114.489303 285,112.867747 C285,111.246191 284.377875,109.695423 283.278543,108.576684 L277.537483,102.446595 L283.278543,96.3165053 C285.459936,93.9397578 285.441918,90.1306064 283.238152,87.7775075 C281.034387,85.4244085 277.466973,85.4051699 275.241059,87.7343801 L269.5,93.8644695 L263.758941,87.7343801 C261.533027,85.4051699 257.965613,85.4244085 255.761848,87.7775075 C253.558082,90.1306064 253.540064,93.9397578 255.721457,96.3165053 L261.462517,102.446595 L255.721457,108.576684 C254.622125,109.695423 254,111.246191 254,112.867747 C254,114.489303 254.622125,116.04007 255.721457,117.158809 C256.743913,118.371031 258.21295,119.043281 259.740199,118.997836 C261.244474,118.926212 262.672935,118.27253 263.758941,117.158809 L269.5,111.02872 L275.241059,117.158809 Z" id="Shape" fill="url(#linearGradient-7)"></path>
            <path d="M540.278543,159.832348 C539.230801,158.662201 537.778449,158 536.259801,158 C534.741153,158 533.288801,158.662201 532.241059,159.832348 L526.5,165.94323 L520.758941,159.832348 C519.328111,158.278265 517.223427,157.66179 515.24706,158.217884 C513.270694,158.773978 511.727138,160.416965 511.204698,162.520643 C510.682258,164.624321 511.261425,166.864582 512.721457,168.387582 L518.462517,174.498463 L512.721457,180.609345 C511.622125,181.724579 511,183.270487 511,184.886962 C511,186.503437 511.622125,188.049345 512.721457,189.164579 C513.769199,190.334726 515.221551,190.996927 516.740199,190.996927 C518.258847,190.996927 519.711199,190.334726 520.758941,189.164579 L526.5,183.053697 L532.241059,189.164579 C533.263515,190.373002 534.732552,191.043145 536.259801,190.997843 C537.764076,190.926443 539.192537,190.274809 540.278543,189.164579 C541.377875,188.049345 542,186.503437 542,184.886962 C542,183.270487 541.377875,181.724579 540.278543,180.609345 L534.537483,174.498463 L540.278543,168.387582 C541.377875,167.272348 542,165.72644 542,164.109965 C542,162.49349 541.377875,160.947582 540.278543,159.832348 Z" id="Shape" fill="#000000"></path>
            <path d="M540.278543,159.832348 C539.230801,158.662201 537.778449,158 536.259801,158 C534.741153,158 533.288801,158.662201 532.241059,159.832348 L526.5,165.94323 L520.758941,159.832348 C519.328111,158.278265 517.223427,157.66179 515.24706,158.217884 C513.270694,158.773978 511.727138,160.416965 511.204698,162.520643 C510.682258,164.624321 511.261425,166.864582 512.721457,168.387582 L518.462517,174.498463 L512.721457,180.609345 C511.622125,181.724579 511,183.270487 511,184.886962 C511,186.503437 511.622125,188.049345 512.721457,189.164579 C513.769199,190.334726 515.221551,190.996927 516.740199,190.996927 C518.258847,190.996927 519.711199,190.334726 520.758941,189.164579 L526.5,183.053697 L532.241059,189.164579 C533.263515,190.373002 534.732552,191.043145 536.259801,190.997843 C537.764076,190.926443 539.192537,190.274809 540.278543,189.164579 C541.377875,188.049345 542,186.503437 542,184.886962 C542,183.270487 541.377875,181.724579 540.278543,180.609345 L534.537483,174.498463 L540.278543,168.387582 C541.377875,167.272348 542,165.72644 542,164.109965 C542,162.49349 541.377875,160.947582 540.278543,159.832348 Z" id="Shape" fill="url(#linearGradient-8)"></path>
            <path d="M578.287106,435 L569.717764,435 L569.717764,426 C569.717764,422.686292 567.160014,420 564.00487,420 C560.849725,420 558.291975,422.686292 558.291975,426 L558.291975,435 L549.722634,435 C546.570097,435.006602 544.016026,437.68903 544.009739,441 C543.917066,442.61918 544.489135,444.202512 545.58125,445.349512 C546.673365,446.496512 548.180933,447.097331 549.722634,447 L558.291975,447 L558.291975,456 C558.291975,459.313708 560.849725,462 564.00487,462 C567.160014,462 569.717764,459.313708 569.717764,456 L569.717764,447 L578.287106,447 C581.44225,447 584,444.313708 584,441 C584,437.686292 581.44225,435 578.287106,435 Z" id="Shape" fill="#000000"></path>
            <path d="M578.287106,435 L569.717764,435 L569.717764,426 C569.717764,422.686292 567.160014,420 564.00487,420 C560.849725,420 558.291975,422.686292 558.291975,426 L558.291975,435 L549.722634,435 C546.570097,435.006602 544.016026,437.68903 544.009739,441 C543.917066,442.61918 544.489135,444.202512 545.58125,445.349512 C546.673365,446.496512 548.180933,447.097331 549.722634,447 L558.291975,447 L558.291975,456 C558.291975,459.313708 560.849725,462 564.00487,462 C567.160014,462 569.717764,459.313708 569.717764,456 L569.717764,447 L578.287106,447 C581.44225,447 584,444.313708 584,441 C584,437.686292 581.44225,435 578.287106,435 Z" id="Shape" fill="url(#linearGradient-9)"></path>
            <ellipse id="Oval" fill="#000000" cx="614" cy="329.5" rx="6" ry="6.5"></ellipse>
            <ellipse id="Oval" fill="url(#linearGradient-10)" cx="614" cy="329.5" rx="6" ry="6.5"></ellipse>
            <ellipse id="Oval" fill="#000000" cx="205" cy="244.5" rx="6" ry="6.5"></ellipse>
            <ellipse id="Oval" fill="url(#linearGradient-11)" cx="205" cy="244.5" rx="6" ry="6.5"></ellipse>
            <ellipse id="Oval" fill="#000000" cx="88" cy="218.5" rx="6" ry="6.5"></ellipse>
            <ellipse id="Oval" fill="url(#linearGradient-12)" cx="88" cy="218.5" rx="6" ry="6.5"></ellipse>
            <ellipse id="Oval" fill="#000000" cx="753" cy="400.5" rx="6" ry="6.5"></ellipse>
            <ellipse id="Oval" fill="url(#linearGradient-13)" cx="753" cy="400.5" rx="6" ry="6.5"></ellipse>
            <ellipse id="Oval" fill="#000000" cx="614" cy="122.5" rx="6" ry="6.5"></ellipse>
            <ellipse id="Oval" fill="url(#linearGradient-14)" cx="614" cy="122.5" rx="6" ry="6.5"></ellipse>
            <ellipse id="Oval" fill="#000000" cx="6" cy="305.5" rx="6" ry="6.5"></ellipse>
            <ellipse id="Oval" fill="url(#linearGradient-15)" cx="6" cy="305.5" rx="6" ry="6.5"></ellipse>
            <path d="M234.034452,375.249578 C223.170675,368.782212 210.238737,367.258044 198.267101,371.03401 C186.229683,374.974059 176.107154,383.600188 169.999355,395.122972 C157.356246,418.750198 165.342091,448.600257 187.883031,461.969841 C194.931118,466.067725 202.89254,468.145477 210.958741,467.992082 C228.021237,468.036772 243.739071,458.33063 251.918127,442.698672 C254.149621,438.093447 255.890702,433.246696 257.110162,428.245295 C261.029194,407.250846 251.763745,385.971799 234.034452,375.249578 Z M215.573883,413.791917 L244.418521,430.654191 L242.11095,436.676431 C237.486987,445.268477 229.759325,451.569463 220.653905,454.172087 C211.548485,456.774712 201.82385,455.46216 193.651959,450.527584 C182.842994,444.683901 175.975863,433.121537 175.768283,420.416382 L205.766706,437.880879 C206.652588,438.367371 207.654192,438.576488 208.65117,438.483103 C210.766822,438.494806 212.735021,437.35335 213.843205,435.471983 C214.636502,434.040955 214.838798,432.334875 214.403687,430.745117 C213.968576,429.15536 212.933403,427.818368 211.535634,427.040846 L178.652747,407.769677 C178.075854,407.769677 178.075854,407.769677 177.498961,407.167453 C178.211901,404.658468 179.178844,402.235904 180.383425,399.940764 C184.922983,391.327511 192.63188,385.020094 201.728457,382.476267 C204.905782,381.483671 208.224388,381.076104 211.535634,381.271819 C217.595598,381.372938 223.538864,383.027401 228.842417,386.089611 C239.917602,392.545105 246.764941,404.765887 246.726092,418.007486 L221.342811,402.951884 C218.488752,401.408473 214.976389,402.51408 213.415397,405.447242 C211.854405,408.380405 212.810756,412.077642 215.573883,413.791917 Z" id="Shape" fill="#000000"></path>
            <path d="M234.034452,375.249578 C223.170675,368.782212 210.238737,367.258044 198.267101,371.03401 C186.229683,374.974059 176.107154,383.600188 169.999355,395.122972 C157.356246,418.750198 165.342091,448.600257 187.883031,461.969841 C194.931118,466.067725 202.89254,468.145477 210.958741,467.992082 C228.021237,468.036772 243.739071,458.33063 251.918127,442.698672 C254.149621,438.093447 255.890702,433.246696 257.110162,428.245295 C261.029194,407.250846 251.763745,385.971799 234.034452,375.249578 Z M215.573883,413.791917 L244.418521,430.654191 L242.11095,436.676431 C237.486987,445.268477 229.759325,451.569463 220.653905,454.172087 C211.548485,456.774712 201.82385,455.46216 193.651959,450.527584 C182.842994,444.683901 175.975863,433.121537 175.768283,420.416382 L205.766706,437.880879 C206.652588,438.367371 207.654192,438.576488 208.65117,438.483103 C210.766822,438.494806 212.735021,437.35335 213.843205,435.471983 C214.636502,434.040955 214.838798,432.334875 214.403687,430.745117 C213.968576,429.15536 212.933403,427.818368 211.535634,427.040846 L178.652747,407.769677 C178.075854,407.769677 178.075854,407.769677 177.498961,407.167453 C178.211901,404.658468 179.178844,402.235904 180.383425,399.940764 C184.922983,391.327511 192.63188,385.020094 201.728457,382.476267 C204.905782,381.483671 208.224388,381.076104 211.535634,381.271819 C217.595598,381.372938 223.538864,383.027401 228.842417,386.089611 C239.917602,392.545105 246.764941,404.765887 246.726092,418.007486 L221.342811,402.951884 C218.488752,401.408473 214.976389,402.51408 213.415397,405.447242 C211.854405,408.380405 212.810756,412.077642 215.573883,413.791917 Z" id="Shape" fill="url(#linearGradient-16)"></path>
        </g>
    </g>
</svg>