<?xml version="1.0" encoding="UTF-8"?>
<svg width="602px" height="535px" viewBox="0 0 602 535" version="1.1" xmlns="http://www.w3.org/2000/svg" xmlns:xlink="http://www.w3.org/1999/xlink">
    <!-- Generator: Sketch 50.2 (55047) - http://www.bohemiancoding.com/sketch -->
    <title>Slice</title>
    <desc>Created with Sketch.</desc>
    <defs>
        <rect id="path-1" x="0" y="0" width="288" height="276" rx="4"></rect>
        <filter x="-15.3%" y="-10.1%" width="130.6%" height="131.9%" filterUnits="objectBoundingBox" id="filter-2">
            <feOffset dx="0" dy="16" in="SourceAlpha" result="shadowOffsetOuter1"></feOffset>
            <feGaussianBlur stdDeviation="12" in="shadowOffsetOuter1" result="shadowBlurOuter1"></feGaussianBlur>
            <feComposite in="shadowBlurOuter1" in2="SourceAlpha" operator="out" result="shadowBlurOuter1"></feComposite>
            <feColorMatrix values="0 0 0 0 0   0 0 0 0 0   0 0 0 0 0  0 0 0 0.08 0" type="matrix" in="shadowBlurOuter1"></feColorMatrix>
        </filter>
        <path d="M30.6071302,42.4949196 C30.6043687,41.4981803 31.4141674,40.6885021 32.4103647,40.6857411 C33.4072523,40.6857411 34.2198124,41.4926582 34.2198124,42.4921586 C34.2198124,43.4882077 33.4127753,44.2978859 32.4138165,44.2978859 C31.4169288,44.3013372 30.6071302,43.4909687 30.6071302,42.4949196 Z M27.8585093,43.4008895 C26.9375618,43.0184839 26.497799,41.965143 26.8802615,41.0408812 C27.2627239,40.1200708 28.3162215,39.6803734 29.237169,40.062779 C30.1615683,40.4417332 30.6013311,41.4985254 30.2188687,42.4227872 C29.9296055,43.118572 29.2585703,43.5396323 28.5481843,43.5396323 C28.318983,43.5396323 28.0842588,43.4947652 27.8585093,43.4008895 Z M34.6052435,42.4167129 C34.222781,41.4952122 34.659092,40.4391102 35.5807298,40.0567047 C36.5016773,39.6742991 37.5586267,40.1112354 37.9438507,41.0320459 C38.3263131,41.9528563 37.8900021,43.0096486 36.9683643,43.3913638 C36.7426148,43.4852396 36.5078906,43.5301066 36.2759278,43.5301066 C35.5683032,43.5301066 34.8945066,43.1118074 34.6052435,42.4167129 Z M23.9988143,40.827314 C23.2911897,40.123246 23.2884282,38.9787904 23.9960528,38.2719614 C24.6974641,37.5644421 25.8413996,37.5644421 26.5490241,38.2685101 C27.2559583,38.9732683 27.2559583,40.1170336 26.5517856,40.8211016 C26.1996992,41.1765869 25.736464,41.3539844 25.2725385,41.3539844 C24.8113744,41.3539844 24.3509006,41.1765869 23.9988143,40.827314 Z M38.2691508,40.8093671 C37.5649781,40.1046089 37.5615263,38.9608436 38.2691508,38.2567756 C38.9733236,37.5492563 40.1179494,37.5492563 40.8221222,38.2540145 C41.5297467,38.9608436 41.5297467,40.1046089 40.8248836,40.8093671 C40.4700358,41.1614011 40.0095621,41.3394889 39.5456365,41.3394889 C39.0851628,41.3394889 38.6212372,41.1614011 38.2691508,40.8093671 Z M21.4098749,36.9714374 L21.4098749,36.9741984 C21.0274124,36.0526977 21.4609619,34.9938347 22.3819094,34.6114292 C23.3035472,34.2262626 24.3604967,34.6625086 24.7457206,35.5840093 C25.128183,36.5048198 24.6946336,37.561612 23.7729957,37.9460884 C23.5444848,38.0399641 23.3097605,38.0848312 23.0777977,38.0848312 C22.3701732,38.0848312 21.699138,37.666532 21.4098749,36.9714374 Z M41.0448341,37.9285557 C40.1211251,37.5461501 39.6841238,36.4900482 40.0665863,35.5685475 C40.4490487,34.647737 41.5053078,34.2108007 42.4269456,34.5904452 C43.3478931,34.9728507 43.7848944,36.0289527 43.4017416,36.9504534 C43.1159303,37.645548 42.4448951,38.0672985 41.7345091,38.0672985 C41.5053078,38.0672985 41.2705836,38.0217411 41.0448341,37.9285557 Z M20.497557,32.4200521 C20.497557,31.4233128 21.3045941,30.6136346 22.3007915,30.6108736 C23.2976791,30.6108736 24.1102392,31.4177907 24.1102392,32.4138398 C24.1130007,33.4105791 23.3066539,34.2230183 22.3104566,34.2230183 C21.3101171,34.2264697 20.5003184,33.4188623 20.497557,32.4200521 Z M40.6926096,32.3989301 L40.6926096,32.3747709 L40.6926096,32.3630364 C40.6898482,31.3662971 41.4934335,30.5538579 42.4930827,30.5504065 C43.48928,30.5448844 44.3025304,31.3511113 44.3052919,32.3478507 L44.3052919,32.3775319 L44.3052919,32.3989301 L44.3080534,32.3989301 C44.3080534,33.3949792 43.4982547,34.2018963 42.4992959,34.2018963 C41.5024083,34.2018963 40.6926096,33.3949792 40.6926096,32.3989301 Z M22.3732798,30.2224627 C21.451642,29.8435085 21.0118792,28.7894773 21.3915802,27.8659058 C21.7712812,26.9444051 22.8275403,26.5047077 23.7519396,26.8843522 C24.6735774,27.2639967 25.1126498,28.3200987 24.7336392,29.2409091 C24.4443761,29.9401453 23.7726505,30.3612055 23.0629549,30.3612055 C22.8337536,30.3612055 22.5990293,30.3163385 22.3732798,30.2224627 Z M40.0513982,29.1961801 C39.6689358,28.2746794 40.0997238,27.2158164 41.0206713,26.8299595 C41.9423091,26.4447929 42.9985682,26.8782779 43.3837921,27.7990884 C43.7697064,28.7171378 43.3389184,29.7773813 42.4179709,30.1625479 C42.1887696,30.2584944 41.9540453,30.3040518 41.7193211,30.3040518 C41.014458,30.3040518 40.3434228,29.8885136 40.0513982,29.1961801 Z M23.9717519,26.5562013 C23.2641274,25.8521334 23.2613659,24.7076778 23.9627772,24.0008488 L23.9627772,24.0036098 C24.6676403,23.2960905 25.8108854,23.2933295 26.51851,23.9946364 C27.2268249,24.6987044 27.228896,25.8424697 26.5247233,26.549989 C26.1726369,26.9054743 25.7094017,27.0828718 25.2454761,27.0828718 C24.784312,27.0828718 24.3238383,26.9082353 23.9717519,26.5562013 Z M38.2450571,26.5141643 C37.5374325,25.8128574 37.5312192,24.6690921 38.2360823,23.9615728 C38.9374936,23.2512925 40.0814291,23.2478412 40.7890537,23.9525994 C41.4966782,24.6539063 41.5022012,25.7976716 40.7980284,26.5051909 C40.4459421,26.859986 39.9820165,27.0380737 39.5187813,27.0380737 C39.0576172,27.0380737 38.5971435,26.8634373 38.2450571,26.5141643 Z M26.8438792,23.7747187 C26.4614168,22.8539082 26.8949662,21.797116 27.8131523,21.4119494 C28.7347901,21.0267828 29.794501,21.4602678 30.1797249,22.3810783 C30.5621874,23.302579 30.1286379,24.358681 29.2076904,24.7445378 C28.9819409,24.8404843 28.7437649,24.8825904 28.5118021,24.8825904 C27.8041775,24.8825904 27.1331423,24.4670522 26.8438792,23.7747187 Z M35.5504918,24.7259697 C34.6267829,24.3435642 34.1870201,23.2902233 34.5660307,22.3687226 C34.9450413,21.4451511 35.9992293,21.0054537 36.9236286,21.3844079 C37.8445761,21.7612914 38.2871003,22.8173933 37.9080897,23.7416551 C37.6215881,24.4367497 36.9477914,24.8612612 36.2339536,24.8612612 C36.0047522,24.8612612 35.7734798,24.8163942 35.5504918,24.7259697 Z M30.5650869,22.3058396 C30.5623255,21.3097905 31.3686723,20.4966611 32.3648696,20.4939 C33.3652091,20.491139 34.1750077,21.2973658 34.1777692,22.2968662 C34.1805306,23.2929153 33.3741838,24.1032838 32.3772962,24.1060448 L32.3717732,24.1060448 C31.377647,24.1060448 30.5678484,23.302579 30.5650869,22.3058396 Z M32.8350775,46.8655251 C32.681126,45.8812105 33.355613,44.9541876 34.3400741,44.8009493 C35.3245352,44.6470207 36.2489345,45.3214074 36.402886,46.305722 C36.5589086,47.2927977 35.8851119,48.2170595 34.897199,48.3702978 C34.8039997,48.3861739 34.71011,48.391696 34.617601,48.391696 C33.7442887,48.391696 32.9738409,47.7566543 32.8350775,46.8655251 Z M29.8424814,48.3647067 C28.8580203,48.205256 28.1869851,47.2782332 28.3436981,46.2939186 C28.4997207,45.3096039 29.4268814,44.6379783 30.4120329,44.797429 C31.3992555,44.9541186 32.0702907,45.8811414 31.9108162,46.8654561 C31.7692913,47.7538242 31.001605,48.3861048 30.1282927,48.3861048 C30.0350934,48.3861048 29.9391326,48.3798925 29.8424814,48.3647067 Z M37.2845517,46.0289267 C36.8330527,45.1377975 37.1885909,44.051324 38.0798526,43.5998922 C38.9676626,43.1512214 40.0542978,43.5067067 40.5057967,44.3971456 C40.9572957,45.2848235 40.5996864,46.3719873 39.7111861,46.8234191 C39.4488473,46.9559495 39.1727011,47.0194537 38.8979357,47.0194537 C38.2393271,47.0194537 37.600739,46.654995 37.2845517,46.0289267 Z M25.0346385,46.7902865 C24.1468286,46.3326423 23.7975037,45.2461688 24.2517641,44.3578007 C24.706715,43.4701228 25.7961116,43.1180888 26.6839215,43.575733 C27.5696604,44.0299259 27.9217467,45.1163994 27.4674863,46.0047675 C27.1450856,46.6308358 26.5127109,46.9890821 25.8561734,46.9890821 C25.5793369,46.9890821 25.296287,46.9228169 25.0346385,46.7902865 Z M41.2527031,43.8553584 C40.54784,43.1478391 40.5512918,42.0047641 41.2589164,41.3000059 C41.9630891,40.5952476 43.1070246,40.5986989 43.8118877,41.3027669 C44.5160605,42.0102862 44.5160605,43.1540515 43.8084359,43.8588097 C43.4563495,44.2108437 42.992424,44.3854802 42.5319502,44.3854802 C42.068715,44.3854802 41.6047895,44.2073924 41.2527031,43.8553584 Z M20.9520936,43.8103533 C20.244469,43.1062853 20.2472305,41.9618298 20.9520936,41.2577618 C21.6597181,40.5536938 22.8036536,40.5536938 23.5078264,41.2605228 C24.2126895,41.9652811 24.2126895,43.1090464 23.5050649,43.8131144 C23.1529785,44.1658386 22.6897433,44.3404751 22.2285792,44.3404751 C21.7646537,44.3404751 21.3048703,44.1658386 20.9520936,43.8103533 Z M44.356448,40.559492 C43.468638,40.1018478 43.1193131,39.0146841 43.576335,38.1270062 C44.0312859,37.2393284 45.1213729,36.8900554 46.0091828,37.3442483 C46.8949216,37.8018925 47.247008,38.8918173 46.7892957,39.7767341 C46.4703469,40.4000413 45.8379722,40.7575974 45.1814347,40.7575974 C44.9045981,40.7575974 44.6215483,40.6947835 44.356448,40.559492 Z M17.9808988,39.7196494 C17.5293999,38.8285202 17.8842477,37.7420467 18.7755094,37.2906149 C19.6640097,36.8391831 20.7506449,37.1939781 21.2021439,38.0851073 C21.6536429,38.9734754 21.2987951,40.0599489 20.4102948,40.5113807 C20.1479559,40.6432209 19.8683579,40.7067251 19.5942828,40.7067251 C18.9349839,40.7067251 18.2998477,40.3457177 17.9808988,39.7196494 Z M46.2983078,36.468443 C45.3138467,36.3089923 44.645573,35.3819694 44.802286,34.3976548 C44.9617604,33.4133402 45.8889211,32.7451659 46.8733822,32.9011652 C47.8578433,33.0613062 48.5288785,33.988329 48.3694041,34.9726437 C48.2251177,35.8603215 47.4601928,36.4926022 46.5903324,36.4926022 C46.4936813,36.4926022 46.3977205,36.4836287 46.2983078,36.468443 Z M16.4303381,34.9063784 C16.2736251,33.9220638 16.9481122,32.997802 17.9325733,32.8411124 C18.9197958,32.6878741 19.8441951,33.3622607 19.9981466,34.3465754 C20.1514077,35.3336511 19.4796822,36.2544615 18.4959114,36.4111512 C18.3992603,36.4263369 18.3053706,36.4325493 18.2128616,36.4325493 C17.3395494,36.4325493 16.5691015,35.7975076 16.4303381,34.9063784 Z M44.8109846,30.4722688 C44.8109846,30.4632954 44.8082231,30.4515609 44.8082231,30.4418972 C44.8047713,30.4363751 44.8047713,30.4274017 44.8020098,30.4211894 C44.6452969,29.4368747 45.3170224,28.5098519 46.3014835,28.3531623 C47.2887061,28.1964726 48.2131054,28.8680983 48.369128,29.8524129 C48.3725798,29.8641473 48.3760316,29.8765721 48.3760316,29.8883065 C48.3787931,29.8979702 48.3787931,29.9097047 48.3815545,29.9186781 C48.5348157,30.9029927 47.8575672,31.8265642 46.8737965,31.9804928 C46.7799068,31.9929176 46.683946,32.0012007 46.5935081,32.0012007 C45.7174344,32.0012007 44.949748,31.363398 44.8109846,30.4722688 Z M17.9294666,31.9203019 C16.9450055,31.7636123 16.2739703,30.8365895 16.4306833,29.8522748 C16.5867059,28.8679602 17.5138666,28.1935735 18.4990181,28.3530242 C19.4827888,28.5097138 20.1545144,29.4339756 19.9978014,30.4210513 L19.9978014,30.4182903 C19.8562765,31.3094194 19.0885902,31.9410098 18.2152779,31.9410098 C18.1227689,31.9410098 18.0261178,31.9354877 17.9294666,31.9203019 Z M43.5888307,26.6887318 C43.1373317,25.7976026 43.489418,24.7111291 44.3779183,24.256246 C45.2657283,23.8048142 46.3558153,24.1575384 46.8073143,25.0452163 C47.2615747,25.9328941 46.9094883,27.0228189 46.0216784,27.4742508 C45.7565781,27.6095422 45.4762897,27.6730464 45.1994532,27.6730464 C44.5429157,27.6730464 43.9077795,27.3113487 43.5888307,26.6887318 Z M18.7847603,27.4741817 C17.8997119,27.0199889 17.5476255,25.9328251 18.001886,25.0451472 C18.4561464,24.1567791 19.5434719,23.8054354 20.4312819,24.2596283 C21.3197822,24.7138211 21.6718685,25.8002946 21.2176081,26.6886628 C20.8979689,27.314731 20.2628327,27.6729774 19.6062952,27.6729774 C19.3294587,27.6729774 19.0498607,27.6094732 18.7847603,27.4741817 Z M41.2796964,23.5160773 C40.5720718,22.8120093 40.5720718,21.6675537 41.2769349,20.9634857 C41.9811077,20.2559665 43.1250432,20.2559665 43.8326677,20.9607247 C44.5368405,21.6620316 44.5402923,22.8057969 43.8354292,23.5133162 C43.4805814,23.8653502 43.0201076,24.0427477 42.5561821,24.0427477 C42.0957083,24.0427477 41.6317827,23.8681112 41.2796964,23.5160773 Z M20.9732878,23.5131091 C20.269115,22.8055898 20.269115,21.6618245 20.9732878,20.9577566 C21.6809123,20.2529983 22.8248478,20.2529983 23.5290206,20.9577566 C24.2338837,21.6618245 24.2338837,22.8055898 23.5290206,23.5131091 C23.1769342,23.8651431 22.713699,24.0397796 22.2525349,24.0397796 C21.7892997,24.0397796 21.328826,23.8651431 20.9732878,23.5131091 Z M38.1003565,21.2072865 C37.2125466,20.7524034 36.8570084,19.6659299 37.3119592,18.778252 C37.7662196,17.8898839 38.8528548,17.5350889 39.7413551,17.9892818 C40.629165,18.4434746 40.9812514,19.5306384 40.5297524,20.4183162 C40.2108036,21.0450748 39.5756674,21.4060822 38.9198203,21.4060822 C38.6422934,21.4060822 38.362005,21.342578 38.1003565,21.2072865 Z M24.2728203,20.4156933 C23.8213213,19.5245641 24.1761691,18.4380906 25.0646694,17.9866588 C25.9559312,17.5352269 27.0425664,17.8872609 27.4940654,18.7783901 C27.9455643,19.6660679 27.593478,20.7525415 26.7022162,21.2039733 C26.4405677,21.3392648 26.1609697,21.4027689 25.8862043,21.4027689 C25.2269053,21.4027689 24.5924595,21.0417615 24.2728203,20.4156933 Z M28.3733148,18.4949682 C28.2166018,17.5106536 28.8883274,16.5836308 29.8755499,16.4303924 C30.860011,16.2737028 31.7844103,16.9453284 31.9411233,17.9324041 C32.0971459,18.9167187 31.4261107,19.8409805 30.4388881,19.9969799 C30.3449984,20.0121657 30.2490376,20.018378 30.1558383,20.018378 C29.282526,20.018378 28.5148397,19.3860974 28.3733148,18.4949682 Z M34.3674126,19.9941498 L34.3674126,19.9913888 C33.3829515,19.8374602 32.7084645,18.9104373 32.8651774,17.9261227 C33.0218904,16.9418081 33.9455993,16.2674214 34.9300604,16.424111 C35.9172829,16.5808007 36.5890085,17.5043722 36.4329859,18.4893771 C36.2942225,19.379816 35.5237747,20.015548 34.649772,20.015548 C34.5572631,20.015548 34.4640637,20.0093356 34.3674126,19.9941498 Z M30.6100987,51.0256004 C30.6100987,50.0295513 31.4171359,49.2191829 32.4167851,49.2164219 C33.4129824,49.2164219 34.222781,50.0261 34.222781,51.0228394 C34.222781,52.0188885 33.4157438,52.8285667 32.4195465,52.832018 C31.4198974,52.832018 30.6135506,52.0223398 30.6100987,51.0256004 Z M26.1033242,51.8413529 C25.1547621,51.534186 24.6342266,50.517429 24.9414392,49.5655567 C25.2479615,48.617826 26.2690119,48.0973679 27.217574,48.4038446 L27.217574,48.4066056 C28.1654457,48.7110115 28.6866716,49.7312198 28.379459,50.6796408 C28.1323082,51.4437616 27.4219222,51.928326 26.6604491,51.928326 C26.4768119,51.928326 26.2897229,51.9014058 26.1033242,51.8413529 Z M36.4536969,50.6734284 C36.1437228,49.7250074 36.6642583,48.7047991 37.6128204,48.3976322 C38.5613825,48.0877043 39.5817426,48.6054013 39.8889552,49.5565833 C40.1989293,50.5050043 39.6777034,51.5224515 38.7298317,51.8323795 C38.5461945,51.8924324 38.356344,51.9228039 38.1727068,51.9228039 C37.4112337,51.9228039 36.7008477,51.4347882 36.4536969,50.6734284 Z M20.4073262,48.9425946 C19.600289,48.3558713 19.4201036,47.2266015 20.0069143,46.4203747 C20.5909634,45.6106965 21.7231627,45.4326087 22.5295095,46.016571 L22.5295095,46.0200223 C23.3365467,46.6039846 23.5139706,47.7353252 22.9299215,48.5422423 C22.5750736,49.0268067 22.024162,49.2856552 21.4670371,49.2856552 C21.0970013,49.2856552 20.726275,49.1745229 20.4073262,48.9425946 Z M41.8997826,48.5272636 C41.312972,47.7203465 41.4903959,46.5917669 42.2974331,46.0015923 L42.2974331,46.0050436 C43.1037799,45.41763 44.2332177,45.5922665 44.8200284,46.3991836 C45.406839,47.2061007 45.2294151,48.3374413 44.4258297,48.9248549 C44.103429,49.1560929 43.7299413,49.2706765 43.3626669,49.2706765 C42.8027806,49.2706765 42.2553208,49.011828 41.8997826,48.5272636 Z M15.882326,44.4303473 C15.2955154,43.6234302 15.4729393,42.4948506 16.277215,41.904676 C17.0835619,41.3179527 18.2123093,41.4953502 18.8025718,42.3022673 C19.3893824,43.1064234 19.2119585,44.237764 18.4083731,44.8251775 C18.0859725,45.0591766 17.7124848,45.1709992 17.3452104,45.1709992 C16.7887758,45.1709992 16.2378642,44.9149117 15.882326,44.4303473 Z M46.41567,44.8036413 C45.6086328,44.216918 45.4312089,43.0876482 46.0187098,42.2814214 C46.6055205,41.4745043 47.7342679,41.2936554 48.5413051,41.881069 C49.3476519,42.4677923 49.5257662,43.5998232 48.9382652,44.40605 C48.5861789,44.8906145 48.0352672,45.1501532 47.4781423,45.1501532 C47.1081065,45.1501532 46.7380706,45.0355696 46.41567,44.8036413 Z M12.9711241,38.7381648 L12.9711241,38.7416161 C12.66115,37.7931952 13.1789241,36.7729869 14.1274862,36.4623686 C15.0753579,36.1524407 16.0964083,36.670828 16.4063824,37.6185587 C16.713595,38.5669797 16.1951306,39.587188 15.2472589,39.8971159 C15.0601698,39.957859 14.8737712,39.9875403 14.6873725,39.9875403 C13.9252091,39.9875403 13.2182749,39.5029759 12.9711241,38.7381648 Z M49.5679475,39.8701266 C48.6193854,39.5629597 48.0988499,38.5427514 48.408824,37.5943305 C48.7160366,36.6465998 49.7336352,36.1254514 50.6849588,36.4353794 C51.6328305,36.7425463 52.1540564,37.7599935 51.8440823,38.7111755 C51.5969315,39.4725353 50.889307,39.9570997 50.1278339,39.9570997 C49.9407449,39.9570997 49.7543462,39.9301795 49.5679475,39.8701266 Z M11.9656068,32.4288875 C11.9656068,31.4328384 12.772644,30.62247 13.7688413,30.6197089 C14.765729,30.6197089 15.5782891,31.426626 15.5782891,32.4226751 C15.5810506,33.4228658 14.7712519,34.2318537 13.7750546,34.2318537 C12.7754055,34.235305 11.9683683,33.4256269 11.9656068,32.4288875 Z M49.2245598,32.3989301 C49.2245598,32.3871956 49.2280116,32.3775319 49.2280116,32.3685585 C49.2280116,32.3595851 49.2245598,32.3506117 49.2245598,32.3450896 C49.2217983,31.3455892 50.0281451,30.535911 51.0277943,30.5324597 C52.0246819,30.5269376 52.837242,31.3331645 52.8406939,32.3326649 L52.8406939,32.3685585 L52.8406939,32.3989301 C52.8406939,33.3949792 52.0302049,34.2018963 51.0340075,34.2018963 C50.0343584,34.2018963 49.2245598,33.3949792 49.2245598,32.3989301 Z M14.1150596,28.389332 C13.163736,28.0821651 12.6432005,27.0654081 12.9504131,26.1169872 C13.2569353,25.1658052 14.274534,24.6453471 15.2230961,24.9518237 C16.1744196,25.2589906 16.6949552,26.2764379 16.3884329,27.2241686 C16.1412821,27.9889797 15.4308961,28.4763051 14.669423,28.4763051 C14.4850954,28.4763051 14.2986968,28.4493849 14.1150596,28.389332 Z M48.393705,27.149137 C48.0802791,26.2014063 48.5987435,25.1805077 49.5438538,24.8705798 C50.4951773,24.5606518 51.512776,25.0748976 51.8255115,26.0233185 C52.1361759,26.9717395 51.6177115,27.9919478 50.6698398,28.3018757 C50.4827508,28.3653799 50.2935906,28.3923002 50.1065016,28.3923002 C49.34779,28.3923002 48.6436173,27.9104968 48.393705,27.149137 Z M16.2498075,22.9381203 C15.4400089,22.354158 15.2591332,21.2255785 15.8459438,20.4159003 C16.4334447,19.608293 17.5621922,19.4281344 18.3692294,20.0120966 C19.1762666,20.5988199 19.356452,21.7280898 18.7724028,22.5377679 C18.4168646,23.0223323 17.865953,23.2811809 17.306757,23.2811809 C16.9394826,23.2811809 16.5687564,23.1700486 16.2498075,22.9381203 Z M45.9881957,22.4712956 C45.3979333,21.6678298 45.5725957,20.535799 46.3761811,19.9490757 C47.1839086,19.358901 48.3126561,19.5335375 48.9029185,20.3370033 C49.4924906,21.1411594 49.3178281,22.2731902 48.510791,22.8626746 C48.1890807,23.0973639 47.815593,23.2119475 47.4455571,23.2119475 C46.8884322,23.2119475 46.3402821,22.95586 45.9881957,22.4712956 Z M19.9616263,18.4137933 C19.3748157,17.6068762 19.5494781,16.4782967 20.3565153,15.8915734 C21.1601007,15.3013987 22.2916096,15.4760352 22.8791106,16.2829523 C23.4686826,17.0891792 23.2912587,18.218449 22.4876734,18.8079333 L22.4876734,18.8051723 C22.1652727,19.0398616 21.791785,19.1544452 21.4217492,19.1544452 C20.8646243,19.1544452 20.3171645,18.8983577 19.9616263,18.4137933 Z M42.2551827,18.7600981 C41.4453841,18.1761359 41.2645083,17.0475563 41.8485575,16.2371879 C42.4360585,15.4302708 43.5648059,15.2466609 44.3711528,15.8340745 C45.1816418,16.4180367 45.3618271,17.5473065 44.7750165,18.3562944 C44.4222398,18.8443102 43.8720186,19.1031587 43.3121322,19.1031587 C42.9448578,19.1031587 42.5741316,18.9920264 42.2551827,18.7600981 Z M24.8870384,15.2502503 C24.5770643,14.3018293 25.0948384,13.281621 26.0434005,12.9716931 C26.9912722,12.6610748 28.0123227,13.1794621 28.3222968,14.1271928 C28.6322708,15.0756138 28.1144968,16.0958221 27.1659347,16.4064403 C26.979536,16.4664932 26.7896855,16.4961745 26.6060483,16.4961745 C25.8445753,16.4961745 25.1369507,16.01161 24.8870384,15.2502503 Z M37.5618024,16.381936 C36.6132403,16.0747691 36.0920144,15.0573218 36.3964656,14.1095911 C36.7036782,13.1584091 37.7185154,12.6372608 38.6698389,12.9416666 C39.6211625,13.2481433 40.141698,14.2655905 39.8344854,15.2140115 C39.5873346,15.9815836 38.8804004,16.4689091 38.1154755,16.4689091 C37.9318383,16.4689091 37.7454396,16.4419889 37.5618024,16.381936 Z M30.550106,13.7751589 C30.550106,12.7756584 31.3571432,11.9659803 32.3533405,11.9632192 C33.3529896,11.9632192 34.1627883,12.766685 34.1655497,13.7661854 C34.1655497,14.7622345 33.3585125,15.5719127 32.3623152,15.575364 C31.3661179,15.5781251 30.5528674,14.7718982 30.550106,13.7751589 Z M49.710577,14.9830496 L49.7685677,15.0410316 C50.4154401,15.6850468 50.4168209,16.7356266 49.7713292,17.383093 C49.4579033,17.6964723 49.0423033,17.869038 48.6011598,17.869038 C48.161397,17.869038 47.7444163,17.6964723 47.4282289,17.383093 C46.7827373,16.7383877 46.7827373,15.6891883 47.4282289,15.0437927 C47.7409645,14.7297232 48.1565645,14.5571575 48.5990887,14.5571575 L48.6004694,14.5571575 C49.0139983,14.5571575 49.4047451,14.7076348 49.710577,14.9830496 Z M36.255493,8.14434075 C37.1564198,8.2879154 37.7729162,9.13831906 37.6293202,10.0404924 C37.5057448,10.8363653 36.8043335,11.4362036 35.998677,11.4362036 C35.9179043,11.4362036 35.8343701,11.429301 35.7363382,11.4141152 C35.3000272,11.3464695 34.916184,11.1110899 34.6559163,10.7535338 C34.3949581,10.3952875 34.2900226,9.9576609 34.3590591,9.52141487 C34.5033455,8.61855124 35.3545661,8.00214663 36.255493,8.14434075 Z M58.9090059,22.6112809 C59.2673056,22.79282 59.5337867,23.1041285 59.6594332,23.486534 C59.7836989,23.8668688 59.7526325,24.2734335 59.5710664,24.6309896 C59.3895003,24.9899262 59.0781455,25.2570579 58.6970638,25.3819954 C57.8872651,25.6429147 57.0491615,25.1887219 56.7992492,24.4197692 L56.7992492,24.4176984 C56.6729123,24.0359831 56.7039788,23.6287281 56.8855449,23.2697915 C57.067111,22.9122354 57.3770851,22.6464843 57.7602379,22.5229273 C57.913499,22.4725381 58.0722831,22.4476886 58.228996,22.4476886 C58.4630299,22.4476886 58.6943023,22.5029096 58.9090059,22.6112809 Z M17.2943995,11.6597797 C17.0362028,11.8482215 16.7296805,11.9476193 16.409351,11.9476193 C15.9212626,11.9476193 15.4766673,11.7232839 15.1894753,11.3312147 C14.7020773,10.6616598 14.8498155,9.71669019 15.5173989,9.22660366 C16.1877437,8.73858792 17.132854,8.88699441 17.6230134,9.55792977 C18.1117921,10.2267943 17.9647443,11.1696932 17.2943995,11.6597797 Z M49.2160683,9.17524812 C49.8877938,9.66395412 50.0376031,10.606853 49.5495148,11.2784786 C49.268536,11.6670965 48.8122045,11.8997151 48.3303294,11.8997151 C48.0127613,11.8997151 47.7076198,11.8010075 47.4466617,11.6139463 C46.7756265,11.1252403 46.6258172,10.1823414 47.1139056,9.51209632 C47.6013035,8.83978044 48.5443427,8.68930316 49.2160683,9.17524812 Z M33.8646885,5.2332958 C33.8667596,6.06368185 33.1929629,6.74082957 32.3624533,6.74359062 C31.5333244,6.74359062 30.8567663,6.06989421 30.8540048,5.24157895 C30.8540048,4.40981238 31.5291822,3.73335492 32.3603822,3.73335492 L32.3645244,3.73335492 C32.7649363,3.73335492 33.1404951,3.88866403 33.4242353,4.17167175 C33.7079755,4.4539892 33.8646885,4.8315629 33.8646885,5.2332958 Z M52.0293074,44.3054097 C51.2167473,43.88573 50.8943466,42.8862296 51.3127081,42.0758612 C51.5136044,41.6824114 51.856716,41.3911205 52.2785293,41.255829 C52.6996522,41.1205376 53.1483897,41.1571215 53.5425884,41.3586782 C53.9354063,41.5595446 54.2267405,41.9026052 54.3613618,42.3229752 C54.4973638,42.7440355 54.460084,43.1940867 54.2571166,43.5882268 C53.972686,44.143198 53.4079671,44.4876391 52.7831864,44.4876391 C52.5249898,44.4876391 52.2716256,44.4262057 52.0293074,44.3054097 Z M49.5923865,53.4816242 C50.0797845,54.1518693 49.9320463,55.0961487 49.2651533,55.585545 C49.0055759,55.7726062 48.6983632,55.872004 48.378724,55.872004 C47.8906357,55.872004 47.44535,55.6455978 47.1588483,55.2521481 C46.922053,54.9284149 46.8260922,54.5315138 46.8889155,54.1346127 C46.9510483,53.7370214 47.1650616,53.3877485 47.4902237,53.1502981 C47.7504915,52.9611661 48.0570138,52.8617683 48.3725108,52.8617683 C48.4519028,52.8617683 48.5306044,52.8679807 48.6099965,52.8804054 C49.0069566,52.942529 49.3555911,53.1565105 49.5923865,53.4816242 Z M58.7114234,39.358711 C59.4998207,39.6141082 59.9333702,40.4652021 59.6765542,41.2555529 C59.4756579,41.8781699 58.8998931,42.2964691 58.244046,42.2964691 C58.0914752,42.2964691 57.9313104,42.2702391 57.7808108,42.2212305 L57.7801204,42.2205402 C56.9903424,41.965143 56.5561025,41.1154296 56.8115377,40.3278399 C57.0186473,39.6914176 57.613052,39.2855432 58.2495689,39.2855432 C58.40283,39.2855432 58.5581622,39.3090121 58.7114234,39.358711 Z M55.5459598,53.7041649 C56.073399,54.2342867 56.0740894,55.094354 55.5494116,55.6189537 C55.2891439,55.8750411 54.9481034,56.016545 54.5898037,56.016545 C54.2266715,56.016545 53.8863213,55.8757314 53.6301958,55.6196439 C53.1020662,55.0895222 53.1027566,54.2294548 53.6322669,53.7020941 C54.159706,53.1754237 55.0178303,53.1768042 55.5459598,53.7041649 Z M62.1071928,37.1636756 C62.226626,36.426475 62.9225144,35.9218929 63.6591343,36.0385473 C64.3957542,36.1552017 64.9004113,36.8530573 64.7830492,37.5923287 C64.678804,38.2418659 64.10442,38.7319525 63.4465017,38.7319525 C63.3829881,38.7319525 63.3104997,38.7257401 63.2311077,38.7133154 C62.4944878,38.5932096 61.9905211,37.8981151 62.1071928,37.1636756 Z M29.0480779,53.3749096 C29.4843889,53.4439359 29.8682321,53.6800057 30.1271191,54.0382521 C30.3860061,54.3964984 30.4902513,54.834125 30.4191437,55.270371 C30.2907357,56.0793589 29.6038221,56.6667725 28.7857391,56.6667725 C28.706347,56.6667725 28.6179803,56.6591796 28.5227098,56.6439938 C27.6224733,56.5011094 27.005977,55.6507058 27.1488826,54.7492227 C27.2952401,53.8484298 28.1471511,53.2334057 29.0480779,53.3749096 Z M42.0162473,51.3436735 C42.8308785,50.9308964 43.8298372,51.2567004 44.2433661,52.0691396 C44.4435721,52.4646601 44.4780904,52.9133309 44.3407076,53.3337009 C44.2033249,53.7540709 43.9099196,54.0964412 43.5150306,54.2959271 C43.2830678,54.4132718 43.0241808,54.4753954 42.7666745,54.4753954 C42.1384419,54.4753954 41.5716519,54.127503 41.2879117,53.5677 C40.891642,52.7814907 41.1822858,51.8240963 41.9320227,51.3864698 L42.0162473,51.3436735 Z M15.0164697,49.7333596 C14.7037342,49.4206706 14.5318332,49.0051324 14.5325235,48.562674 C14.5332139,48.1209059 14.7058053,47.706058 15.0199215,47.393369 C15.330586,47.08068 15.7448052,46.9088046 16.1866391,46.9081143 L16.1880198,46.9081143 C16.6305441,46.9081143 17.0461441,47.08068 17.35957,47.393369 C18.0029905,48.0394549 18.0029905,49.090725 17.35957,49.7361207 C17.0454537,50.0474291 16.6298537,50.2186143 16.1894006,50.2186143 C15.746186,50.2186143 15.3292052,50.0467389 15.0164697,49.7333596 Z M11.4193207,35.6971434 C11.5601552,36.5979362 10.9408974,37.4469594 10.0392802,37.590534 C9.95919779,37.6029588 9.87566357,37.6091711 9.78246424,37.6091711 C8.96369085,37.6091711 8.27539652,37.0210673 8.14629818,36.2106989 C8.00546364,35.309906 8.62472142,34.4608829 9.52633867,34.3173082 C10.4258848,34.1778752 11.2757247,34.7963506 11.4193207,35.6971434 Z M53.3893963,29.1188707 L53.2409677,29.1416494 L53.3880156,29.1147291 L53.3880156,29.0774549 L53.3824926,29.0664107 C53.2430388,28.1683789 53.8588448,27.3234974 54.7577006,27.180613 C55.6593178,27.0384189 56.5105384,27.6541332 56.6513729,28.5307669 C56.6513729,28.5542358 56.6555151,28.5749437 56.658967,28.5908197 L56.6658706,28.6294744 C56.7273131,29.0588178 56.6203065,29.487471 56.3634906,29.8388147 C56.1025324,30.1956805 55.7173085,30.4303699 55.2789265,30.4987059 C55.1981537,30.5111306 55.1146195,30.517343 55.0228009,30.517343 C54.2019564,30.517343 53.5157332,29.9292391 53.3893963,29.1188707 Z M12.7638073,20.5103283 C13.5749867,20.9272469 13.896697,21.9253668 13.481097,22.7371158 C13.1973568,23.2934675 12.6326379,23.6399794 12.0078572,23.6399794 C11.7455183,23.6399794 11.4845602,23.5764753 11.2546685,23.4577501 L11.2539781,23.4570598 C10.8604699,23.2561934 10.5684453,22.9131328 10.4324433,22.4927628 C10.2964413,22.0723928 10.3330307,21.6244123 10.533927,21.2309625 C10.8273323,20.6580445 11.4093104,20.3287892 12.0119994,20.3287892 C12.2660539,20.3287892 12.5228698,20.3874615 12.7638073,20.5103283 Z M23.4942952,11.2365106 C23.9078241,12.0489499 23.5819716,13.0470697 22.7673404,13.4612274 C22.5346873,13.5820233 22.2820135,13.6427665 22.0176036,13.6427665 C21.3914421,13.6427665 20.8260328,13.2962546 20.5409119,12.737832 C20.1287638,11.923322 20.4539259,10.9245119 21.2671763,10.5110445 C21.6620654,10.3101781 22.1114933,10.2756649 22.5333065,10.4130272 C22.9530487,10.5503895 23.2947796,10.8423706 23.4942952,11.2365106 Z M33.9217126,59.5562812 C33.9217126,60.385977 33.2465353,61.061054 32.4153353,61.061054 L32.4111931,61.061054 C32.0121619,61.061054 31.6366031,60.9057448 31.3535533,60.6234274 C31.067742,60.3397294 30.911029,59.9614654 30.911029,59.5590423 C30.911029,58.7300368 31.5868968,58.0542696 32.416716,58.0515085 C33.2465353,58.0515085 33.9217126,58.7265854 33.9217126,59.5562812 Z M15.5656554,55.601352 C15.2404933,55.3645919 15.02648,55.0160092 14.9629664,54.6191081 C14.8994528,54.2215168 14.9954136,53.8246157 15.2315185,53.499502 C15.7209876,52.8278764 16.6633364,52.6780894 17.3343716,53.1654149 C18.0054068,53.6541209 18.1559065,54.5970197 17.6671278,55.2686453 C17.3833876,55.6614048 16.9387922,55.8871207 16.4486328,55.8871207 C16.1283032,55.8871207 15.8224713,55.7884132 15.5656554,55.601352 Z M8.00042397,40.3513778 C8.25585918,41.1396578 7.82161932,41.9900615 7.0352931,42.2475295 C6.88341271,42.2965381 6.73084195,42.3200071 6.56791571,42.3200071 C5.91344929,42.3200071 5.33906526,41.9030884 5.13816892,41.2825422 L5.13747855,41.2818519 C4.87997225,40.4928817 5.312141,39.6410975 6.09984795,39.3829392 C6.25448981,39.3332403 6.41051239,39.3090811 6.56377352,39.3090811 C7.1851024,39.3090811 7.76569972,39.6956282 7.98592629,40.3058205 L8.00042397,40.3513778 Z M6.08852596,25.4632394 C5.29943828,25.2071519 4.86450806,24.3581287 5.12063364,23.5684682 C5.24213795,23.1860627 5.50654791,22.8747542 5.86484756,22.6911443 C6.08024158,22.5807023 6.31358509,22.524791 6.5489997,22.524791 C6.70502229,22.524791 6.86104487,22.5489502 7.01361563,22.5979588 C7.80270331,22.8540463 8.23901426,23.70445 7.98565015,24.4941105 C7.78199235,25.1174177 7.20622758,25.5357169 6.55245153,25.5357169 C6.39159638,25.5357169 6.2355738,25.5115577 6.08990669,25.4632394 L6.08852596,25.4632394 Z M38.6116411,63.2351744 C38.6675607,63.5920402 38.5805747,63.9495963 38.3672518,64.2415775 C38.1539288,64.5335586 37.8398126,64.7254516 37.4815129,64.7813629 C37.4035016,64.7937876 37.3337747,64.8 37.2695707,64.8 C36.6095814,64.8 36.0351974,64.3078427 35.9337136,63.6562347 C35.8184226,62.9162731 36.3244605,62.2218688 37.0631515,62.1065949 C37.41938,62.0499933 37.7776797,62.1355859 38.0697043,62.3488771 C38.3624192,62.5621683 38.5550312,62.8776183 38.6116411,63.2351744 Z M18.7111674,59.1758774 C19.3746086,59.5147964 19.6390185,60.3327578 19.3014298,60.9961002 C19.0667056,61.4523639 18.6034704,61.7353716 18.0919096,61.7353716 C17.877206,61.7353716 17.6700963,61.6856727 17.476794,61.5869651 C16.8112817,61.2439045 16.5468718,60.425253 16.8858412,59.763291 C17.2282625,59.0992583 18.0470359,58.8362682 18.7111674,59.1758774 Z M5.58076219,46.0224382 C5.91904125,46.689232 5.65256019,47.5065031 4.98773829,47.8447318 C4.7978878,47.9406783 4.58594561,47.9910675 4.37607452,47.9910675 C3.86175228,47.9910675 3.39713635,47.7080598 3.1644832,47.2504156 C3.00155696,46.9273726 2.97325198,46.5601529 3.08509118,46.2170923 C3.19762074,45.8726512 3.43786791,45.5930948 3.7616493,45.4288123 C4.08335958,45.26522 4.44994362,45.2369193 4.79374561,45.3494321 C5.13754759,45.4619449 5.41714559,45.7007758 5.58076219,46.0224382 Z M1.56822027,26.1140881 C2.30553054,26.2314327 2.8094973,26.925837 2.69213518,27.6623473 C2.58789,28.3243093 2.02524218,28.8047321 1.35627808,28.8047321 C1.27895716,28.8047321 1.20646879,28.7999003 1.14019371,28.7895464 C0.403573797,28.6715114 -0.100392963,27.9764169 0.0169691589,27.2378358 C0.0735791237,26.8795894 0.266881443,26.5655199 0.559596383,26.352919 C0.853001688,26.1410083 1.20992061,26.056106 1.56822027,26.1140881 Z M60.834159,16.8375784 C61.1793417,16.949401 61.4589397,17.1882319 61.6232466,17.5105846 C61.9608353,18.1773783 61.695735,18.9953397 61.0309131,19.3335684 C60.8376108,19.432276 60.6311915,19.4819749 60.4178686,19.4819749 C59.9056175,19.4819749 59.4423823,19.1982769 59.2097291,18.741323 C59.0447318,18.41828 59.0157364,18.0510603 59.1275756,17.7073094 C59.2394148,17.3635586 59.4782813,17.0840022 59.8013723,16.9197197 C59.9946746,16.8210121 60.2038553,16.7706229 60.4144168,16.7706229 C60.5552513,16.7706229 60.6967762,16.7927113 60.834159,16.8375784 Z M10.1921961,8.80078059 C10.5539476,8.80078059 10.8936074,8.94159419 11.1504233,9.19768165 C11.4058585,9.45307886 11.5473834,9.79199785 11.5480738,10.1530053 C11.5480738,10.5153932 11.4065489,10.856383 11.149733,11.113851 C10.892917,11.3706287 10.5525669,11.5114423 10.1921961,11.5114423 C9.83182537,11.5114423 9.49147521,11.3706287 9.23534964,11.113851 C8.70652972,10.5858 8.70652972,9.72573263 9.23534964,9.19699139 C9.49078485,8.94159419 9.83044464,8.80078059 10.1921961,8.80078059 Z M47.2967834,3.19025622 C47.9622956,3.53055574 48.2273959,4.34989758 47.8898073,5.01324005 C47.6543926,5.4695037 47.1904671,5.75320168 46.680287,5.75320168 C46.4655834,5.75320168 46.2577834,5.7028125 46.0637907,5.60410493 C45.3989688,5.26311515 45.1352492,4.44653436 45.474909,3.78250163 C45.8152592,3.1184689 46.6326518,2.85271775 47.2967834,3.19025622 Z M27.497172,2.70997142 C26.8282079,2.70997142 26.2662505,2.22816804 26.1613149,1.56482558 L26.1613149,1.56413531 C26.1040146,1.20795975 26.1903103,0.850403665 26.4029428,0.558422537 C26.6162657,0.265751145 26.930382,0.0731678478 27.2866106,0.0165663052 C27.3577182,0.00621236444 27.4274451,0 27.497172,0 C28.1537095,0 28.7336165,0.477661799 28.8392424,1.14169453 C28.9545334,1.8809659 28.4478052,2.57675072 27.697378,2.69340511 C27.6373162,2.70444932 27.5731122,2.70997142 27.497172,2.70997142 Z" id="path-3"></path>
        <filter x="-37.0%" y="-12.3%" width="174.1%" height="174.1%" filterUnits="objectBoundingBox" id="filter-5">
            <feOffset dx="0" dy="8" in="SourceAlpha" result="shadowOffsetOuter1"></feOffset>
            <feGaussianBlur stdDeviation="4" in="shadowOffsetOuter1" result="shadowBlurOuter1"></feGaussianBlur>
            <feColorMatrix values="0 0 0 0 0.254901961   0 0 0 0 0.623529412   0 0 0 0 0.847058824  0 0 0 0.08 0" type="matrix" in="shadowBlurOuter1" result="shadowMatrixOuter1"></feColorMatrix>
            <feOffset dx="0" dy="8" in="SourceAlpha" result="shadowOffsetOuter2"></feOffset>
            <feGaussianBlur stdDeviation="4" in="shadowOffsetOuter2" result="shadowBlurOuter2"></feGaussianBlur>
            <feColorMatrix values="0 0 0 0 0   0 0 0 0 0   0 0 0 0 0  0 0 0 0.08 0" type="matrix" in="shadowBlurOuter2" result="shadowMatrixOuter2"></feColorMatrix>
            <feMerge>
                <feMergeNode in="shadowMatrixOuter1"></feMergeNode>
                <feMergeNode in="shadowMatrixOuter2"></feMergeNode>
            </feMerge>
        </filter>
        <linearGradient x1="58.9640504%" y1="68.6354357%" x2="32.8588579%" y2="19.1695126%" id="linearGradient-6">
            <stop stop-color="#008ED1" offset="0%"></stop>
            <stop stop-color="#4300A3" offset="42.0400571%"></stop>
            <stop stop-color="#FF00CF" offset="100%"></stop>
        </linearGradient>
    </defs>
    <g id="Page-1" stroke="none" stroke-width="1" fill="none" fill-rule="evenodd">
        <g id="text-color" transform="translate(146.000000, 94.000000)">
            <g id="01">
                <g id="Group-4">
                    <g id="Card/UI/Container" transform="translate(0.000000, 36.000000)">
                        <g id="Mask">
                            <use fill="black" fill-opacity="1" filter="url(#filter-2)" xlink:href="#path-1"></use>
                            <rect stroke="#D9D9D9" stroke-width="0.5" stroke-linejoin="square" fill="#FFFFFF" fill-rule="evenodd" x="0.25" y="0.25" width="287.5" height="275.5" rx="4"></rect>
                        </g>
                        <g id="thumbs-up" stroke-width="1" fill-rule="evenodd" transform="translate(270.900000, -50.025000)"></g>
                    </g>
                    <g id="CTA" transform="translate(112.000000, 256.000000)" fill="#297DFD" font-family=".AppleSystemUIFont" font-size="15" font-weight="normal" line-spacing="24">
                        <text id="Go-to-Adobe">
                            <tspan x="0.36328125" y="15">Text Link</tspan>
                        </text>
                    </g>
                    <path d="M116.99,102 L114.65,102 L114.65,96.16 L107.71,96.16 L107.71,102 L105.37,102 L105.37,88.66 L107.71,88.66 L107.71,94.1 L114.65,94.1 L114.65,88.66 L116.99,88.66 L116.99,102 Z M124.25,102.24 C121.33,102.24 119.19,100.22 119.19,97.16 C119.19,94.36 121.23,92.1 124.09,92.1 C126.99,92.1 128.83,94.3 128.83,97.34 L128.83,97.86 L121.39,97.86 C121.55,99.3 122.63,100.52 124.45,100.52 C125.41,100.52 126.51,100.14 127.21,99.44 L128.17,100.82 C127.19,101.74 125.77,102.24 124.25,102.24 Z M126.81,96.36 C126.75,95.22 125.97,93.82 124.07,93.82 C122.29,93.82 121.45,95.2 121.37,96.36 L126.81,96.36 Z M138.93,102 L136.83,102 L136.83,100.94 C136.11,101.78 134.97,102.24 133.69,102.24 C132.13,102.24 130.35,101.16 130.35,99.04 C130.35,96.8 132.11,95.88 133.69,95.88 C135.01,95.88 136.11,96.3 136.83,97.12 L136.83,95.68 C136.83,94.56 135.89,93.88 134.57,93.88 C133.49,93.88 132.53,94.28 131.71,95.12 L130.83,93.66 C131.95,92.58 133.35,92.1 134.89,92.1 C137.05,92.1 138.93,93 138.93,95.58 L138.93,102 Z M134.53,100.8 C135.43,100.8 136.33,100.46 136.83,99.8 L136.83,98.32 C136.33,97.66 135.43,97.32 134.53,97.32 C133.35,97.32 132.45,98.02 132.45,99.06 C132.45,100.12 133.35,100.8 134.53,100.8 Z M150.55,102 L148.45,102 L148.45,100.68 C147.71,101.64 146.61,102.24 145.35,102.24 C142.89,102.24 141.07,100.36 141.07,97.16 C141.07,94.04 142.87,92.1 145.35,92.1 C146.57,92.1 147.69,92.64 148.45,93.68 L148.45,88.66 L150.55,88.66 L150.55,102 Z M145.97,100.38 C146.95,100.38 147.99,99.8 148.45,99.08 L148.45,95.26 C147.99,94.54 146.95,93.96 145.97,93.96 C144.29,93.96 143.23,95.3 143.23,97.16 C143.23,99.04 144.29,100.38 145.97,100.38 Z M155.37,102 L153.27,102 L153.27,88.66 L155.37,88.66 L155.37,102 Z M159.15,91.16 C158.43,91.16 157.85,90.58 157.85,89.86 C157.85,89.14 158.43,88.56 159.15,88.56 C159.87,88.56 160.45,89.14 160.45,89.86 C160.45,90.58 159.87,91.16 159.15,91.16 Z M160.19,102 L158.09,102 L158.09,92.34 L160.19,92.34 L160.19,102 Z M171.55,102 L169.45,102 L169.45,95.96 C169.45,94.44 168.67,93.96 167.49,93.96 C166.43,93.96 165.51,94.6 165.01,95.24 L165.01,102 L162.91,102 L162.91,92.34 L165.01,92.34 L165.01,93.64 C165.65,92.88 166.91,92.1 168.43,92.1 C170.51,92.1 171.55,93.22 171.55,95.2 L171.55,102 Z M178.75,102.24 C175.83,102.24 173.69,100.22 173.69,97.16 C173.69,94.36 175.73,92.1 178.59,92.1 C181.49,92.1 183.33,94.3 183.33,97.34 L183.33,97.86 L175.89,97.86 C176.05,99.3 177.13,100.52 178.95,100.52 C179.91,100.52 181.01,100.14 181.71,99.44 L182.67,100.82 C181.69,101.74 180.27,102.24 178.75,102.24 Z M181.31,96.36 C181.25,95.22 180.47,93.82 178.57,93.82 C176.79,93.82 175.95,95.2 175.87,96.36 L181.31,96.36 Z" id="The-Design-System" fill="#000000"></path>
                    <path d="M65.712,137 L60.21,137 L60.21,127.662 L61.372,127.662 L61.372,135.964 L65.712,135.964 L65.712,137 Z M70.178,137.168 C68.12,137.168 66.832,135.572 66.832,133.612 C66.832,131.652 68.12,130.07 70.178,130.07 C72.236,130.07 73.524,131.652 73.524,133.612 C73.524,135.572 72.236,137.168 70.178,137.168 Z M70.178,136.23 C71.62,136.23 72.418,134.998 72.418,133.612 C72.418,132.24 71.62,131.008 70.178,131.008 C68.736,131.008 67.938,132.24 67.938,133.612 C67.938,134.998 68.736,136.23 70.178,136.23 Z M76.282,137 L75.232,137 L75.232,130.238 L76.282,130.238 L76.282,131.316 C76.828,130.616 77.612,130.084 78.536,130.084 L78.536,131.162 C78.41,131.148 78.284,131.134 78.13,131.134 C77.472,131.134 76.59,131.666 76.282,132.212 L76.282,137 Z M82.918,137.168 C80.902,137.168 79.46,135.726 79.46,133.612 C79.46,131.652 80.86,130.07 82.792,130.07 C84.836,130.07 86.04,131.666 86.04,133.696 L86.04,133.962 L80.58,133.962 C80.664,135.236 81.546,136.3 83.002,136.3 C83.786,136.3 84.556,135.992 85.102,135.432 L85.606,136.118 C84.92,136.79 84.01,137.168 82.918,137.168 Z M85.004,133.178 C84.99,132.184 84.318,130.938 82.778,130.938 C81.336,130.938 80.622,132.156 80.566,133.178 L85.004,133.178 Z M96.946,137 L95.896,137 L95.896,132.408 C95.896,131.554 95.532,131.008 94.65,131.008 C93.95,131.008 93.208,131.498 92.858,132.044 L92.858,137 L91.808,137 L91.808,132.408 C91.808,131.554 91.458,131.008 90.562,131.008 C89.876,131.008 89.148,131.512 88.784,132.058 L88.784,137 L87.734,137 L87.734,130.238 L88.784,130.238 L88.784,131.218 C89.078,130.784 89.974,130.07 90.982,130.07 C92.004,130.07 92.592,130.63 92.788,131.33 C93.166,130.714 94.076,130.07 95.056,130.07 C96.288,130.07 96.946,130.756 96.946,132.114 L96.946,137 Z M103.204,129.272 C102.812,129.272 102.49,128.964 102.49,128.572 C102.49,128.18 102.812,127.858 103.204,127.858 C103.596,127.858 103.904,128.18 103.904,128.572 C103.904,128.964 103.596,129.272 103.204,129.272 Z M103.722,137 L102.672,137 L102.672,130.238 L103.722,130.238 L103.722,137 Z M109.154,137.168 C108.23,137.168 107.432,136.72 106.872,135.978 L106.872,139.576 L105.822,139.576 L105.822,130.238 L106.872,130.238 L106.872,131.246 C107.362,130.56 108.202,130.07 109.154,130.07 C110.932,130.07 112.164,131.414 112.164,133.612 C112.164,135.796 110.932,137.168 109.154,137.168 Z M108.888,136.23 C110.246,136.23 111.058,135.11 111.058,133.612 C111.058,132.114 110.246,131.008 108.888,131.008 C108.062,131.008 107.236,131.498 106.872,132.086 L106.872,135.138 C107.236,135.726 108.062,136.23 108.888,136.23 Z M115.986,137.168 C114.866,137.168 113.942,136.818 113.256,136.104 L113.788,135.348 C114.236,135.866 115.09,136.314 116.014,136.314 C117.05,136.314 117.624,135.824 117.624,135.152 C117.624,133.514 113.438,134.522 113.438,132.016 C113.438,130.952 114.334,130.07 115.944,130.07 C117.106,130.07 117.918,130.504 118.45,131.05 L117.96,131.778 C117.554,131.288 116.826,130.924 115.944,130.924 C115.02,130.924 114.446,131.386 114.446,131.988 C114.446,133.458 118.632,132.492 118.632,135.124 C118.632,136.258 117.722,137.168 115.986,137.168 Z M125.954,137 L124.904,137 L124.904,136.048 C124.386,136.636 123.504,137.168 122.496,137.168 C121.082,137.168 120.34,136.468 120.34,135.012 L120.34,130.238 L121.39,130.238 L121.39,134.69 C121.39,135.88 121.992,136.23 122.916,136.23 C123.728,136.23 124.512,135.754 124.904,135.208 L124.904,130.238 L125.954,130.238 L125.954,137 Z M137.266,137 L136.216,137 L136.216,132.408 C136.216,131.554 135.852,131.008 134.97,131.008 C134.27,131.008 133.528,131.498 133.178,132.044 L133.178,137 L132.128,137 L132.128,132.408 C132.128,131.554 131.778,131.008 130.882,131.008 C130.196,131.008 129.468,131.512 129.104,132.058 L129.104,137 L128.054,137 L128.054,130.238 L129.104,130.238 L129.104,131.218 C129.398,130.784 130.294,130.07 131.302,130.07 C132.324,130.07 132.912,130.63 133.108,131.33 C133.486,130.714 134.396,130.07 135.376,130.07 C136.608,130.07 137.266,130.756 137.266,132.114 L137.266,137 Z M148.942,137 L147.892,137 L147.892,135.992 C147.388,136.678 146.562,137.168 145.61,137.168 C143.846,137.168 142.6,135.824 142.6,133.626 C142.6,131.456 143.846,130.07 145.61,130.07 C146.52,130.07 147.346,130.518 147.892,131.26 L147.892,127.662 L148.942,127.662 L148.942,137 Z M145.876,136.23 C146.702,136.23 147.528,135.74 147.892,135.152 L147.892,132.1 C147.528,131.512 146.702,131.008 145.876,131.008 C144.504,131.008 143.692,132.128 143.692,133.626 C143.692,135.124 144.504,136.23 145.876,136.23 Z M153.996,137.168 C151.938,137.168 150.65,135.572 150.65,133.612 C150.65,131.652 151.938,130.07 153.996,130.07 C156.054,130.07 157.342,131.652 157.342,133.612 C157.342,135.572 156.054,137.168 153.996,137.168 Z M153.996,136.23 C155.438,136.23 156.236,134.998 156.236,133.612 C156.236,132.24 155.438,131.008 153.996,131.008 C152.554,131.008 151.756,132.24 151.756,133.612 C151.756,134.998 152.554,136.23 153.996,136.23 Z M160.1,137 L159.05,137 L159.05,127.662 L160.1,127.662 L160.1,137 Z M165.154,137.168 C163.096,137.168 161.808,135.572 161.808,133.612 C161.808,131.652 163.096,130.07 165.154,130.07 C167.212,130.07 168.5,131.652 168.5,133.612 C168.5,135.572 167.212,137.168 165.154,137.168 Z M165.154,136.23 C166.596,136.23 167.394,134.998 167.394,133.612 C167.394,132.24 166.596,131.008 165.154,131.008 C163.712,131.008 162.914,132.24 162.914,133.612 C162.914,134.998 163.712,136.23 165.154,136.23 Z M171.258,137 L170.208,137 L170.208,130.238 L171.258,130.238 L171.258,131.316 C171.804,130.616 172.588,130.084 173.512,130.084 L173.512,131.162 C173.386,131.148 173.26,131.134 173.106,131.134 C172.448,131.134 171.566,131.666 171.258,132.212 L171.258,137 Z M180.61,137.168 C179.49,137.168 178.566,136.818 177.88,136.104 L178.412,135.348 C178.86,135.866 179.714,136.314 180.638,136.314 C181.674,136.314 182.248,135.824 182.248,135.152 C182.248,133.514 178.062,134.522 178.062,132.016 C178.062,130.952 178.958,130.07 180.568,130.07 C181.73,130.07 182.542,130.504 183.074,131.05 L182.584,131.778 C182.178,131.288 181.45,130.924 180.568,130.924 C179.644,130.924 179.07,131.386 179.07,131.988 C179.07,133.458 183.256,132.492 183.256,135.124 C183.256,136.258 182.346,137.168 180.61,137.168 Z M185.496,129.272 C185.104,129.272 184.782,128.964 184.782,128.572 C184.782,128.18 185.104,127.858 185.496,127.858 C185.888,127.858 186.196,128.18 186.196,128.572 C186.196,128.964 185.888,129.272 185.496,129.272 Z M186.014,137 L184.964,137 L184.964,130.238 L186.014,130.238 L186.014,137 Z M189.836,137.168 C188.828,137.168 188.324,136.594 188.324,135.586 L188.324,131.162 L187.204,131.162 L187.204,130.238 L188.324,130.238 L188.324,128.39 L189.388,128.39 L189.388,130.238 L190.76,130.238 L190.76,131.162 L189.388,131.162 L189.388,135.362 C189.388,135.866 189.612,136.23 190.06,136.23 C190.368,136.23 190.634,136.09 190.774,135.936 L191.082,136.734 C190.816,136.986 190.438,137.168 189.836,137.168 Z M201.134,137 L200.084,137 L200.084,136.23 C199.538,136.846 198.754,137.168 197.844,137.168 C196.71,137.168 195.492,136.398 195.492,134.928 C195.492,133.402 196.696,132.702 197.844,132.702 C198.768,132.702 199.538,132.996 200.084,133.612 L200.084,132.394 C200.084,131.498 199.356,130.98 198.376,130.98 C197.564,130.98 196.906,131.26 196.304,131.918 L195.814,131.19 C196.542,130.434 197.41,130.07 198.516,130.07 C199.958,130.07 201.134,130.714 201.134,132.352 L201.134,137 Z M198.236,136.412 C198.964,136.412 199.678,136.132 200.084,135.572 L200.084,134.284 C199.678,133.738 198.964,133.458 198.236,133.458 C197.242,133.458 196.556,134.074 196.556,134.928 C196.556,135.796 197.242,136.412 198.236,136.412 Z M212.46,137 L211.41,137 L211.41,132.408 C211.41,131.554 211.046,131.008 210.164,131.008 C209.464,131.008 208.722,131.498 208.372,132.044 L208.372,137 L207.322,137 L207.322,132.408 C207.322,131.554 206.972,131.008 206.076,131.008 C205.39,131.008 204.662,131.512 204.298,132.058 L204.298,137 L203.248,137 L203.248,130.238 L204.298,130.238 L204.298,131.218 C204.592,130.784 205.488,130.07 206.496,130.07 C207.518,130.07 208.106,130.63 208.302,131.33 C208.68,130.714 209.59,130.07 210.57,130.07 C211.802,130.07 212.46,130.756 212.46,132.114 L212.46,137 Z M217.626,137.168 C215.61,137.168 214.168,135.726 214.168,133.612 C214.168,131.652 215.568,130.07 217.5,130.07 C219.544,130.07 220.748,131.666 220.748,133.696 L220.748,133.962 L215.288,133.962 C215.372,135.236 216.254,136.3 217.71,136.3 C218.494,136.3 219.264,135.992 219.81,135.432 L220.314,136.118 C219.628,136.79 218.718,137.168 217.626,137.168 Z M219.712,133.178 C219.698,132.184 219.026,130.938 217.486,130.938 C216.044,130.938 215.33,132.156 215.274,133.178 L219.712,133.178 Z M224.164,137.168 C223.156,137.168 222.652,136.594 222.652,135.586 L222.652,131.162 L221.532,131.162 L221.532,130.238 L222.652,130.238 L222.652,128.39 L223.716,128.39 L223.716,130.238 L225.088,130.238 L225.088,131.162 L223.716,131.162 L223.716,135.362 C223.716,135.866 223.94,136.23 224.388,136.23 C224.696,136.23 224.962,136.09 225.102,135.936 L225.41,136.734 C225.144,136.986 224.766,137.168 224.164,137.168 Z M227.972,136.664 C227.972,137.518 227.482,138.316 226.838,138.778 L226.306,138.344 C226.754,138.05 227.16,137.504 227.216,137.042 C227.188,137.056 227.09,137.07 227.02,137.07 C226.642,137.07 226.348,136.762 226.348,136.356 C226.348,135.95 226.67,135.6 227.09,135.6 C227.566,135.6 227.972,135.992 227.972,136.664 Z M37.355,161.168 C35.339,161.168 33.981,159.614 33.981,157.612 C33.981,155.61 35.339,154.07 37.355,154.07 C38.587,154.07 39.315,154.574 39.833,155.246 L39.133,155.876 C38.685,155.26 38.111,155.008 37.411,155.008 C35.983,155.008 35.073,156.114 35.073,157.612 C35.073,159.11 35.983,160.23 37.411,160.23 C38.111,160.23 38.685,159.95 39.133,159.348 L39.833,159.992 C39.315,160.664 38.587,161.168 37.355,161.168 Z M44.271,161.168 C42.213,161.168 40.925,159.572 40.925,157.612 C40.925,155.652 42.213,154.07 44.271,154.07 C46.329,154.07 47.617,155.652 47.617,157.612 C47.617,159.572 46.329,161.168 44.271,161.168 Z M44.271,160.23 C45.713,160.23 46.511,158.998 46.511,157.612 C46.511,156.24 45.713,155.008 44.271,155.008 C42.829,155.008 42.031,156.24 42.031,157.612 C42.031,158.998 42.829,160.23 44.271,160.23 Z M54.939,161 L53.903,161 L53.903,156.576 C53.903,155.372 53.287,155.008 52.377,155.008 C51.551,155.008 50.781,155.512 50.375,156.058 L50.375,161 L49.325,161 L49.325,154.238 L50.375,154.238 L50.375,155.218 C50.851,154.644 51.775,154.07 52.797,154.07 C54.197,154.07 54.939,154.784 54.939,156.254 L54.939,161 Z M59.209,161.168 C58.089,161.168 57.165,160.818 56.479,160.104 L57.011,159.348 C57.459,159.866 58.313,160.314 59.237,160.314 C60.273,160.314 60.847,159.824 60.847,159.152 C60.847,157.514 56.661,158.522 56.661,156.016 C56.661,154.952 57.557,154.07 59.167,154.07 C60.329,154.07 61.141,154.504 61.673,155.05 L61.183,155.778 C60.777,155.288 60.049,154.924 59.167,154.924 C58.243,154.924 57.669,155.386 57.669,155.988 C57.669,157.458 61.855,156.492 61.855,159.124 C61.855,160.258 60.945,161.168 59.209,161.168 Z M66.629,161.168 C64.613,161.168 63.171,159.726 63.171,157.612 C63.171,155.652 64.571,154.07 66.503,154.07 C68.547,154.07 69.751,155.666 69.751,157.696 L69.751,157.962 L64.291,157.962 C64.375,159.236 65.257,160.3 66.713,160.3 C67.497,160.3 68.267,159.992 68.813,159.432 L69.317,160.118 C68.631,160.79 67.721,161.168 66.629,161.168 Z M68.715,157.178 C68.701,156.184 68.029,154.938 66.489,154.938 C65.047,154.938 64.333,156.156 64.277,157.178 L68.715,157.178 Z M74.427,161.168 C72.411,161.168 71.053,159.614 71.053,157.612 C71.053,155.61 72.411,154.07 74.427,154.07 C75.659,154.07 76.387,154.574 76.905,155.246 L76.205,155.876 C75.757,155.26 75.183,155.008 74.483,155.008 C73.055,155.008 72.145,156.114 72.145,157.612 C72.145,159.11 73.055,160.23 74.483,160.23 C75.183,160.23 75.757,159.95 76.205,159.348 L76.905,159.992 C76.387,160.664 75.659,161.168 74.427,161.168 Z M80.111,161.168 C79.103,161.168 78.599,160.594 78.599,159.586 L78.599,155.162 L77.479,155.162 L77.479,154.238 L78.599,154.238 L78.599,152.39 L79.663,152.39 L79.663,154.238 L81.035,154.238 L81.035,155.162 L79.663,155.162 L79.663,159.362 C79.663,159.866 79.887,160.23 80.335,160.23 C80.643,160.23 80.909,160.09 81.049,159.936 L81.357,160.734 C81.091,160.986 80.713,161.168 80.111,161.168 Z M85.571,161.168 C83.555,161.168 82.113,159.726 82.113,157.612 C82.113,155.652 83.513,154.07 85.445,154.07 C87.489,154.07 88.693,155.666 88.693,157.696 L88.693,157.962 L83.233,157.962 C83.317,159.236 84.199,160.3 85.655,160.3 C86.439,160.3 87.209,159.992 87.755,159.432 L88.259,160.118 C87.573,160.79 86.663,161.168 85.571,161.168 Z M87.657,157.178 C87.643,156.184 86.971,154.938 85.431,154.938 C83.989,154.938 83.275,156.156 83.219,157.178 L87.657,157.178 Z M92.109,161.168 C91.101,161.168 90.597,160.594 90.597,159.586 L90.597,155.162 L89.477,155.162 L89.477,154.238 L90.597,154.238 L90.597,152.39 L91.661,152.39 L91.661,154.238 L93.033,154.238 L93.033,155.162 L91.661,155.162 L91.661,159.362 C91.661,159.866 91.885,160.23 92.333,160.23 C92.641,160.23 92.907,160.09 93.047,159.936 L93.355,160.734 C93.089,160.986 92.711,161.168 92.109,161.168 Z M100.117,161 L99.067,161 L99.067,160.048 C98.549,160.636 97.667,161.168 96.659,161.168 C95.245,161.168 94.503,160.468 94.503,159.012 L94.503,154.238 L95.553,154.238 L95.553,158.69 C95.553,159.88 96.155,160.23 97.079,160.23 C97.891,160.23 98.675,159.754 99.067,159.208 L99.067,154.238 L100.117,154.238 L100.117,161 Z M103.267,161 L102.217,161 L102.217,154.238 L103.267,154.238 L103.267,155.316 C103.813,154.616 104.597,154.084 105.521,154.084 L105.521,155.162 C105.395,155.148 105.269,155.134 105.115,155.134 C104.457,155.134 103.575,155.666 103.267,156.212 L103.267,161 Z M115.741,161 L114.691,161 L114.691,160.23 C114.145,160.846 113.361,161.168 112.451,161.168 C111.317,161.168 110.099,160.398 110.099,158.928 C110.099,157.402 111.303,156.702 112.451,156.702 C113.375,156.702 114.145,156.996 114.691,157.612 L114.691,156.394 C114.691,155.498 113.963,154.98 112.983,154.98 C112.171,154.98 111.513,155.26 110.911,155.918 L110.421,155.19 C111.149,154.434 112.017,154.07 113.123,154.07 C114.565,154.07 115.741,154.714 115.741,156.352 L115.741,161 Z M112.843,160.412 C113.571,160.412 114.285,160.132 114.691,159.572 L114.691,158.284 C114.285,157.738 113.571,157.458 112.843,157.458 C111.849,157.458 111.163,158.074 111.163,158.928 C111.163,159.796 111.849,160.412 112.843,160.412 Z M123.805,161 L122.755,161 L122.755,159.992 C122.251,160.678 121.425,161.168 120.473,161.168 C118.709,161.168 117.463,159.824 117.463,157.626 C117.463,155.456 118.709,154.07 120.473,154.07 C121.383,154.07 122.209,154.518 122.755,155.26 L122.755,151.662 L123.805,151.662 L123.805,161 Z M120.739,160.23 C121.565,160.23 122.391,159.74 122.755,159.152 L122.755,156.1 C122.391,155.512 121.565,155.008 120.739,155.008 C119.367,155.008 118.555,156.128 118.555,157.626 C118.555,159.124 119.367,160.23 120.739,160.23 Z M126.437,153.272 C126.045,153.272 125.723,152.964 125.723,152.572 C125.723,152.18 126.045,151.858 126.437,151.858 C126.829,151.858 127.137,152.18 127.137,152.572 C127.137,152.964 126.829,153.272 126.437,153.272 Z M126.955,161 L125.905,161 L125.905,154.238 L126.955,154.238 L126.955,161 Z M132.387,161.168 C131.463,161.168 130.665,160.72 130.105,159.978 L130.105,163.576 L129.055,163.576 L129.055,154.238 L130.105,154.238 L130.105,155.246 C130.595,154.56 131.435,154.07 132.387,154.07 C134.165,154.07 135.397,155.414 135.397,157.612 C135.397,159.796 134.165,161.168 132.387,161.168 Z M132.121,160.23 C133.479,160.23 134.291,159.11 134.291,157.612 C134.291,156.114 133.479,155.008 132.121,155.008 C131.295,155.008 130.469,155.498 130.105,156.086 L130.105,159.138 C130.469,159.726 131.295,160.23 132.121,160.23 Z M137.595,153.272 C137.203,153.272 136.881,152.964 136.881,152.572 C136.881,152.18 137.203,151.858 137.595,151.858 C137.987,151.858 138.295,152.18 138.295,152.572 C138.295,152.964 137.987,153.272 137.595,153.272 Z M138.113,161 L137.063,161 L137.063,154.238 L138.113,154.238 L138.113,161 Z M142.369,161.168 C141.249,161.168 140.325,160.818 139.639,160.104 L140.171,159.348 C140.619,159.866 141.473,160.314 142.397,160.314 C143.433,160.314 144.007,159.824 144.007,159.152 C144.007,157.514 139.821,158.522 139.821,156.016 C139.821,154.952 140.717,154.07 142.327,154.07 C143.489,154.07 144.301,154.504 144.833,155.05 L144.343,155.778 C143.937,155.288 143.209,154.924 142.327,154.924 C141.403,154.924 140.829,155.386 140.829,155.988 C140.829,157.458 145.015,156.492 145.015,159.124 C145.015,160.258 144.105,161.168 142.369,161.168 Z M149.705,161.168 C147.689,161.168 146.331,159.614 146.331,157.612 C146.331,155.61 147.689,154.07 149.705,154.07 C150.937,154.07 151.665,154.574 152.183,155.246 L151.483,155.876 C151.035,155.26 150.461,155.008 149.761,155.008 C148.333,155.008 147.423,156.114 147.423,157.612 C147.423,159.11 148.333,160.23 149.761,160.23 C150.461,160.23 151.035,159.95 151.483,159.348 L152.183,159.992 C151.665,160.664 150.937,161.168 149.705,161.168 Z M154.199,153.272 C153.807,153.272 153.485,152.964 153.485,152.572 C153.485,152.18 153.807,151.858 154.199,151.858 C154.591,151.858 154.899,152.18 154.899,152.572 C154.899,152.964 154.591,153.272 154.199,153.272 Z M154.717,161 L153.667,161 L153.667,154.238 L154.717,154.238 L154.717,161 Z M162.431,161 L161.395,161 L161.395,156.576 C161.395,155.372 160.779,155.008 159.869,155.008 C159.043,155.008 158.273,155.512 157.867,156.058 L157.867,161 L156.817,161 L156.817,154.238 L157.867,154.238 L157.867,155.218 C158.343,154.644 159.267,154.07 160.289,154.07 C161.689,154.07 162.431,154.784 162.431,156.254 L162.431,161 Z M167.261,163.744 C166.127,163.744 165.343,163.52 164.531,162.722 L165.063,161.966 C165.623,162.624 166.295,162.876 167.261,162.876 C168.381,162.876 169.445,162.33 169.445,160.902 L169.445,159.88 C168.941,160.566 168.115,161.084 167.163,161.084 C165.399,161.084 164.153,159.768 164.153,157.584 C164.153,155.414 165.385,154.07 167.163,154.07 C168.073,154.07 168.899,154.518 169.445,155.26 L169.445,154.238 L170.495,154.238 L170.495,160.902 C170.495,163.044 168.913,163.744 167.261,163.744 Z M167.429,160.146 C168.255,160.146 169.067,159.642 169.445,159.054 L169.445,156.086 C169.067,155.512 168.255,155.008 167.429,155.008 C166.057,155.008 165.245,156.086 165.245,157.584 C165.245,159.068 166.057,160.146 167.429,160.146 Z M179.287,161.168 C177.271,161.168 175.829,159.726 175.829,157.612 C175.829,155.652 177.229,154.07 179.161,154.07 C181.205,154.07 182.409,155.666 182.409,157.696 L182.409,157.962 L176.949,157.962 C177.033,159.236 177.915,160.3 179.371,160.3 C180.155,160.3 180.925,159.992 181.471,159.432 L181.975,160.118 C181.289,160.79 180.379,161.168 179.287,161.168 Z M181.373,157.178 C181.359,156.184 180.687,154.938 179.147,154.938 C177.705,154.938 176.991,156.156 176.935,157.178 L181.373,157.178 Z M185.153,161 L184.103,161 L184.103,151.662 L185.153,151.662 L185.153,161 Z M187.785,153.272 C187.393,153.272 187.071,152.964 187.071,152.572 C187.071,152.18 187.393,151.858 187.785,151.858 C188.177,151.858 188.485,152.18 188.485,152.572 C188.485,152.964 188.177,153.272 187.785,153.272 Z M188.303,161 L187.253,161 L187.253,154.238 L188.303,154.238 L188.303,161 Z M192.125,161.168 C191.117,161.168 190.613,160.594 190.613,159.586 L190.613,155.162 L189.493,155.162 L189.493,154.238 L190.613,154.238 L190.613,152.39 L191.677,152.39 L191.677,154.238 L193.049,154.238 L193.049,155.162 L191.677,155.162 L191.677,159.362 C191.677,159.866 191.901,160.23 192.349,160.23 C192.657,160.23 192.923,160.09 193.063,159.936 L193.371,160.734 C193.105,160.986 192.727,161.168 192.125,161.168 Z M195.079,161.14 C194.659,161.14 194.309,160.79 194.309,160.37 C194.309,159.95 194.659,159.6 195.079,159.6 C195.499,159.6 195.849,159.95 195.849,160.37 C195.849,160.79 195.499,161.14 195.079,161.14 Z M202.583,161 L201.421,161 L201.421,151.662 L205.173,151.662 C207.049,151.662 208.099,152.95 208.099,154.476 C208.099,156.002 207.035,157.29 205.173,157.29 L202.583,157.29 L202.583,161 Z M205.033,156.254 C206.139,156.254 206.895,155.526 206.895,154.476 C206.895,153.426 206.139,152.698 205.033,152.698 L202.583,152.698 L202.583,156.254 L205.033,156.254 Z M210.647,161 L209.597,161 L209.597,154.238 L210.647,154.238 L210.647,155.316 C211.193,154.616 211.977,154.084 212.901,154.084 L212.901,155.162 C212.775,155.148 212.649,155.134 212.495,155.134 C211.837,155.134 210.955,155.666 210.647,156.212 L210.647,161 Z M219.495,161 L218.445,161 L218.445,160.23 C217.899,160.846 217.115,161.168 216.205,161.168 C215.071,161.168 213.853,160.398 213.853,158.928 C213.853,157.402 215.057,156.702 216.205,156.702 C217.129,156.702 217.899,156.996 218.445,157.612 L218.445,156.394 C218.445,155.498 217.717,154.98 216.737,154.98 C215.925,154.98 215.267,155.26 214.665,155.918 L214.175,155.19 C214.903,154.434 215.771,154.07 216.877,154.07 C218.319,154.07 219.495,154.714 219.495,156.352 L219.495,161 Z M216.597,160.412 C217.325,160.412 218.039,160.132 218.445,159.572 L218.445,158.284 C218.039,157.738 217.325,157.458 216.597,157.458 C215.603,157.458 214.917,158.074 214.917,158.928 C214.917,159.796 215.603,160.412 216.597,160.412 Z M224.675,161.168 C222.659,161.168 221.217,159.726 221.217,157.612 C221.217,155.652 222.617,154.07 224.549,154.07 C226.593,154.07 227.797,155.666 227.797,157.696 L227.797,157.962 L222.337,157.962 C222.421,159.236 223.303,160.3 224.759,160.3 C225.543,160.3 226.313,159.992 226.859,159.432 L227.363,160.118 C226.677,160.79 225.767,161.168 224.675,161.168 Z M226.761,157.178 C226.747,156.184 226.075,154.938 224.535,154.938 C223.093,154.938 222.379,156.156 222.323,157.178 L226.761,157.178 Z M231.647,161.168 C230.527,161.168 229.603,160.818 228.917,160.104 L229.449,159.348 C229.897,159.866 230.751,160.314 231.675,160.314 C232.711,160.314 233.285,159.824 233.285,159.152 C233.285,157.514 229.099,158.522 229.099,156.016 C229.099,154.952 229.995,154.07 231.605,154.07 C232.767,154.07 233.579,154.504 234.111,155.05 L233.621,155.778 C233.215,155.288 232.487,154.924 231.605,154.924 C230.681,154.924 230.107,155.386 230.107,155.988 C230.107,157.458 234.293,156.492 234.293,159.124 C234.293,160.258 233.383,161.168 231.647,161.168 Z M239.067,161.168 C237.051,161.168 235.609,159.726 235.609,157.612 C235.609,155.652 237.009,154.07 238.941,154.07 C240.985,154.07 242.189,155.666 242.189,157.696 L242.189,157.962 L236.729,157.962 C236.813,159.236 237.695,160.3 239.151,160.3 C239.935,160.3 240.705,159.992 241.251,159.432 L241.755,160.118 C241.069,160.79 240.159,161.168 239.067,161.168 Z M241.153,157.178 C241.139,156.184 240.467,154.938 238.927,154.938 C237.485,154.938 236.771,156.156 236.715,157.178 L241.153,157.178 Z M249.497,161 L248.461,161 L248.461,156.576 C248.461,155.372 247.845,155.008 246.935,155.008 C246.109,155.008 245.339,155.512 244.933,156.058 L244.933,161 L243.883,161 L243.883,154.238 L244.933,154.238 L244.933,155.218 C245.409,154.644 246.333,154.07 247.355,154.07 C248.755,154.07 249.497,154.784 249.497,156.254 L249.497,161 Z M253.333,161.168 C252.325,161.168 251.821,160.594 251.821,159.586 L251.821,155.162 L250.701,155.162 L250.701,154.238 L251.821,154.238 L251.821,152.39 L252.885,152.39 L252.885,154.238 L254.257,154.238 L254.257,155.162 L252.885,155.162 L252.885,159.362 C252.885,159.866 253.109,160.23 253.557,160.23 C253.865,160.23 254.131,160.09 254.271,159.936 L254.579,160.734 C254.313,160.986 253.935,161.168 253.333,161.168 Z M51.012,185 L49.962,185 L49.962,175.662 L51.012,175.662 L51.012,185 Z M56.066,185.168 C54.008,185.168 52.72,183.572 52.72,181.612 C52.72,179.652 54.008,178.07 56.066,178.07 C58.124,178.07 59.412,179.652 59.412,181.612 C59.412,183.572 58.124,185.168 56.066,185.168 Z M56.066,184.23 C57.508,184.23 58.306,182.998 58.306,181.612 C58.306,180.24 57.508,179.008 56.066,179.008 C54.624,179.008 53.826,180.24 53.826,181.612 C53.826,182.998 54.624,184.23 56.066,184.23 Z M62.17,183.166 C62.534,183.754 63.36,184.23 64.2,184.23 C65.558,184.23 66.37,183.124 66.37,181.626 C66.37,180.128 65.558,179.008 64.2,179.008 C63.36,179.008 62.534,179.512 62.17,180.1 L62.17,183.166 Z M62.17,185 L61.12,185 L61.12,175.662 L62.17,175.662 L62.17,179.26 C62.716,178.518 63.542,178.07 64.452,178.07 C66.23,178.07 67.462,179.456 67.462,181.626 C67.462,183.824 66.216,185.168 64.452,185.168 C63.5,185.168 62.674,184.678 62.17,183.992 L62.17,185 Z M72.124,185.168 C70.066,185.168 68.778,183.572 68.778,181.612 C68.778,179.652 70.066,178.07 72.124,178.07 C74.182,178.07 75.47,179.652 75.47,181.612 C75.47,183.572 74.182,185.168 72.124,185.168 Z M72.124,184.23 C73.566,184.23 74.364,182.998 74.364,181.612 C74.364,180.24 73.566,179.008 72.124,179.008 C70.682,179.008 69.884,180.24 69.884,181.612 C69.884,182.998 70.682,184.23 72.124,184.23 Z M78.228,185 L77.178,185 L77.178,178.238 L78.228,178.238 L78.228,179.316 C78.774,178.616 79.558,178.084 80.482,178.084 L80.482,179.162 C80.356,179.148 80.23,179.134 80.076,179.134 C79.418,179.134 78.536,179.666 78.228,180.212 L78.228,185 Z M83.52,185.168 C82.512,185.168 82.008,184.594 82.008,183.586 L82.008,179.162 L80.888,179.162 L80.888,178.238 L82.008,178.238 L82.008,176.39 L83.072,176.39 L83.072,178.238 L84.444,178.238 L84.444,179.162 L83.072,179.162 L83.072,183.362 C83.072,183.866 83.296,184.23 83.744,184.23 C84.052,184.23 84.318,184.09 84.458,183.936 L84.766,184.734 C84.5,184.986 84.122,185.168 83.52,185.168 Z M86.446,177.272 C86.054,177.272 85.732,176.964 85.732,176.572 C85.732,176.18 86.054,175.858 86.446,175.858 C86.838,175.858 87.146,176.18 87.146,176.572 C87.146,176.964 86.838,177.272 86.446,177.272 Z M86.964,185 L85.914,185 L85.914,178.238 L86.964,178.238 L86.964,185 Z M91.22,185.168 C90.1,185.168 89.176,184.818 88.49,184.104 L89.022,183.348 C89.47,183.866 90.324,184.314 91.248,184.314 C92.284,184.314 92.858,183.824 92.858,183.152 C92.858,181.514 88.672,182.522 88.672,180.016 C88.672,178.952 89.568,178.07 91.178,178.07 C92.34,178.07 93.152,178.504 93.684,179.05 L93.194,179.778 C92.788,179.288 92.06,178.924 91.178,178.924 C90.254,178.924 89.68,179.386 89.68,179.988 C89.68,181.458 93.866,180.492 93.866,183.124 C93.866,184.258 92.956,185.168 91.22,185.168 Z M104.814,185 L103.778,185 L103.778,180.576 C103.778,179.372 103.162,179.008 102.252,179.008 C101.426,179.008 100.656,179.512 100.25,180.058 L100.25,185 L99.2,185 L99.2,178.238 L100.25,178.238 L100.25,179.218 C100.726,178.644 101.65,178.07 102.672,178.07 C104.072,178.07 104.814,178.784 104.814,180.254 L104.814,185 Z M109.994,185.168 C107.978,185.168 106.536,183.726 106.536,181.612 C106.536,179.652 107.936,178.07 109.868,178.07 C111.912,178.07 113.116,179.666 113.116,181.696 L113.116,181.962 L107.656,181.962 C107.74,183.236 108.622,184.3 110.078,184.3 C110.862,184.3 111.632,183.992 112.178,183.432 L112.682,184.118 C111.996,184.79 111.086,185.168 109.994,185.168 Z M112.08,181.178 C112.066,180.184 111.394,178.938 109.854,178.938 C108.412,178.938 107.698,180.156 107.642,181.178 L112.08,181.178 Z M117.652,184.23 C118.478,184.23 119.304,183.726 119.668,183.138 L119.668,180.086 C119.304,179.498 118.478,179.008 117.652,179.008 C116.294,179.008 115.482,180.114 115.482,181.612 C115.482,183.11 116.294,184.23 117.652,184.23 Z M117.386,185.168 C115.608,185.168 114.376,183.796 114.376,181.612 C114.376,179.414 115.608,178.07 117.386,178.07 C118.338,178.07 119.178,178.56 119.668,179.246 L119.668,178.238 L120.718,178.238 L120.718,187.576 L119.668,187.576 L119.668,183.978 C119.108,184.72 118.31,185.168 117.386,185.168 Z M128.432,185 L127.382,185 L127.382,184.048 C126.864,184.636 125.982,185.168 124.974,185.168 C123.56,185.168 122.818,184.468 122.818,183.012 L122.818,178.238 L123.868,178.238 L123.868,182.69 C123.868,183.88 124.47,184.23 125.394,184.23 C126.206,184.23 126.99,183.754 127.382,183.208 L127.382,178.238 L128.432,178.238 L128.432,185 Z M133.598,185.168 C131.582,185.168 130.14,183.726 130.14,181.612 C130.14,179.652 131.54,178.07 133.472,178.07 C135.516,178.07 136.72,179.666 136.72,181.696 L136.72,181.962 L131.26,181.962 C131.344,183.236 132.226,184.3 133.682,184.3 C134.466,184.3 135.236,183.992 135.782,183.432 L136.286,184.118 C135.6,184.79 134.69,185.168 133.598,185.168 Z M135.684,181.178 C135.67,180.184 134.998,178.938 133.458,178.938 C132.016,178.938 131.302,180.156 131.246,181.178 L135.684,181.178 Z M142.572,177.272 C142.18,177.272 141.858,176.964 141.858,176.572 C141.858,176.18 142.18,175.858 142.572,175.858 C142.964,175.858 143.272,176.18 143.272,176.572 C143.272,176.964 142.964,177.272 142.572,177.272 Z M143.09,185 L142.04,185 L142.04,178.238 L143.09,178.238 L143.09,185 Z M150.804,185 L149.768,185 L149.768,180.576 C149.768,179.372 149.152,179.008 148.242,179.008 C147.416,179.008 146.646,179.512 146.24,180.058 L146.24,185 L145.19,185 L145.19,178.238 L146.24,178.238 L146.24,179.218 C146.716,178.644 147.64,178.07 148.662,178.07 C150.062,178.07 150.804,178.784 150.804,180.254 L150.804,185 Z M159.386,184.23 C160.212,184.23 161.038,183.726 161.402,183.138 L161.402,180.086 C161.038,179.498 160.212,179.008 159.386,179.008 C158.028,179.008 157.216,180.114 157.216,181.612 C157.216,183.11 158.028,184.23 159.386,184.23 Z M159.12,185.168 C157.342,185.168 156.11,183.796 156.11,181.612 C156.11,179.414 157.342,178.07 159.12,178.07 C160.072,178.07 160.912,178.56 161.402,179.246 L161.402,178.238 L162.452,178.238 L162.452,187.576 L161.402,187.576 L161.402,183.978 C160.842,184.72 160.044,185.168 159.12,185.168 Z M170.166,185 L169.116,185 L169.116,184.048 C168.598,184.636 167.716,185.168 166.708,185.168 C165.294,185.168 164.552,184.468 164.552,183.012 L164.552,178.238 L165.602,178.238 L165.602,182.69 C165.602,183.88 166.204,184.23 167.128,184.23 C167.94,184.23 168.724,183.754 169.116,183.208 L169.116,178.238 L170.166,178.238 L170.166,185 Z M177.544,185 L176.494,185 L176.494,184.23 C175.948,184.846 175.164,185.168 174.254,185.168 C173.12,185.168 171.902,184.398 171.902,182.928 C171.902,181.402 173.106,180.702 174.254,180.702 C175.178,180.702 175.948,180.996 176.494,181.612 L176.494,180.394 C176.494,179.498 175.766,178.98 174.786,178.98 C173.974,178.98 173.316,179.26 172.714,179.918 L172.224,179.19 C172.952,178.434 173.82,178.07 174.926,178.07 C176.368,178.07 177.544,178.714 177.544,180.352 L177.544,185 Z M174.646,184.412 C175.374,184.412 176.088,184.132 176.494,183.572 L176.494,182.284 C176.088,181.738 175.374,181.458 174.646,181.458 C173.652,181.458 172.966,182.074 172.966,182.928 C172.966,183.796 173.652,184.412 174.646,184.412 Z M188.87,185 L187.82,185 L187.82,180.408 C187.82,179.554 187.456,179.008 186.574,179.008 C185.874,179.008 185.132,179.498 184.782,180.044 L184.782,185 L183.732,185 L183.732,180.408 C183.732,179.554 183.382,179.008 182.486,179.008 C181.8,179.008 181.072,179.512 180.708,180.058 L180.708,185 L179.658,185 L179.658,178.238 L180.708,178.238 L180.708,179.218 C181.002,178.784 181.898,178.07 182.906,178.07 C183.928,178.07 184.516,178.63 184.712,179.33 C185.09,178.714 186,178.07 186.98,178.07 C188.212,178.07 188.87,178.756 188.87,180.114 L188.87,185 Z M196.318,185.168 C195.31,185.168 194.806,184.594 194.806,183.586 L194.806,179.162 L193.686,179.162 L193.686,178.238 L194.806,178.238 L194.806,176.39 L195.87,176.39 L195.87,178.238 L197.242,178.238 L197.242,179.162 L195.87,179.162 L195.87,183.362 C195.87,183.866 196.094,184.23 196.542,184.23 C196.85,184.23 197.116,184.09 197.256,183.936 L197.564,184.734 C197.298,184.986 196.92,185.168 196.318,185.168 Z M201.778,185.168 C199.762,185.168 198.32,183.726 198.32,181.612 C198.32,179.652 199.72,178.07 201.652,178.07 C203.696,178.07 204.9,179.666 204.9,181.696 L204.9,181.962 L199.44,181.962 C199.524,183.236 200.406,184.3 201.862,184.3 C202.646,184.3 203.416,183.992 203.962,183.432 L204.466,184.118 C203.78,184.79 202.87,185.168 201.778,185.168 Z M203.864,181.178 C203.85,180.184 203.178,178.938 201.638,178.938 C200.196,178.938 199.482,180.156 199.426,181.178 L203.864,181.178 Z M215.806,185 L214.756,185 L214.756,180.408 C214.756,179.554 214.392,179.008 213.51,179.008 C212.81,179.008 212.068,179.498 211.718,180.044 L211.718,185 L210.668,185 L210.668,180.408 C210.668,179.554 210.318,179.008 209.422,179.008 C208.736,179.008 208.008,179.512 207.644,180.058 L207.644,185 L206.594,185 L206.594,178.238 L207.644,178.238 L207.644,179.218 C207.938,178.784 208.834,178.07 209.842,178.07 C210.864,178.07 211.452,178.63 211.648,179.33 C212.026,178.714 212.936,178.07 213.916,178.07 C215.148,178.07 215.806,178.756 215.806,180.114 L215.806,185 Z M221.238,185.168 C220.314,185.168 219.516,184.72 218.956,183.978 L218.956,187.576 L217.906,187.576 L217.906,178.238 L218.956,178.238 L218.956,179.246 C219.446,178.56 220.286,178.07 221.238,178.07 C223.016,178.07 224.248,179.414 224.248,181.612 C224.248,183.796 223.016,185.168 221.238,185.168 Z M220.972,184.23 C222.33,184.23 223.142,183.11 223.142,181.612 C223.142,180.114 222.33,179.008 220.972,179.008 C220.146,179.008 219.32,179.498 218.956,180.086 L218.956,183.138 C219.32,183.726 220.146,184.23 220.972,184.23 Z M231.528,185 L230.478,185 L230.478,184.048 C229.96,184.636 229.078,185.168 228.07,185.168 C226.656,185.168 225.914,184.468 225.914,183.012 L225.914,178.238 L226.964,178.238 L226.964,182.69 C226.964,183.88 227.566,184.23 228.49,184.23 C229.302,184.23 230.086,183.754 230.478,183.208 L230.478,178.238 L231.528,178.238 L231.528,185 Z M235.784,185.168 C234.664,185.168 233.74,184.818 233.054,184.104 L233.586,183.348 C234.034,183.866 234.888,184.314 235.812,184.314 C236.848,184.314 237.422,183.824 237.422,183.152 C237.422,181.514 233.236,182.522 233.236,180.016 C233.236,178.952 234.132,178.07 235.742,178.07 C236.904,178.07 237.716,178.504 238.248,179.05 L237.758,179.778 C237.352,179.288 236.624,178.924 235.742,178.924 C234.818,178.924 234.244,179.386 234.244,179.988 C234.244,181.458 238.43,180.492 238.43,183.124 C238.43,184.258 237.52,185.168 235.784,185.168 Z M124.652,209 L123.602,209 L123.602,208.23 C123.056,208.846 122.272,209.168 121.362,209.168 C120.228,209.168 119.01,208.398 119.01,206.928 C119.01,205.402 120.214,204.702 121.362,204.702 C122.286,204.702 123.056,204.996 123.602,205.612 L123.602,204.394 C123.602,203.498 122.874,202.98 121.894,202.98 C121.082,202.98 120.424,203.26 119.822,203.918 L119.332,203.19 C120.06,202.434 120.928,202.07 122.034,202.07 C123.476,202.07 124.652,202.714 124.652,204.352 L124.652,209 Z M121.754,208.412 C122.482,208.412 123.196,208.132 123.602,207.572 L123.602,206.284 C123.196,205.738 122.482,205.458 121.754,205.458 C120.76,205.458 120.074,206.074 120.074,206.928 C120.074,207.796 120.76,208.412 121.754,208.412 Z M127.816,209 L126.766,209 L126.766,199.662 L127.816,199.662 L127.816,209 Z M130.448,201.272 C130.056,201.272 129.734,200.964 129.734,200.572 C129.734,200.18 130.056,199.858 130.448,199.858 C130.84,199.858 131.148,200.18 131.148,200.572 C131.148,200.964 130.84,201.272 130.448,201.272 Z M130.966,209 L129.916,209 L129.916,202.238 L130.966,202.238 L130.966,209 Z M135.908,208.23 C136.734,208.23 137.56,207.726 137.924,207.138 L137.924,204.086 C137.56,203.498 136.734,203.008 135.908,203.008 C134.55,203.008 133.738,204.114 133.738,205.612 C133.738,207.11 134.55,208.23 135.908,208.23 Z M135.642,209.168 C133.864,209.168 132.632,207.796 132.632,205.612 C132.632,203.414 133.864,202.07 135.642,202.07 C136.594,202.07 137.434,202.56 137.924,203.246 L137.924,202.238 L138.974,202.238 L138.974,211.576 L137.924,211.576 L137.924,207.978 C137.364,208.72 136.566,209.168 135.642,209.168 Z M146.688,209 L145.638,209 L145.638,208.048 C145.12,208.636 144.238,209.168 143.23,209.168 C141.816,209.168 141.074,208.468 141.074,207.012 L141.074,202.238 L142.124,202.238 L142.124,206.69 C142.124,207.88 142.726,208.23 143.65,208.23 C144.462,208.23 145.246,207.754 145.638,207.208 L145.638,202.238 L146.688,202.238 L146.688,209 Z M154.066,209 L153.016,209 L153.016,208.23 C152.47,208.846 151.686,209.168 150.776,209.168 C149.642,209.168 148.424,208.398 148.424,206.928 C148.424,205.402 149.628,204.702 150.776,204.702 C151.7,204.702 152.47,204.996 153.016,205.612 L153.016,204.394 C153.016,203.498 152.288,202.98 151.308,202.98 C150.496,202.98 149.838,203.26 149.236,203.918 L148.746,203.19 C149.474,202.434 150.342,202.07 151.448,202.07 C152.89,202.07 154.066,202.714 154.066,204.352 L154.066,209 Z M151.168,208.412 C151.896,208.412 152.61,208.132 153.016,207.572 L153.016,206.284 C152.61,205.738 151.896,205.458 151.168,205.458 C150.174,205.458 149.488,206.074 149.488,206.928 C149.488,207.796 150.174,208.412 151.168,208.412 Z M165.392,209 L164.342,209 L164.342,204.408 C164.342,203.554 163.978,203.008 163.096,203.008 C162.396,203.008 161.654,203.498 161.304,204.044 L161.304,209 L160.254,209 L160.254,204.408 C160.254,203.554 159.904,203.008 159.008,203.008 C158.322,203.008 157.594,203.512 157.23,204.058 L157.23,209 L156.18,209 L156.18,202.238 L157.23,202.238 L157.23,203.218 C157.524,202.784 158.42,202.07 159.428,202.07 C160.45,202.07 161.038,202.63 161.234,203.33 C161.612,202.714 162.522,202.07 163.502,202.07 C164.734,202.07 165.392,202.756 165.392,204.114 L165.392,209 Z M168.052,209.14 C167.632,209.14 167.282,208.79 167.282,208.37 C167.282,207.95 167.632,207.6 168.052,207.6 C168.472,207.6 168.822,207.95 168.822,208.37 C168.822,208.79 168.472,209.14 168.052,209.14 Z" id="Lorem-ipsum-dolor-si" fill="#444444"></path>
                    <g id="Icon/Story" transform="translate(108.000000, 0.000000)">
                        <g id="Rectangle" transform="translate(3.600000, 3.600000)">
                            <circle id="Oval" fill="#FFFFFF" cx="32.85" cy="32.85" r="8.55"></circle>
                            <mask id="mask-4" fill="white">
                                <use xlink:href="#path-3"></use>
                            </mask>
                            <g id="Mask">
                                <use fill="black" fill-opacity="1" filter="url(#filter-5)" xlink:href="#path-3"></use>
                                <use fill="#000000" fill-rule="evenodd" xlink:href="#path-3"></use>
                            </g>
                            <rect stroke="#979797" fill="url(#linearGradient-6)" mask="url(#mask-4)" x="-6.79" y="-10.03" width="81.62" height="80.81"></rect>
                            <rect fill="#FFFFFF" opacity="0.24" mask="url(#mask-4)" x="0" y="0" width="66.6" height="81"></rect>
                        </g>
                    </g>
                </g>
            </g>
        </g>
    </g>
</svg>