<?xml version="1.0" encoding="UTF-8"?>
<svg width="602px" height="535px" viewBox="0 0 602 535" version="1.1" xmlns="http://www.w3.org/2000/svg" xmlns:xlink="http://www.w3.org/1999/xlink">
    <!-- Generator: Sketch 50.2 (55047) - http://www.bohemiancoding.com/sketch -->
    <title>Slice</title>
    <desc>Created with Sketch.</desc>
    <defs>
        <rect id="path-1" x="0" y="0" width="502" height="48" rx="4"></rect>
        <filter x="-12.7%" y="-100.0%" width="125.5%" height="366.7%" filterUnits="objectBoundingBox" id="filter-2">
            <feOffset dx="0" dy="8" in="SourceAlpha" result="shadowOffsetOuter1"></feOffset>
            <feGaussianBlur stdDeviation="12" in="shadowOffsetOuter1" result="shadowBlurOuter1"></feGaussianBlur>
            <feColorMatrix values="0 0 0 0 0.88627451   0 0 0 0 0   0 0 0 0 0  0 0 0 0.24 0" type="matrix" in="shadowBlurOuter1" result="shadowMatrixOuter1"></feColorMatrix>
            <feOffset dx="0" dy="8" in="SourceAlpha" result="shadowOffsetOuter2"></feOffset>
            <feGaussianBlur stdDeviation="12" in="shadowOffsetOuter2" result="shadowBlurOuter2"></feGaussianBlur>
            <feColorMatrix values="0 0 0 0 0   0 0 0 0 0   0 0 0 0 0  0 0 0 0.16 0" type="matrix" in="shadowBlurOuter2" result="shadowMatrixOuter2"></feColorMatrix>
            <feMerge>
                <feMergeNode in="shadowMatrixOuter1"></feMergeNode>
                <feMergeNode in="shadowMatrixOuter2"></feMergeNode>
            </feMerge>
        </filter>
        <rect id="path-3" x="0" y="0" width="502" height="48" rx="4"></rect>
        <filter x="-12.7%" y="-100.0%" width="125.5%" height="366.7%" filterUnits="objectBoundingBox" id="filter-4">
            <feOffset dx="0" dy="8" in="SourceAlpha" result="shadowOffsetOuter1"></feOffset>
            <feGaussianBlur stdDeviation="12" in="shadowOffsetOuter1" result="shadowBlurOuter1"></feGaussianBlur>
            <feColorMatrix values="0 0 0 0 0.996078431   0 0 0 0 0.576470588   0 0 0 0 0  0 0 0 0.24 0" type="matrix" in="shadowBlurOuter1" result="shadowMatrixOuter1"></feColorMatrix>
            <feOffset dx="0" dy="8" in="SourceAlpha" result="shadowOffsetOuter2"></feOffset>
            <feGaussianBlur stdDeviation="12" in="shadowOffsetOuter2" result="shadowBlurOuter2"></feGaussianBlur>
            <feColorMatrix values="0 0 0 0 0   0 0 0 0 0   0 0 0 0 0  0 0 0 0.16 0" type="matrix" in="shadowBlurOuter2" result="shadowMatrixOuter2"></feColorMatrix>
            <feMerge>
                <feMergeNode in="shadowMatrixOuter1"></feMergeNode>
                <feMergeNode in="shadowMatrixOuter2"></feMergeNode>
            </feMerge>
        </filter>
        <rect id="path-5" x="0" y="0" width="502" height="48" rx="4"></rect>
        <filter x="-12.7%" y="-100.0%" width="125.5%" height="366.7%" filterUnits="objectBoundingBox" id="filter-6">
            <feOffset dx="0" dy="8" in="SourceAlpha" result="shadowOffsetOuter1"></feOffset>
            <feGaussianBlur stdDeviation="12" in="shadowOffsetOuter1" result="shadowBlurOuter1"></feGaussianBlur>
            <feColorMatrix values="0 0 0 0 0.333333333   0 0 0 0 0.760784314   0 0 0 0 0  0 0 0 0.24 0" type="matrix" in="shadowBlurOuter1" result="shadowMatrixOuter1"></feColorMatrix>
            <feOffset dx="0" dy="8" in="SourceAlpha" result="shadowOffsetOuter2"></feOffset>
            <feGaussianBlur stdDeviation="12" in="shadowOffsetOuter2" result="shadowBlurOuter2"></feGaussianBlur>
            <feColorMatrix values="0 0 0 0 0   0 0 0 0 0   0 0 0 0 0  0 0 0 0.16 0" type="matrix" in="shadowBlurOuter2" result="shadowMatrixOuter2"></feColorMatrix>
            <feMerge>
                <feMergeNode in="shadowMatrixOuter1"></feMergeNode>
                <feMergeNode in="shadowMatrixOuter2"></feMergeNode>
            </feMerge>
        </filter>
    </defs>
    <g id="Page-1" stroke="none" stroke-width="1" fill="none" fill-rule="evenodd">
        <g id="utility" transform="translate(39.000000, 154.000000)">
            <g id="Error" transform="translate(0.000000, 144.000000)">
                <g id="Rectangle-3">
                    <use fill="black" fill-opacity="1" filter="url(#filter-2)" xlink:href="#path-1"></use>
                    <use fill="#E20000" fill-rule="evenodd" xlink:href="#path-1"></use>
                </g>
                <path d="M47.8881836,28.8134766 L47.8881836,30 L41.340332,30 L41.340332,19.4311523 L47.8881836,19.4311523 L47.8881836,20.6176758 L42.6586914,20.6176758 L42.6586914,24.0087891 L47.6171875,24.0087891 L47.6171875,25.1806641 L42.6586914,25.1806641 L42.6586914,28.8134766 L47.8881836,28.8134766 Z M49.8803711,30 L49.8803711,22.1044922 L51.081543,22.1044922 L51.081543,23.2763672 L51.1987305,23.2763672 C51.3159186,22.8906231 51.5795878,22.5756848 51.9897461,22.331543 C52.3999044,22.0874011 52.8662083,21.965332 53.3886719,21.965332 C53.4912115,21.965332 53.6022943,21.9689941 53.7219238,21.9763184 C53.8415533,21.9836426 53.9404293,21.9921875 54.0185547,22.0019531 L54.0185547,23.2617188 C53.9697263,23.2470702 53.8549814,23.2312013 53.6743164,23.2141113 C53.4936514,23.1970214 53.3398444,23.1884766 53.2128906,23.1884766 C52.6123017,23.1884766 52.1167012,23.3691388 51.7260742,23.7304688 C51.3354473,24.0917987 51.1401367,24.5507785 51.1401367,25.1074219 L51.1401367,30 L49.8803711,30 Z M55.3588867,30 L55.3588867,22.1044922 L56.5600586,22.1044922 L56.5600586,23.2763672 L56.6772461,23.2763672 C56.7944342,22.8906231 57.0581034,22.5756848 57.4682617,22.331543 C57.87842,22.0874011 58.344724,21.965332 58.8671875,21.965332 C58.9697271,21.965332 59.0808099,21.9689941 59.2004395,21.9763184 C59.320069,21.9836426 59.4189449,21.9921875 59.4970703,22.0019531 L59.4970703,23.2617188 C59.4482419,23.2470702 59.333497,23.2312013 59.152832,23.2141113 C58.9721671,23.1970214 58.81836,23.1884766 58.6914062,23.1884766 C58.0908173,23.1884766 57.5952168,23.3691388 57.2045898,23.7304688 C56.8139629,24.0917987 56.6186523,24.5507785 56.6186523,25.1074219 L56.6186523,30 L55.3588867,30 Z M64.0820312,30.1391602 C62.9589788,30.1391602 62.0715365,29.7741736 61.4196777,29.0441895 C60.767819,28.3142053 60.4418945,27.3169009 60.4418945,26.0522461 C60.4418945,24.7827085 60.767819,23.7841833 61.4196777,23.0566406 C62.0715365,22.3290979 62.9589788,21.965332 64.0820312,21.965332 C65.2050837,21.965332 66.092526,22.3290979 66.7443848,23.0566406 C67.3962435,23.7841833 67.722168,24.7827085 67.722168,26.0522461 C67.722168,27.3169009 67.3962435,28.3142053 66.7443848,29.0441895 C66.092526,29.7741736 65.2050837,30.1391602 64.0820312,30.1391602 Z M64.0820312,29.0039062 C64.8291053,29.0039062 65.4052714,28.7451198 65.8105469,28.2275391 C66.2158223,27.7099583 66.418457,26.9848679 66.418457,26.0522461 C66.418457,25.1147414 66.2158223,24.3884303 65.8105469,23.873291 C65.4052714,23.3581517 64.8291053,23.1005859 64.0820312,23.1005859 C63.3349572,23.1005859 62.7587911,23.3581517 62.3535156,23.873291 C61.9482402,24.3884303 61.7456055,25.1147414 61.7456055,26.0522461 C61.7456055,26.9848679 61.9482402,27.7099583 62.3535156,28.2275391 C62.7587911,28.7451198 63.3349572,29.0039062 64.0820312,29.0039062 Z M69.465332,30 L69.465332,22.1044922 L70.6665039,22.1044922 L70.6665039,23.2763672 L70.7836914,23.2763672 C70.9008795,22.8906231 71.1645487,22.5756848 71.574707,22.331543 C71.9848653,22.0874011 72.4511693,21.965332 72.9736328,21.965332 C73.0761724,21.965332 73.1872553,21.9689941 73.3068848,21.9763184 C73.4265143,21.9836426 73.5253902,21.9921875 73.6035156,22.0019531 L73.6035156,23.2617188 C73.5546873,23.2470702 73.4399423,23.2312013 73.2592773,23.2141113 C73.0786124,23.1970214 72.9248053,23.1884766 72.7978516,23.1884766 C72.1972626,23.1884766 71.7016621,23.3691388 71.3110352,23.7304688 C70.9204082,24.0917987 70.7250977,24.5507785 70.7250977,25.1074219 L70.7250977,30 L69.465332,30 Z M78.9428711,30 L78.9428711,22.1044922 L80.144043,22.1044922 L80.144043,23.3496094 L80.2612305,23.3496094 C80.4418954,22.9101541 80.7226543,22.5695813 81.1035156,22.3278809 C81.4843769,22.0861804 81.9384739,21.965332 82.4658203,21.965332 C83.0029324,21.965332 83.4558087,22.0935046 83.8244629,22.3498535 C84.1931171,22.6062025 84.4677725,22.9394511 84.6484375,23.3496094 L84.765625,23.3496094 C84.9804698,22.9296854 85.3002908,22.5939954 85.7250977,22.3425293 C86.1499045,22.0910632 86.6357395,21.965332 87.1826172,21.965332 C87.9882853,21.965332 88.6083963,22.1874978 89.0429688,22.6318359 C89.4775412,23.0761741 89.6948242,23.7133748 89.6948242,24.543457 L89.6948242,30 L88.4350586,30 L88.4350586,24.8364258 C88.4350586,24.2553682 88.2971205,23.8208022 88.0212402,23.5327148 C87.7453599,23.2446275 87.3291043,23.1005859 86.7724609,23.1005859 C86.2255832,23.1005859 85.7836931,23.2788068 85.4467773,23.6352539 C85.1098616,23.991701 84.9414062,24.4213842 84.9414062,24.9243164 L84.9414062,30 L83.6816406,30 L83.6816406,24.6386719 C83.6816406,24.1699195 83.5314956,23.7963881 83.2312012,23.5180664 C82.9309067,23.2397447 82.5317408,23.1005859 82.0336914,23.1005859 C81.5161107,23.1005859 81.0815447,23.2958965 80.7299805,23.6865234 C80.3784162,24.0771504 80.2026367,24.5507785 80.2026367,25.1074219 L80.2026367,30 L78.9428711,30 Z M94.909668,23.0786133 C94.279782,23.0786133 93.7622091,23.2910135 93.3569336,23.7158203 C92.9516581,24.1406271 92.7246096,24.7021449 92.6757812,25.4003906 L97.0263672,25.4003906 C97.0117187,24.7021449 96.8115254,24.1406271 96.4257812,23.7158203 C96.0400371,23.2910135 95.5346711,23.0786133 94.909668,23.0786133 Z M96.9897461,27.956543 L98.2495117,27.956543 C98.0590811,28.6352573 97.6733427,29.1686992 97.0922852,29.5568848 C96.5112276,29.9450703 95.7885785,30.1391602 94.9243164,30.1391602 C93.8305609,30.1391602 92.9638704,29.7717322 92.3242188,29.0368652 C91.6845671,28.3019983 91.3647461,27.3095766 91.3647461,26.0595703 C91.3647461,24.8193297 91.6870085,23.826908 92.331543,23.0822754 C92.9760774,22.3376428 93.8403266,21.965332 94.9243164,21.965332 C95.9887749,21.965332 96.8261688,22.3205531 97.4365234,23.0310059 C98.0468781,23.7414586 98.3520508,24.7094665 98.3520508,25.9350586 L98.3520508,26.418457 L92.6757812,26.418457 L92.6757812,26.4770508 C92.7099611,27.2583047 92.9309062,27.8784157 93.338623,28.3374023 C93.7463399,28.796389 94.2846646,29.0258789 94.9536133,29.0258789 C95.4614283,29.0258789 95.8862288,28.9343271 96.2280273,28.7512207 C96.5698259,28.5681143 96.8237296,28.3032244 96.9897461,27.956543 Z M99.9121094,24.2651367 C99.9121094,23.6108366 100.192868,23.063967 100.754395,22.6245117 C101.315921,22.1850564 102.016597,21.965332 102.856445,21.965332 C103.686528,21.965332 104.368894,22.1557598 104.903564,22.5366211 C105.438235,22.9174824 105.74707,23.4326139 105.830078,24.0820312 L104.584961,24.0820312 C104.501953,23.7646469 104.311525,23.5107431 104.013672,23.3203125 C103.715819,23.1298819 103.327639,23.034668 102.849121,23.034668 C102.380369,23.034668 101.984865,23.1433095 101.662598,23.3605957 C101.34033,23.5778819 101.179199,23.8623029 101.179199,24.2138672 C101.179199,24.4824232 101.291503,24.7058097 101.516113,24.8840332 C101.740724,25.0622568 102.084959,25.207519 102.548828,25.3198242 L103.764648,25.612793 C104.50684,25.7934579 105.059813,26.0534651 105.423584,26.3928223 C105.787355,26.7321794 105.969238,27.1850558 105.969238,27.7514648 C105.969238,28.4594762 105.666507,29.0344216 105.061035,29.4763184 C104.455563,29.9182151 103.703618,30.1391602 102.805176,30.1391602 C101.926265,30.1391602 101.206057,29.9438496 100.644531,29.5532227 C100.083005,29.1625957 99.7680667,28.64014 99.699707,27.9858398 L100.996094,27.9858398 C101.103516,28.3178728 101.313475,28.5827627 101.625977,28.7805176 C101.938478,28.9782725 102.346189,29.0771484 102.849121,29.0771484 C103.38135,29.0771484 103.818358,28.9624035 104.160156,28.7329102 C104.501955,28.5034168 104.672852,28.2080096 104.672852,27.8466797 C104.672852,27.5732408 104.569093,27.3449716 104.361572,27.1618652 C104.154052,26.9787589 103.840334,26.835938 103.42041,26.7333984 L102.06543,26.4038086 C101.328121,26.2231436 100.784914,25.9643572 100.435791,25.6274414 C100.086668,25.2905257 99.9121094,24.8364286 99.9121094,24.2651367 Z M107.529297,24.2651367 C107.529297,23.6108366 107.810056,23.063967 108.371582,22.6245117 C108.933108,22.1850564 109.633785,21.965332 110.473633,21.965332 C111.303715,21.965332 111.986081,22.1557598 112.520752,22.5366211 C113.055423,22.9174824 113.364257,23.4326139 113.447266,24.0820312 L112.202148,24.0820312 C112.11914,23.7646469 111.928712,23.5107431 111.630859,23.3203125 C111.333006,23.1298819 110.944827,23.034668 110.466309,23.034668 C109.997556,23.034668 109.602052,23.1433095 109.279785,23.3605957 C108.957518,23.5778819 108.796387,23.8623029 108.796387,24.2138672 C108.796387,24.4824232 108.90869,24.7058097 109.133301,24.8840332 C109.357911,25.0622568 109.702146,25.207519 110.166016,25.3198242 L111.381836,25.612793 C112.124027,25.7934579 112.677,26.0534651 113.040771,26.3928223 C113.404543,26.7321794 113.586426,27.1850558 113.586426,27.7514648 C113.586426,28.4594762 113.283694,29.0344216 112.678223,29.4763184 C112.072751,29.9182151 111.320805,30.1391602 110.422363,30.1391602 C109.543453,30.1391602 108.823245,29.9438496 108.261719,29.5532227 C107.700193,29.1625957 107.385254,28.64014 107.316895,27.9858398 L108.613281,27.9858398 C108.720704,28.3178728 108.930662,28.5827627 109.243164,28.7805176 C109.555666,28.9782725 109.963376,29.0771484 110.466309,29.0771484 C110.998538,29.0771484 111.435545,28.9624035 111.777344,28.7329102 C112.119142,28.5034168 112.290039,28.2080096 112.290039,27.8466797 C112.290039,27.5732408 112.18628,27.3449716 111.97876,27.1618652 C111.771239,26.9787589 111.457522,26.835938 111.037598,26.7333984 L109.682617,26.4038086 C108.945309,26.2231436 108.402101,25.9643572 108.052979,25.6274414 C107.703856,25.2905257 107.529297,24.8364286 107.529297,24.2651367 Z M117.76123,29.0332031 C118.410648,29.0332031 118.948972,28.843996 119.376221,28.4655762 C119.803469,28.0871563 120.01709,27.6171903 120.01709,27.0556641 L120.01709,26.3305664 L117.893066,26.4697266 C116.740717,26.547852 116.164551,26.9775352 116.164551,27.7587891 C116.164551,28.1591817 116.315916,28.4716786 116.618652,28.6962891 C116.921388,28.9208996 117.302244,29.0332031 117.76123,29.0332031 Z M117.526855,30.1391602 C116.76025,30.1391602 116.12427,29.9279806 115.618896,29.5056152 C115.113523,29.0832498 114.86084,28.5107458 114.86084,27.7880859 C114.86084,26.3427662 115.820303,25.5639654 117.739258,25.4516602 L120.01709,25.3125 L120.01709,24.5947266 C120.01709,23.5888622 119.421393,23.0859375 118.22998,23.0859375 C117.756345,23.0859375 117.363283,23.1713859 117.050781,23.3422852 C116.73828,23.5131844 116.538086,23.7548813 116.450195,24.0673828 L115.175781,24.0673828 C115.258789,23.432614 115.585935,22.9235859 116.157227,22.5402832 C116.728518,22.1569805 117.434078,21.965332 118.273926,21.965332 C119.235845,21.965332 119.976804,22.198484 120.496826,22.6647949 C121.016848,23.1311058 121.276855,23.77441 121.276855,24.5947266 L121.276855,30 L120.075684,30 L120.075684,28.8354492 L119.958496,28.8354492 C119.704589,29.2553732 119.367678,29.5776356 118.947754,29.8022461 C118.52783,30.0268566 118.054202,30.1391602 117.526855,30.1391602 Z M126.564941,28.7695312 C127.297367,28.7695312 127.871092,28.5119655 128.286133,27.9968262 C128.701174,27.4816869 128.908691,26.7944379 128.908691,25.9350586 C128.908691,25.0756793 128.699953,24.3884303 128.282471,23.873291 C127.864988,23.3581517 127.292484,23.1005859 126.564941,23.1005859 C125.832516,23.1005859 125.268557,23.3581517 124.873047,23.873291 C124.477537,24.3884303 124.279785,25.0756793 124.279785,25.9350586 C124.279785,26.7944379 124.477537,27.4816869 124.873047,27.9968262 C125.268557,28.5119655 125.832516,28.7695312 126.564941,28.7695312 Z M126.623535,33.0322266 C125.671382,33.0322266 124.906009,32.8356953 124.327393,32.442627 C123.748776,32.0495586 123.410645,31.5258822 123.312988,30.871582 L124.645996,30.871582 C124.714356,31.1938493 124.919432,31.4514151 125.26123,31.6442871 C125.603029,31.8371592 126.057126,31.9335938 126.623535,31.9335938 C127.331547,31.9335938 127.884519,31.7688005 128.282471,31.439209 C128.680422,31.1096175 128.879395,30.6542998 128.879395,30.0732422 L128.879395,28.5205078 L128.762207,28.5205078 C128.513182,28.9550803 128.17383,29.2907703 127.744141,29.5275879 C127.314451,29.7644055 126.828616,29.8828125 126.286621,29.8828125 C125.266108,29.8828125 124.459231,29.5202673 123.865967,28.795166 C123.272702,28.0700647 122.976074,27.1167051 122.976074,25.9350586 C122.976074,24.7534121 123.273923,23.7963904 123.869629,23.0639648 C124.465335,22.3315393 125.270991,21.965332 126.286621,21.965332 C126.838382,21.965332 127.342527,22.0910632 127.799072,22.3425293 C128.255618,22.5939954 128.59619,22.9321268 128.820801,23.3569336 L128.937988,23.3569336 L128.937988,22.1044922 L130.13916,22.1044922 L130.13916,30.1391602 C130.13916,31.0229536 129.823001,31.7260716 129.190674,32.2485352 C128.558346,32.7709987 127.702642,33.0322266 126.623535,33.0322266 Z M135.427246,23.0786133 C134.79736,23.0786133 134.279787,23.2910135 133.874512,23.7158203 C133.469236,24.1406271 133.242188,24.7021449 133.193359,25.4003906 L137.543945,25.4003906 C137.529297,24.7021449 137.329103,24.1406271 136.943359,23.7158203 C136.557615,23.2910135 136.052249,23.0786133 135.427246,23.0786133 Z M137.507324,27.956543 C137.507324,27.956543 137.5708,27.956543 137.697754,27.956543 C137.824708,27.956543 137.971191,27.956543 138.137207,27.956543 C138.303223,27.956543 138.449706,27.956543 138.57666,27.956543 C138.703614,27.956543 138.76709,27.956543 138.76709,27.956543 C138.576659,28.6352573 138.190921,29.1686992 137.609863,29.5568848 C137.028806,29.9450703 136.306157,30.1391602 135.441895,30.1391602 C134.348139,30.1391602 133.481449,29.7717322 132.841797,29.0368652 C132.202145,28.3019983 131.882324,27.3095766 131.882324,26.0595703 C131.882324,24.8193297 132.204587,23.826908 132.849121,23.0822754 C133.493656,22.3376428 134.357905,21.965332 135.441895,21.965332 C136.506353,21.965332 137.343747,22.3205531 137.954102,23.0310059 C138.564456,23.7414586 138.869629,24.7094665 138.869629,25.9350586 L138.869629,26.418457 L133.193359,26.418457 L133.193359,26.4770508 C133.227539,27.2583047 133.448484,27.8784157 133.856201,28.3374023 C134.263918,28.796389 134.802243,29.0258789 135.471191,29.0258789 C135.979006,29.0258789 136.403807,28.9343271 136.745605,28.7512207 C137.087404,28.5681143 137.341308,28.3032244 137.507324,27.956543 Z" id="Error-message" fill="#FFFFFF"></path>
                <g id="Alert/UI/Error-Icon" transform="translate(16.000000, 16.000000)">
                    <path d="M8.5,0.288675135 L14.4282032,3.71132487 C14.7376043,3.88995766 14.9282032,4.22008468 14.9282032,4.57735027 L14.9282032,11.4226497 C14.9282032,11.7799153 14.7376043,12.1100423 14.4282032,12.2886751 L8.5,15.7113249 C8.19059892,15.8899577 7.80940108,15.8899577 7.5,15.7113249 L1.57179677,12.2886751 C1.26239569,12.1100423 1.07179677,11.7799153 1.07179677,11.4226497 L1.07179677,4.57735027 C1.07179677,4.22008468 1.26239569,3.88995766 1.57179677,3.71132487 L7.5,0.288675135 C7.80940108,0.11004234 8.19059892,0.11004234 8.5,0.288675135 Z" id="Container" fill="#FFFFFF" transform="translate(8.000000, 8.000000) rotate(90.000000) translate(-8.000000, -8.000000) "></path>
                    <rect id="Icon" fill="#E20000" x="4" y="7.5" width="8" height="1" rx="0.5"></rect>
                </g>
                <polygon id="" fill="#FFFFFF" points="482 22.078125 486.121094 17.9375 487.3125 19.1289062 483.171875 23.25 487.3125 27.3710938 486.121094 28.5625 482 24.421875 477.878906 28.5625 476.6875 27.3710938 480.828125 23.25 476.6875 19.1289062 477.878906 17.9375"></polygon>
            </g>
            <g id="Intermediate" transform="translate(0.000000, 72.000000)">
                <g id="Background">
                    <use fill="black" fill-opacity="1" filter="url(#filter-4)" xlink:href="#path-3"></use>
                    <use fill="#FE9300" fill-rule="evenodd" xlink:href="#path-3"></use>
                </g>
                <polygon id="Close-Button" fill="#FFFFFF" points="482 22.078125 486.121094 17.9375 487.3125 19.1289062 483.171875 23.25 487.3125 27.3710938 486.121094 28.5625 482 24.421875 477.878906 28.5625 476.6875 27.3710938 480.828125 23.25 476.6875 19.1289062 477.878906 17.9375"></polygon>
                <g id="Alert/UI/Intermediate-Icon" transform="translate(16.000000, 16.000000)">
                    <path d="M9.73256807,1.15294818 L15.7562248,13.0995563 C16.2535261,14.0858449 15.8571236,15.2885322 14.870835,15.7858335 C14.5915619,15.9266471 14.2831563,16 13.9703913,16 L1.92307789,16 C0.818508389,16 -0.0769221108,15.1045695 -0.0769221108,14 C-0.0769221108,13.6872351 -0.0035691883,13.3788294 0.137244419,13.0995563 L6.16090113,1.15294818 C6.65820244,0.16665959 7.86088969,-0.229742922 8.84717828,0.267558389 C9.22946743,0.460314242 9.53981222,0.770659027 9.73256807,1.15294818 Z" id="Container" fill="#FFFFFF" fill-rule="evenodd"></path>
                    <text id="Icon" font-family=".AppleSystemUIFont" font-size="13" font-weight="normal" line-spacing="10" fill="#FF9300">
                        <tspan x="6.5" y="17.5">!</tspan>
                    </text>
                </g>
                <path d="M47.2070312,21.6577148 L47.03125,22.2619629 C46.9140619,22.6647969 46.7626962,23.1823699 46.5771484,23.8146973 C46.3916006,24.4470246 46.1962901,25.1184047 45.9912109,25.8288574 C45.7861318,26.5393102 45.5908212,27.2106902 45.4052734,27.8430176 C45.2197256,28.475345 45.06836,28.9929179 44.9511719,29.395752 L44.7753906,30 L43.5302734,30 L40.6518555,19.4311523 L42.0288086,19.4311523 L44.1308594,28.0224609 L44.21875,28.0224609 L46.5844727,19.4311523 L47.9174805,19.4311523 L50.2832031,28.0224609 L50.3710938,28.0224609 L52.4731445,19.4311523 L53.8500977,19.4311523 L50.9716797,30 L49.7265625,30 L47.2949219,21.6577148 L47.2070312,21.6577148 Z M57.8930664,29.0332031 C58.5424837,29.0332031 59.0808084,28.843996 59.5080566,28.4655762 C59.9353049,28.0871563 60.1489258,27.6171903 60.1489258,27.0556641 L60.1489258,26.3305664 L58.0249023,26.4697266 C56.8725528,26.547852 56.2963867,26.9775352 56.2963867,27.7587891 C56.2963867,28.1591817 56.4477524,28.4716786 56.7504883,28.6962891 C57.0532242,28.9208996 57.4340797,29.0332031 57.8930664,29.0332031 Z M57.6586914,30.1391602 C56.892086,30.1391602 56.256106,29.9279806 55.7507324,29.5056152 C55.2453588,29.0832498 54.9926758,28.5107458 54.9926758,27.7880859 C54.9926758,26.3427662 55.9521388,25.5639654 57.8710938,25.4516602 L60.1489258,25.3125 L60.1489258,24.5947266 C60.1489258,23.5888622 59.5532286,23.0859375 58.3618164,23.0859375 C57.8881812,23.0859375 57.4951188,23.1713859 57.1826172,23.3422852 C56.8701156,23.5131844 56.6699223,23.7548813 56.5820312,24.0673828 L55.3076172,24.0673828 C55.3906254,23.432614 55.7177706,22.9235859 56.2890625,22.5402832 C56.8603544,22.1569805 57.5659138,21.965332 58.4057617,21.965332 C59.3676806,21.965332 60.10864,22.198484 60.6286621,22.6647949 C61.1486842,23.1311058 61.4086914,23.77441 61.4086914,24.5947266 L61.4086914,30 L60.2075195,30 L60.2075195,28.8354492 L60.090332,28.8354492 C59.8364245,29.2553732 59.4995138,29.5776356 59.0795898,29.8022461 C58.6596659,30.0268566 58.1860378,30.1391602 57.6586914,30.1391602 Z M63.503418,30 L63.503418,22.1044922 L64.7045898,22.1044922 L64.7045898,23.2763672 L64.8217773,23.2763672 C64.9389654,22.8906231 65.2026347,22.5756848 65.612793,22.331543 C66.0229513,22.0874011 66.4892552,21.965332 67.0117188,21.965332 C67.1142583,21.965332 67.2253412,21.9689941 67.3449707,21.9763184 C67.4646002,21.9836426 67.5634762,21.9921875 67.6416016,22.0019531 L67.6416016,23.2617188 C67.5927732,23.2470702 67.4780282,23.2312013 67.2973633,23.2141113 C67.1166983,23.1970214 66.9628913,23.1884766 66.8359375,23.1884766 C66.2353486,23.1884766 65.739748,23.3691388 65.3491211,23.7304688 C64.9584941,24.0917987 64.7631836,24.5507785 64.7631836,25.1074219 L64.7631836,30 L63.503418,30 Z M68.9819336,30 L68.9819336,22.1044922 L70.1831055,22.1044922 L70.1831055,23.3496094 L70.300293,23.3496094 C70.5004893,22.9150369 70.7946758,22.5756848 71.1828613,22.331543 C71.5710469,22.0874011 72.0678681,21.965332 72.6733398,21.965332 C73.5620162,21.965332 74.2443824,22.2180151 74.720459,22.7233887 C75.1965356,23.2287623 75.4345703,23.9501906 75.4345703,24.8876953 L75.4345703,30 L74.1748047,30 L74.1748047,25.1953125 C74.1748047,24.4824183 74.0222183,23.9550798 73.717041,23.6132812 C73.4118637,23.2714827 72.9443391,23.1005859 72.3144531,23.1005859 C71.6845672,23.1005859 71.1816425,23.2983379 70.8056641,23.6938477 C70.4296856,24.0893574 70.2416992,24.6337856 70.2416992,25.3271484 L70.2416992,30 L68.9819336,30 Z M77.5292969,30 L77.5292969,22.1044922 L78.7890625,22.1044922 L78.7890625,30 L77.5292969,30 Z M78.1591797,20.5004883 C77.9199207,20.5004883 77.7136239,20.4138192 77.5402832,20.2404785 C77.3669425,20.0671378 77.2802734,19.860841 77.2802734,19.621582 C77.2802734,19.3774402 77.3669425,19.1699227 77.5402832,18.9990234 C77.7136239,18.8281241 77.9199207,18.7426758 78.1591797,18.7426758 C78.4033215,18.7426758 78.610839,18.8281241 78.7817383,18.9990234 C78.9526376,19.1699227 79.0380859,19.3774402 79.0380859,19.621582 C79.0380859,19.860841 78.9526376,20.0671378 78.7817383,20.2404785 C78.610839,20.4138192 78.4033215,20.5004883 78.1591797,20.5004883 Z M80.9570312,30 L80.9570312,22.1044922 L82.1582031,22.1044922 L82.1582031,23.3496094 L82.2753906,23.3496094 C82.4755869,22.9150369 82.7697734,22.5756848 83.157959,22.331543 C83.5461445,22.0874011 84.0429657,21.965332 84.6484375,21.965332 C85.5371138,21.965332 86.21948,22.2180151 86.6955566,22.7233887 C87.1716332,23.2287623 87.409668,23.9501906 87.409668,24.8876953 L87.409668,30 L86.1499023,30 L86.1499023,25.1953125 C86.1499023,24.4824183 85.997316,23.9550798 85.6921387,23.6132812 C85.3869614,23.2714827 84.9194367,23.1005859 84.2895508,23.1005859 C83.6596648,23.1005859 83.1567402,23.2983379 82.7807617,23.6938477 C82.4047833,24.0893574 82.2167969,24.6337856 82.2167969,25.3271484 L82.2167969,30 L80.9570312,30 Z M92.668457,28.7695312 C93.4008826,28.7695312 93.9746073,28.5119655 94.3896484,27.9968262 C94.8046896,27.4816869 95.012207,26.7944379 95.012207,25.9350586 C95.012207,25.0756793 94.8034689,24.3884303 94.3859863,23.873291 C93.9685038,23.3581517 93.3959997,23.1005859 92.668457,23.1005859 C91.9360315,23.1005859 91.3720723,23.3581517 90.9765625,23.873291 C90.5810527,24.3884303 90.3833008,25.0756793 90.3833008,25.9350586 C90.3833008,26.7944379 90.5810527,27.4816869 90.9765625,27.9968262 C91.3720723,28.5119655 91.9360315,28.7695312 92.668457,28.7695312 Z M92.7270508,33.0322266 C91.7748976,33.0322266 91.0095244,32.8356953 90.4309082,32.442627 C89.852292,32.0495586 89.5141606,31.5258822 89.4165039,30.871582 L90.7495117,30.871582 C90.8178714,31.1938493 91.0229475,31.4514151 91.3647461,31.6442871 C91.7065447,31.8371592 92.1606417,31.9335938 92.7270508,31.9335938 C93.4350621,31.9335938 93.9880351,31.7688005 94.3859863,31.439209 C94.7839375,31.1096175 94.9829102,30.6542998 94.9829102,30.0732422 L94.9829102,28.5205078 L94.8657227,28.5205078 C94.616698,28.9550803 94.2773459,29.2907703 93.8476562,29.5275879 C93.4179666,29.7644055 92.9321316,29.8828125 92.3901367,29.8828125 C91.3696238,29.8828125 90.5627471,29.5202673 89.9694824,28.795166 C89.3762177,28.0700647 89.0795898,27.1167051 89.0795898,25.9350586 C89.0795898,24.7534121 89.3774384,23.7963904 89.9731445,23.0639648 C90.5688506,22.3315393 91.3745066,21.965332 92.3901367,21.965332 C92.9418973,21.965332 93.4460426,22.0910632 93.9025879,22.3425293 C94.3591331,22.5939954 94.6997059,22.9321268 94.9243164,23.3569336 L95.0415039,23.3569336 L95.0415039,22.1044922 L96.2426758,22.1044922 L96.2426758,30.1391602 C96.2426758,31.0229536 95.9265168,31.7260716 95.2941895,32.2485352 C94.6618621,32.7709987 93.8061577,33.0322266 92.7270508,33.0322266 Z M102.380371,30 L102.380371,22.1044922 L103.581543,22.1044922 L103.581543,23.3496094 L103.69873,23.3496094 C103.879395,22.9101541 104.160154,22.5695813 104.541016,22.3278809 C104.921877,22.0861804 105.375974,21.965332 105.90332,21.965332 C106.440432,21.965332 106.893309,22.0935046 107.261963,22.3498535 C107.630617,22.6062025 107.905273,22.9394511 108.085938,23.3496094 L108.203125,23.3496094 C108.41797,22.9296854 108.737791,22.5939954 109.162598,22.3425293 C109.587404,22.0910632 110.073239,21.965332 110.620117,21.965332 C111.425785,21.965332 112.045896,22.1874978 112.480469,22.6318359 C112.915041,23.0761741 113.132324,23.7133748 113.132324,24.543457 L113.132324,30 L111.872559,30 L111.872559,24.8364258 C111.872559,24.2553682 111.734621,23.8208022 111.45874,23.5327148 C111.18286,23.2446275 110.766604,23.1005859 110.209961,23.1005859 C109.663083,23.1005859 109.221193,23.2788068 108.884277,23.6352539 C108.547362,23.991701 108.378906,24.4213842 108.378906,24.9243164 L108.378906,30 L107.119141,30 L107.119141,24.6386719 C107.119141,24.1699195 106.968996,23.7963881 106.668701,23.5180664 C106.368407,23.2397447 105.969241,23.1005859 105.471191,23.1005859 C104.953611,23.1005859 104.519045,23.2958965 104.16748,23.6865234 C103.815916,24.0771504 103.640137,24.5507785 103.640137,25.1074219 L103.640137,30 L102.380371,30 Z M118.347168,23.0786133 C117.717282,23.0786133 117.199709,23.2910135 116.794434,23.7158203 C116.389158,24.1406271 116.16211,24.7021449 116.113281,25.4003906 L120.463867,25.4003906 C120.449219,24.7021449 120.249025,24.1406271 119.863281,23.7158203 C119.477537,23.2910135 118.972171,23.0786133 118.347168,23.0786133 Z M120.427246,27.956543 L121.687012,27.956543 C121.496581,28.6352573 121.110843,29.1686992 120.529785,29.5568848 C119.948728,29.9450703 119.226079,30.1391602 118.361816,30.1391602 C117.268061,30.1391602 116.40137,29.7717322 115.761719,29.0368652 C115.122067,28.3019983 114.802246,27.3095766 114.802246,26.0595703 C114.802246,24.8193297 115.124508,23.826908 115.769043,23.0822754 C116.413577,22.3376428 117.277827,21.965332 118.361816,21.965332 C119.426275,21.965332 120.263669,22.3205531 120.874023,23.0310059 C121.484378,23.7414586 121.789551,24.7094665 121.789551,25.9350586 L121.789551,26.418457 L116.113281,26.418457 L116.113281,26.4770508 C116.147461,27.2583047 116.368406,27.8784157 116.776123,28.3374023 C117.18384,28.796389 117.722165,29.0258789 118.391113,29.0258789 C118.898928,29.0258789 119.323729,28.9343271 119.665527,28.7512207 C120.007326,28.5681143 120.26123,28.3032244 120.427246,27.956543 Z M123.349609,24.2651367 C123.349609,23.6108366 123.630368,23.063967 124.191895,22.6245117 C124.753421,22.1850564 125.454097,21.965332 126.293945,21.965332 C127.124028,21.965332 127.806394,22.1557598 128.341064,22.5366211 C128.875735,22.9174824 129.18457,23.4326139 129.267578,24.0820312 L128.022461,24.0820312 C127.939453,23.7646469 127.749025,23.5107431 127.451172,23.3203125 C127.153319,23.1298819 126.765139,23.034668 126.286621,23.034668 C125.817869,23.034668 125.422365,23.1433095 125.100098,23.3605957 C124.77783,23.5778819 124.616699,23.8623029 124.616699,24.2138672 C124.616699,24.4824232 124.729003,24.7058097 124.953613,24.8840332 C125.178224,25.0622568 125.522459,25.207519 125.986328,25.3198242 L127.202148,25.612793 C127.94434,25.7934579 128.497313,26.0534651 128.861084,26.3928223 C129.224855,26.7321794 129.406738,27.1850558 129.406738,27.7514648 C129.406738,28.4594762 129.104007,29.0344216 128.498535,29.4763184 C127.893063,29.9182151 127.141118,30.1391602 126.242676,30.1391602 C125.363765,30.1391602 124.643557,29.9438496 124.082031,29.5532227 C123.520505,29.1625957 123.205567,28.64014 123.137207,27.9858398 L124.433594,27.9858398 C124.541016,28.3178728 124.750975,28.5827627 125.063477,28.7805176 C125.375978,28.9782725 125.783689,29.0771484 126.286621,29.0771484 C126.81885,29.0771484 127.255858,28.9624035 127.597656,28.7329102 C127.939455,28.5034168 128.110352,28.2080096 128.110352,27.8466797 C128.110352,27.5732408 128.006593,27.3449716 127.799072,27.1618652 C127.591552,26.9787589 127.277834,26.835938 126.85791,26.7333984 L125.50293,26.4038086 C124.765621,26.2231436 124.222414,25.9643572 123.873291,25.6274414 C123.524168,25.2905257 123.349609,24.8364286 123.349609,24.2651367 Z M130.966797,24.2651367 C130.966797,23.6108366 131.247556,23.063967 131.809082,22.6245117 C132.370608,22.1850564 133.071285,21.965332 133.911133,21.965332 C134.741215,21.965332 135.423581,22.1557598 135.958252,22.5366211 C136.492923,22.9174824 136.801757,23.4326139 136.884766,24.0820312 L135.639648,24.0820312 C135.55664,23.7646469 135.366212,23.5107431 135.068359,23.3203125 C134.770506,23.1298819 134.382327,23.034668 133.903809,23.034668 C133.435056,23.034668 133.039552,23.1433095 132.717285,23.3605957 C132.395018,23.5778819 132.233887,23.8623029 132.233887,24.2138672 C132.233887,24.4824232 132.34619,24.7058097 132.570801,24.8840332 C132.795411,25.0622568 133.139646,25.207519 133.603516,25.3198242 L134.819336,25.612793 C135.561527,25.7934579 136.1145,26.0534651 136.478271,26.3928223 C136.842043,26.7321794 137.023926,27.1850558 137.023926,27.7514648 C137.023926,28.4594762 136.721194,29.0344216 136.115723,29.4763184 C135.510251,29.9182151 134.758305,30.1391602 133.859863,30.1391602 C132.980953,30.1391602 132.260745,29.9438496 131.699219,29.5532227 C131.137693,29.1625957 130.822754,28.64014 130.754395,27.9858398 L132.050781,27.9858398 C132.158204,28.3178728 132.368162,28.5827627 132.680664,28.7805176 C132.993166,28.9782725 133.400876,29.0771484 133.903809,29.0771484 C134.436038,29.0771484 134.873045,28.9624035 135.214844,28.7329102 C135.556642,28.5034168 135.727539,28.2080096 135.727539,27.8466797 C135.727539,27.5732408 135.62378,27.3449716 135.41626,27.1618652 C135.208739,26.9787589 134.895022,26.835938 134.475098,26.7333984 L133.120117,26.4038086 C132.382809,26.2231436 131.839601,25.9643572 131.490479,25.6274414 C131.141356,25.2905257 130.966797,24.8364286 130.966797,24.2651367 Z M141.19873,29.0332031 C141.848148,29.0332031 142.386472,28.843996 142.813721,28.4655762 C143.240969,28.0871563 143.45459,27.6171903 143.45459,27.0556641 L143.45459,26.3305664 L141.330566,26.4697266 C140.178217,26.547852 139.602051,26.9775352 139.602051,27.7587891 C139.602051,28.1591817 139.753416,28.4716786 140.056152,28.6962891 C140.358888,28.9208996 140.739744,29.0332031 141.19873,29.0332031 Z M140.964355,30.1391602 C140.19775,30.1391602 139.56177,29.9279806 139.056396,29.5056152 C138.551023,29.0832498 138.29834,28.5107458 138.29834,27.7880859 C138.29834,26.3427662 139.257803,25.5639654 141.176758,25.4516602 L143.45459,25.3125 L143.45459,24.5947266 C143.45459,23.5888622 142.858893,23.0859375 141.66748,23.0859375 C141.193845,23.0859375 140.800783,23.1713859 140.488281,23.3422852 C140.17578,23.5131844 139.975586,23.7548813 139.887695,24.0673828 L138.613281,24.0673828 C138.696289,23.432614 139.023435,22.9235859 139.594727,22.5402832 C140.166018,22.1569805 140.871578,21.965332 141.711426,21.965332 C142.673345,21.965332 143.414304,22.198484 143.934326,22.6647949 C144.454348,23.1311058 144.714355,23.77441 144.714355,24.5947266 L144.714355,30 L143.513184,30 L143.513184,28.8354492 L143.395996,28.8354492 C143.142089,29.2553732 142.805178,29.5776356 142.385254,29.8022461 C141.96533,30.0268566 141.491702,30.1391602 140.964355,30.1391602 Z M150.002441,28.7695312 C150.734867,28.7695312 151.308592,28.5119655 151.723633,27.9968262 C152.138674,27.4816869 152.346191,26.7944379 152.346191,25.9350586 C152.346191,25.0756793 152.137453,24.3884303 151.719971,23.873291 C151.302488,23.3581517 150.729984,23.1005859 150.002441,23.1005859 C149.270016,23.1005859 148.706057,23.3581517 148.310547,23.873291 C147.915037,24.3884303 147.717285,25.0756793 147.717285,25.9350586 C147.717285,26.7944379 147.915037,27.4816869 148.310547,27.9968262 C148.706057,28.5119655 149.270016,28.7695312 150.002441,28.7695312 Z M150.061035,33.0322266 C149.108882,33.0322266 148.343509,32.8356953 147.764893,32.442627 C147.186276,32.0495586 146.848145,31.5258822 146.750488,30.871582 L148.083496,30.871582 C148.151856,31.1938493 148.356932,31.4514151 148.69873,31.6442871 C149.040529,31.8371592 149.494626,31.9335938 150.061035,31.9335938 C150.769047,31.9335938 151.322019,31.7688005 151.719971,31.439209 C152.117922,31.1096175 152.316895,30.6542998 152.316895,30.0732422 L152.316895,28.5205078 L152.199707,28.5205078 C151.950682,28.9550803 151.61133,29.2907703 151.181641,29.5275879 C150.751951,29.7644055 150.266116,29.8828125 149.724121,29.8828125 C148.703608,29.8828125 147.896731,29.5202673 147.303467,28.795166 C146.710202,28.0700647 146.413574,27.1167051 146.413574,25.9350586 C146.413574,24.7534121 146.711423,23.7963904 147.307129,23.0639648 C147.902835,22.3315393 148.708491,21.965332 149.724121,21.965332 C150.275882,21.965332 150.780027,22.0910632 151.236572,22.3425293 C151.693118,22.5939954 152.03369,22.9321268 152.258301,23.3569336 L152.375488,23.3569336 L152.375488,22.1044922 L153.57666,22.1044922 L153.57666,30.1391602 C153.57666,31.0229536 153.260501,31.7260716 152.628174,32.2485352 C151.995846,32.7709987 151.140142,33.0322266 150.061035,33.0322266 Z M158.864746,23.0786133 C158.23486,23.0786133 157.717287,23.2910135 157.312012,23.7158203 C156.906736,24.1406271 156.679688,24.7021449 156.630859,25.4003906 L160.981445,25.4003906 C160.966797,24.7021449 160.766603,24.1406271 160.380859,23.7158203 C159.995115,23.2910135 159.489749,23.0786133 158.864746,23.0786133 Z M160.944824,27.956543 C160.944824,27.956543 161.0083,27.956543 161.135254,27.956543 C161.262208,27.956543 161.408691,27.956543 161.574707,27.956543 C161.740723,27.956543 161.887206,27.956543 162.01416,27.956543 C162.141114,27.956543 162.20459,27.956543 162.20459,27.956543 C162.014159,28.6352573 161.628421,29.1686992 161.047363,29.5568848 C160.466306,29.9450703 159.743657,30.1391602 158.879395,30.1391602 C157.785639,30.1391602 156.918949,29.7717322 156.279297,29.0368652 C155.639645,28.3019983 155.319824,27.3095766 155.319824,26.0595703 C155.319824,24.8193297 155.642087,23.826908 156.286621,23.0822754 C156.931156,22.3376428 157.795405,21.965332 158.879395,21.965332 C159.943853,21.965332 160.781247,22.3205531 161.391602,23.0310059 C162.001956,23.7414586 162.307129,24.7094665 162.307129,25.9350586 L162.307129,26.418457 L156.630859,26.418457 L156.630859,26.4770508 C156.665039,27.2583047 156.885984,27.8784157 157.293701,28.3374023 C157.701418,28.796389 158.239743,29.0258789 158.908691,29.0258789 C159.416506,29.0258789 159.841307,28.9343271 160.183105,28.7512207 C160.524904,28.5681143 160.778808,28.3032244 160.944824,27.956543 Z" id="Message" fill="#FFFFFF"></path>
            </g>
            <g id="Positive">
                <g id="Background">
                    <use fill="black" fill-opacity="1" filter="url(#filter-6)" xlink:href="#path-5"></use>
                    <use fill="#55C200" fill-rule="evenodd" xlink:href="#path-5"></use>
                </g>
                <polygon id="Close-Button" fill="#FFFFFF" points="482 22.078125 486.121094 17.9375 487.3125 19.1289062 483.171875 23.25 487.3125 27.3710938 486.121094 28.5625 482 24.421875 477.878906 28.5625 476.6875 27.3710938 480.828125 23.25 476.6875 19.1289062 477.878906 17.9375"></polygon>
                <path d="M41.340332,19.4311523 L45.3320312,19.4311523 C46.3330128,19.4311523 47.1472137,19.7497527 47.7746582,20.3869629 C48.4021027,21.0241731 48.7158203,21.8456981 48.7158203,22.8515625 C48.7158203,23.8378956 48.39722,24.6472136 47.7600098,25.279541 C47.1227995,25.9118684 46.3085987,26.2280273 45.3173828,26.2280273 L42.6586914,26.2280273 L42.6586914,30 L41.340332,30 L41.340332,19.4311523 Z M42.6586914,20.6030273 L42.6586914,25.0561523 L44.987793,25.0561523 C45.7397499,25.0561523 46.3232401,24.8632832 46.7382812,24.4775391 C47.1533224,24.0917949 47.3608398,23.5498082 47.3608398,22.8515625 C47.3608398,22.1240198 47.1569845,21.5673847 46.7492676,21.1816406 C46.3415507,20.7958965 45.7543984,20.6030273 44.987793,20.6030273 L42.6586914,20.6030273 Z M53.7182617,30.1391602 C52.5952092,30.1391602 51.7077669,29.7741736 51.0559082,29.0441895 C50.4040495,28.3142053 50.078125,27.3169009 50.078125,26.0522461 C50.078125,24.7827085 50.4040495,23.7841833 51.0559082,23.0566406 C51.7077669,22.3290979 52.5952092,21.965332 53.7182617,21.965332 C54.8413142,21.965332 55.7287565,22.3290979 56.3806152,23.0566406 C57.032474,23.7841833 57.3583984,24.7827085 57.3583984,26.0522461 C57.3583984,27.3169009 57.032474,28.3142053 56.3806152,29.0441895 C55.7287565,29.7741736 54.8413142,30.1391602 53.7182617,30.1391602 Z M53.7182617,29.0039062 C54.4653358,29.0039062 55.0415019,28.7451198 55.4467773,28.2275391 C55.8520528,27.7099583 56.0546875,26.9848679 56.0546875,26.0522461 C56.0546875,25.1147414 55.8520528,24.3884303 55.4467773,23.873291 C55.0415019,23.3581517 54.4653358,23.1005859 53.7182617,23.1005859 C52.9711877,23.1005859 52.3950216,23.3581517 51.9897461,23.873291 C51.5844706,24.3884303 51.3818359,25.1147414 51.3818359,26.0522461 C51.3818359,26.9848679 51.5844706,27.7099583 51.9897461,28.2275391 C52.3950216,28.7451198 52.9711877,29.0039062 53.7182617,29.0039062 Z M58.918457,24.2651367 C58.918457,23.6108366 59.1992159,23.063967 59.7607422,22.6245117 C60.3222684,22.1850564 61.022945,21.965332 61.862793,21.965332 C62.6928752,21.965332 63.3752415,22.1557598 63.9099121,22.5366211 C64.4445828,22.9174824 64.7534176,23.4326139 64.8364258,24.0820312 L63.5913086,24.0820312 C63.5083004,23.7646469 63.3178726,23.5107431 63.0200195,23.3203125 C62.7221665,23.1298819 62.3339868,23.034668 61.8554688,23.034668 C61.3867164,23.034668 60.9912125,23.1433095 60.6689453,23.3605957 C60.3466781,23.5778819 60.1855469,23.8623029 60.1855469,24.2138672 C60.1855469,24.4824232 60.2978504,24.7058097 60.5224609,24.8840332 C60.7470714,25.0622568 61.0913063,25.207519 61.5551758,25.3198242 L62.7709961,25.612793 C63.5131873,25.7934579 64.0661603,26.0534651 64.4299316,26.3928223 C64.793703,26.7321794 64.9755859,27.1850558 64.9755859,27.7514648 C64.9755859,28.4594762 64.6728546,29.0344216 64.0673828,29.4763184 C63.461911,29.9182151 62.7099654,30.1391602 61.8115234,30.1391602 C60.9326128,30.1391602 60.2124052,29.9438496 59.6508789,29.5532227 C59.0893527,29.1625957 58.7744144,28.64014 58.7060547,27.9858398 L60.0024414,27.9858398 C60.1098638,28.3178728 60.3198227,28.5827627 60.6323242,28.7805176 C60.9448258,28.9782725 61.3525365,29.0771484 61.8554688,29.0771484 C62.387698,29.0771484 62.8247053,28.9624035 63.1665039,28.7329102 C63.5083025,28.5034168 63.6791992,28.2080096 63.6791992,27.8466797 C63.6791992,27.5732408 63.5754405,27.3449716 63.3679199,27.1618652 C63.1603994,26.9787589 62.8466818,26.835938 62.4267578,26.7333984 L61.0717773,26.4038086 C60.334469,26.2231436 59.7912615,25.9643572 59.4421387,25.6274414 C59.0930158,25.2905257 58.918457,24.8364286 58.918457,24.2651367 Z M66.7480469,30 L66.7480469,22.1044922 L68.0078125,22.1044922 L68.0078125,30 L66.7480469,30 Z M67.3779297,20.5004883 C67.1386707,20.5004883 66.9323739,20.4138192 66.7590332,20.2404785 C66.5856925,20.0671378 66.4990234,19.860841 66.4990234,19.621582 C66.4990234,19.3774402 66.5856925,19.1699227 66.7590332,18.9990234 C66.9323739,18.8281241 67.1386707,18.7426758 67.3779297,18.7426758 C67.6220715,18.7426758 67.829589,18.8281241 68.0004883,18.9990234 C68.1713876,19.1699227 68.2568359,19.3774402 68.2568359,19.621582 C68.2568359,19.860841 68.1713876,20.0671378 68.0004883,20.2404785 C67.829589,20.4138192 67.6220715,20.5004883 67.3779297,20.5004883 Z M70.703125,20.0610352 L71.9628906,20.0610352 L71.9628906,22.1044922 L73.7207031,22.1044922 L73.7207031,23.1591797 L71.9628906,23.1591797 L71.9628906,27.6269531 C71.9628906,28.0908226 72.0556631,28.4277333 72.2412109,28.6376953 C72.4267587,28.8476573 72.7246073,28.9526367 73.1347656,28.9526367 C73.2470709,28.9526367 73.3435055,28.9501953 73.4240723,28.9453125 C73.5046391,28.9404297 73.603515,28.9331055 73.7207031,28.9233398 L73.7207031,29.9853516 C73.5986322,30.0097657 73.4765631,30.0280761 73.3544922,30.0402832 C73.2324213,30.0524903 73.1079108,30.0585938 72.980957,30.0585938 C72.1704061,30.0585938 71.5881365,29.8950212 71.2341309,29.5678711 C70.8801252,29.240721 70.703125,28.7011756 70.703125,27.9492188 L70.703125,23.1591797 L69.4287109,23.1591797 L69.4287109,22.1044922 L70.703125,22.1044922 L70.703125,20.0610352 Z M75.4199219,30 L75.4199219,22.1044922 L76.6796875,22.1044922 L76.6796875,30 L75.4199219,30 Z M76.0498047,20.5004883 C75.8105457,20.5004883 75.6042489,20.4138192 75.4309082,20.2404785 C75.2575675,20.0671378 75.1708984,19.860841 75.1708984,19.621582 C75.1708984,19.3774402 75.2575675,19.1699227 75.4309082,18.9990234 C75.6042489,18.8281241 75.8105457,18.7426758 76.0498047,18.7426758 C76.2939465,18.7426758 76.501464,18.8281241 76.6723633,18.9990234 C76.8432626,19.1699227 76.9287109,19.3774402 76.9287109,19.621582 C76.9287109,19.860841 76.8432626,20.0671378 76.6723633,20.2404785 C76.501464,20.4138192 76.2939465,20.5004883 76.0498047,20.5004883 Z M85.2929688,22.1044922 L84.9963379,22.902832 C84.798583,23.4350613 84.5556655,24.0930137 84.2675781,24.876709 C83.9794907,25.6604043 83.690187,26.4440879 83.3996582,27.2277832 C83.1091294,28.0114785 82.8649912,28.6694309 82.6672363,29.2016602 L82.3706055,30 L81.081543,30 L78.1591797,22.1044922 L79.5068359,22.1044922 L81.6674805,28.6083984 L81.784668,28.6083984 L83.9453125,22.1044922 L85.2929688,22.1044922 Z M89.8925781,23.0786133 C89.2626922,23.0786133 88.7451192,23.2910135 88.3398438,23.7158203 C87.9345683,24.1406271 87.7075198,24.7021449 87.6586914,25.4003906 L92.0092773,25.4003906 C91.9946288,24.7021449 91.7944355,24.1406271 91.4086914,23.7158203 C91.0229473,23.2910135 90.5175813,23.0786133 89.8925781,23.0786133 Z M91.9726562,27.956543 L93.2324219,27.956543 C93.0419912,28.6352573 92.6562529,29.1686992 92.0751953,29.5568848 C91.4941377,29.9450703 90.7714887,30.1391602 89.9072266,30.1391602 C88.8134711,30.1391602 87.9467805,29.7717322 87.3071289,29.0368652 C86.6674773,28.3019983 86.3476562,27.3095766 86.3476562,26.0595703 C86.3476562,24.8193297 86.6699187,23.826908 87.3144531,23.0822754 C87.9589876,22.3376428 88.8232368,21.965332 89.9072266,21.965332 C90.971685,21.965332 91.809079,22.3205531 92.4194336,23.0310059 C93.0297882,23.7414586 93.3349609,24.7094665 93.3349609,25.9350586 L93.3349609,26.418457 L87.6586914,26.418457 L87.6586914,26.4770508 C87.6928713,27.2583047 87.9138163,27.8784157 88.3215332,28.3374023 C88.7292501,28.796389 89.2675748,29.0258789 89.9365234,29.0258789 C90.4443385,29.0258789 90.8691389,28.9343271 91.2109375,28.7512207 C91.5527361,28.5681143 91.8066398,28.3032244 91.9726562,27.956543 Z M99.0771484,30 L99.0771484,22.1044922 L100.27832,22.1044922 L100.27832,23.3496094 L100.395508,23.3496094 C100.576173,22.9101541 100.856932,22.5695813 101.237793,22.3278809 C101.618654,22.0861804 102.072751,21.965332 102.600098,21.965332 C103.13721,21.965332 103.590086,22.0935046 103.95874,22.3498535 C104.327394,22.6062025 104.60205,22.9394511 104.782715,23.3496094 L104.899902,23.3496094 C105.114747,22.9296854 105.434568,22.5939954 105.859375,22.3425293 C106.284182,22.0910632 106.770017,21.965332 107.316895,21.965332 C108.122563,21.965332 108.742674,22.1874978 109.177246,22.6318359 C109.611819,23.0761741 109.829102,23.7133748 109.829102,24.543457 L109.829102,30 L108.569336,30 L108.569336,24.8364258 C108.569336,24.2553682 108.431398,23.8208022 108.155518,23.5327148 C107.879637,23.2446275 107.463382,23.1005859 106.906738,23.1005859 C106.359861,23.1005859 105.91797,23.2788068 105.581055,23.6352539 C105.244139,23.991701 105.075684,24.4213842 105.075684,24.9243164 L105.075684,30 L103.815918,30 L103.815918,24.6386719 C103.815918,24.1699195 103.665773,23.7963881 103.365479,23.5180664 C103.065184,23.2397447 102.666018,23.1005859 102.167969,23.1005859 C101.650388,23.1005859 101.215822,23.2958965 100.864258,23.6865234 C100.512694,24.0771504 100.336914,24.5507785 100.336914,25.1074219 L100.336914,30 L99.0771484,30 Z M115.043945,23.0786133 C114.414059,23.0786133 113.896486,23.2910135 113.491211,23.7158203 C113.085935,24.1406271 112.858887,24.7021449 112.810059,25.4003906 L117.160645,25.4003906 C117.145996,24.7021449 116.945803,24.1406271 116.560059,23.7158203 C116.174314,23.2910135 115.668948,23.0786133 115.043945,23.0786133 Z M117.124023,27.956543 L118.383789,27.956543 C118.193358,28.6352573 117.80762,29.1686992 117.226562,29.5568848 C116.645505,29.9450703 115.922856,30.1391602 115.058594,30.1391602 C113.964838,30.1391602 113.098148,29.7717322 112.458496,29.0368652 C111.818844,28.3019983 111.499023,27.3095766 111.499023,26.0595703 C111.499023,24.8193297 111.821286,23.826908 112.46582,23.0822754 C113.110355,22.3376428 113.974604,21.965332 115.058594,21.965332 C116.123052,21.965332 116.960446,22.3205531 117.570801,23.0310059 C118.181155,23.7414586 118.486328,24.7094665 118.486328,25.9350586 L118.486328,26.418457 L112.810059,26.418457 L112.810059,26.4770508 C112.844238,27.2583047 113.065184,27.8784157 113.4729,28.3374023 C113.880617,28.796389 114.418942,29.0258789 115.087891,29.0258789 C115.595706,29.0258789 116.020506,28.9343271 116.362305,28.7512207 C116.704103,28.5681143 116.958007,28.3032244 117.124023,27.956543 Z M120.046387,24.2651367 C120.046387,23.6108366 120.327146,23.063967 120.888672,22.6245117 C121.450198,22.1850564 122.150875,21.965332 122.990723,21.965332 C123.820805,21.965332 124.503171,22.1557598 125.037842,22.5366211 C125.572512,22.9174824 125.881347,23.4326139 125.964355,24.0820312 L124.719238,24.0820312 C124.63623,23.7646469 124.445802,23.5107431 124.147949,23.3203125 C123.850096,23.1298819 123.461916,23.034668 122.983398,23.034668 C122.514646,23.034668 122.119142,23.1433095 121.796875,23.3605957 C121.474608,23.5778819 121.313477,23.8623029 121.313477,24.2138672 C121.313477,24.4824232 121.42578,24.7058097 121.650391,24.8840332 C121.875001,25.0622568 122.219236,25.207519 122.683105,25.3198242 L123.898926,25.612793 C124.641117,25.7934579 125.19409,26.0534651 125.557861,26.3928223 C125.921633,26.7321794 126.103516,27.1850558 126.103516,27.7514648 C126.103516,28.4594762 125.800784,29.0344216 125.195312,29.4763184 C124.589841,29.9182151 123.837895,30.1391602 122.939453,30.1391602 C122.060542,30.1391602 121.340335,29.9438496 120.778809,29.5532227 C120.217282,29.1625957 119.902344,28.64014 119.833984,27.9858398 L121.130371,27.9858398 C121.237794,28.3178728 121.447752,28.5827627 121.760254,28.7805176 C122.072755,28.9782725 122.480466,29.0771484 122.983398,29.0771484 C123.515628,29.0771484 123.952635,28.9624035 124.294434,28.7329102 C124.636232,28.5034168 124.807129,28.2080096 124.807129,27.8466797 C124.807129,27.5732408 124.70337,27.3449716 124.49585,27.1618652 C124.288329,26.9787589 123.974611,26.835938 123.554688,26.7333984 L122.199707,26.4038086 C121.462399,26.2231436 120.919191,25.9643572 120.570068,25.6274414 C120.220946,25.2905257 120.046387,24.8364286 120.046387,24.2651367 Z M127.663574,24.2651367 C127.663574,23.6108366 127.944333,23.063967 128.505859,22.6245117 C129.067386,22.1850564 129.768062,21.965332 130.60791,21.965332 C131.437992,21.965332 132.120359,22.1557598 132.655029,22.5366211 C133.1897,22.9174824 133.498535,23.4326139 133.581543,24.0820312 L132.336426,24.0820312 C132.253418,23.7646469 132.06299,23.5107431 131.765137,23.3203125 C131.467284,23.1298819 131.079104,23.034668 130.600586,23.034668 C130.131834,23.034668 129.73633,23.1433095 129.414062,23.3605957 C129.091795,23.5778819 128.930664,23.8623029 128.930664,24.2138672 C128.930664,24.4824232 129.042968,24.7058097 129.267578,24.8840332 C129.492189,25.0622568 129.836423,25.207519 130.300293,25.3198242 L131.516113,25.612793 C132.258304,25.7934579 132.811277,26.0534651 133.175049,26.3928223 C133.53882,26.7321794 133.720703,27.1850558 133.720703,27.7514648 C133.720703,28.4594762 133.417972,29.0344216 132.8125,29.4763184 C132.207028,29.9182151 131.455083,30.1391602 130.556641,30.1391602 C129.67773,30.1391602 128.957522,29.9438496 128.395996,29.5532227 C127.83447,29.1625957 127.519532,28.64014 127.451172,27.9858398 L128.747559,27.9858398 C128.854981,28.3178728 129.06494,28.5827627 129.377441,28.7805176 C129.689943,28.9782725 130.097654,29.0771484 130.600586,29.0771484 C131.132815,29.0771484 131.569823,28.9624035 131.911621,28.7329102 C132.25342,28.5034168 132.424316,28.2080096 132.424316,27.8466797 C132.424316,27.5732408 132.320558,27.3449716 132.113037,27.1618652 C131.905517,26.9787589 131.591799,26.835938 131.171875,26.7333984 L129.816895,26.4038086 C129.079586,26.2231436 128.536379,25.9643572 128.187256,25.6274414 C127.838133,25.2905257 127.663574,24.8364286 127.663574,24.2651367 Z M137.895508,29.0332031 C138.544925,29.0332031 139.08325,28.843996 139.510498,28.4655762 C139.937746,28.0871563 140.151367,27.6171903 140.151367,27.0556641 L140.151367,26.3305664 L138.027344,26.4697266 C136.874994,26.547852 136.298828,26.9775352 136.298828,27.7587891 C136.298828,28.1591817 136.450194,28.4716786 136.75293,28.6962891 C137.055666,28.9208996 137.436521,29.0332031 137.895508,29.0332031 Z M137.661133,30.1391602 C136.894527,30.1391602 136.258547,29.9279806 135.753174,29.5056152 C135.2478,29.0832498 134.995117,28.5107458 134.995117,27.7880859 C134.995117,26.3427662 135.95458,25.5639654 137.873535,25.4516602 L140.151367,25.3125 L140.151367,24.5947266 C140.151367,23.5888622 139.55567,23.0859375 138.364258,23.0859375 C137.890623,23.0859375 137.49756,23.1713859 137.185059,23.3422852 C136.872557,23.5131844 136.672364,23.7548813 136.584473,24.0673828 L135.310059,24.0673828 C135.393067,23.432614 135.720212,22.9235859 136.291504,22.5402832 C136.862796,22.1569805 137.568355,21.965332 138.408203,21.965332 C139.370122,21.965332 140.111081,22.198484 140.631104,22.6647949 C141.151126,23.1311058 141.411133,23.77441 141.411133,24.5947266 L141.411133,30 L140.209961,30 L140.209961,28.8354492 L140.092773,28.8354492 C139.838866,29.2553732 139.501955,29.5776356 139.082031,29.8022461 C138.662107,30.0268566 138.188479,30.1391602 137.661133,30.1391602 Z M146.699219,28.7695312 C147.431644,28.7695312 148.005369,28.5119655 148.42041,27.9968262 C148.835451,27.4816869 149.042969,26.7944379 149.042969,25.9350586 C149.042969,25.0756793 148.834231,24.3884303 148.416748,23.873291 C147.999265,23.3581517 147.426761,23.1005859 146.699219,23.1005859 C145.966793,23.1005859 145.402834,23.3581517 145.007324,23.873291 C144.611814,24.3884303 144.414062,25.0756793 144.414062,25.9350586 C144.414062,26.7944379 144.611814,27.4816869 145.007324,27.9968262 C145.402834,28.5119655 145.966793,28.7695312 146.699219,28.7695312 Z M146.757812,33.0322266 C145.805659,33.0322266 145.040286,32.8356953 144.46167,32.442627 C143.883054,32.0495586 143.544922,31.5258822 143.447266,30.871582 L144.780273,30.871582 C144.848633,31.1938493 145.053709,31.4514151 145.395508,31.6442871 C145.737306,31.8371592 146.191403,31.9335938 146.757812,31.9335938 C147.465824,31.9335938 148.018797,31.7688005 148.416748,31.439209 C148.814699,31.1096175 149.013672,30.6542998 149.013672,30.0732422 L149.013672,28.5205078 L148.896484,28.5205078 C148.64746,28.9550803 148.308108,29.2907703 147.878418,29.5275879 C147.448728,29.7644055 146.962893,29.8828125 146.420898,29.8828125 C145.400386,29.8828125 144.593509,29.5202673 144.000244,28.795166 C143.406979,28.0700647 143.110352,27.1167051 143.110352,25.9350586 C143.110352,24.7534121 143.4082,23.7963904 144.003906,23.0639648 C144.599612,22.3315393 145.405268,21.965332 146.420898,21.965332 C146.972659,21.965332 147.476804,22.0910632 147.93335,22.3425293 C148.389895,22.5939954 148.730468,22.9321268 148.955078,23.3569336 L149.072266,23.3569336 L149.072266,22.1044922 L150.273438,22.1044922 L150.273438,30.1391602 C150.273438,31.0229536 149.957279,31.7260716 149.324951,32.2485352 C148.692624,32.7709987 147.836919,33.0322266 146.757812,33.0322266 Z M155.561523,23.0786133 C154.931637,23.0786133 154.414065,23.2910135 154.008789,23.7158203 C153.603514,24.1406271 153.376465,24.7021449 153.327637,25.4003906 L157.678223,25.4003906 C157.663574,24.7021449 157.463381,24.1406271 157.077637,23.7158203 C156.691893,23.2910135 156.186527,23.0786133 155.561523,23.0786133 Z M157.641602,27.956543 C157.641602,27.956543 157.705077,27.956543 157.832031,27.956543 C157.958985,27.956543 158.105468,27.956543 158.271484,27.956543 C158.437501,27.956543 158.583984,27.956543 158.710938,27.956543 C158.837891,27.956543 158.901367,27.956543 158.901367,27.956543 C158.710937,28.6352573 158.325198,29.1686992 157.744141,29.5568848 C157.163083,29.9450703 156.440434,30.1391602 155.576172,30.1391602 C154.482416,30.1391602 153.615726,29.7717322 152.976074,29.0368652 C152.336423,28.3019983 152.016602,27.3095766 152.016602,26.0595703 C152.016602,24.8193297 152.338864,23.826908 152.983398,23.0822754 C153.627933,22.3376428 154.492182,21.965332 155.576172,21.965332 C156.64063,21.965332 157.478024,22.3205531 158.088379,23.0310059 C158.698734,23.7414586 159.003906,24.7094665 159.003906,25.9350586 L159.003906,26.418457 L153.327637,26.418457 L153.327637,26.4770508 C153.361817,27.2583047 153.582762,27.8784157 153.990479,28.3374023 C154.398195,28.796389 154.93652,29.0258789 155.605469,29.0258789 C156.113284,29.0258789 156.538084,28.9343271 156.879883,28.7512207 C157.221681,28.5681143 157.475585,28.3032244 157.641602,27.956543 Z" id="Message" fill="#FFFFFF"></path>
                <g id="Alert/UI/Positive-Icon" transform="translate(16.000000, 15.000000)">
                    <circle id="Container" fill="#FFFFFF" fill-rule="evenodd" cx="8" cy="8" r="8"></circle>
                    <text id="Icon" font-family="LastResort, .LastResort" font-size="16" font-weight="normal" fill="#00C700">
                        <tspan x="0" y="13"></tspan>
                    </text>
                </g>
            </g>
        </g>
    </g>
</svg>